<?xml version="1.0" standalone="no"?>
<!DOCTYPE svg PUBLIC "-//W3C//DTD SVG 1.1//EN" "http://www.w3.org/Graphics/SVG/1.1/DTD/svg11.dtd" >
<svg>
<metadata>
Created by FontForge 20090914 at Tue Sep  4 19:51:23 2012
 By www-data
Copyright (c) 2010 by Anatoletype + fRED. Published  by Anatoletype. All rights reserved.
</metadata>
<defs>
<font id="DejaWeb" horiz-adv-x="857" >
  <font-face 
    font-family="DejaWeb"
    font-weight="400"
    font-stretch="normal"
    units-per-em="2048"
    panose-1="2 11 5 3 3 3 4 2 2 4"
    ascent="1556"
    descent="-492"
    x-height="1120"
    cap-height="1493"
    bbox="-563 -549.003 2667 1960"
    underline-thickness="90"
    underline-position="-40"
    unicode-range="U+000A-U+FB05"
  />
<missing-glyph horiz-adv-x="1503" 
d="M983 61l-160 -116l-723 511v434l161 114l260 -180v362l160 117l165 -117v-362l117 81l138 -97l141 98l161 -115v-435l-161 -113l-141 100l-118 -84v-198zM145 890l116 -82l120 82l-120 84zM285 791l116 -83l120 83l-118 84zM422 693l119 -85l120 85l-120 82zM681 1270
l-118 -84l118 -83l120 83zM681 1071l-118 -83l118 -83l119 85zM681 875l-118 -84l118 -83l119 83zM563 593l118 -82l119 83l-119 82zM703 495l120 -84l115 84l-115 83zM963 875l-121 -84l119 -83l117 83zM1242 875l-117 -84l117 -83l118 83z" />
    <glyph glyph-name="fi" unicode="fi" horiz-adv-x="1216" 
d="M887 0v974.999h-483v-975h-166v975h-199v145h199v84c0 66 7.33301 122.167 22 168.5s37 84.333 67 114s67.5 51.167 112.5 64.5s98.167 20 159.5 20c21.333 0 44 -2 68 -6s48 -10.333 72 -19l-26 -129c-10 2 -20.333 3.66699 -31 5s-21.834 2.5 -33.501 3.5
s-23.667 1.83301 -36 2.5s-25.166 1 -38.499 1c-28.667 0 -53.667 -3.66699 -75 -11s-39 -18.666 -53 -33.999s-24.5 -35.5 -31.5 -60.5s-10.5 -54.833 -10.5 -89.5v-114h648v-1120h-165zM874 1439c0 39.333 7.5 68.167 22.5 86.5s38.833 27.5 71.5 27.5
s56.834 -9 72.501 -27s23.5 -47 23.5 -87s-7.83301 -68.833 -23.5 -86.5s-39.834 -26.5 -72.501 -26.5s-56.5 8.83301 -71.5 26.5s-22.5 46.5 -22.5 86.5z" />
    <glyph glyph-name="fl" unicode="fl" horiz-adv-x="1217" 
d="M887 0l-0.00195312 1377c-19.333 8 -40.333 15.167 -63 21.5s-46.5 11.666 -71.5 15.999s-50.833 7.83301 -77.5 10.5s-53.667 4 -81 4c-33.333 0 -62 -3.83301 -86 -11.5s-43.667 -19.5 -59 -35.5s-26.666 -36.333 -33.999 -61s-11 -53.667 -11 -87v-114h288v-145h-288
v-975h-166v975h-199v145h199v84c0 63.333 8 118.166 24 164.499s39.833 84.5 71.5 114.5s71.334 52.167 119.001 66.5s103.167 21.5 166.5 21.5c30 0 63.333 -2.16699 100 -6.5s74.167 -10.666 112.5 -18.999s76.5 -18.333 114.5 -30s73.333 -24.5 106 -38.5v-1477h-165z
" />
    <glyph glyph-name="f_f_i" unicode="ffi" horiz-adv-x="1864" 
d="M1534 975h-482.001v-975h-165v975h-483v-975h-166v975h-199v145h199v84c0 66 7.33301 122.167 22 168.5s37 84.333 67 114s67.5 51.167 112.5 64.5s98.167 20 159.5 20c21.333 0 44 -2 68 -6s48 -10.333 72 -19l-26 -129c-19.333 3.33301 -40.5 6.16602 -63.5 8.49902
s-48.167 3.5 -75.5 3.5c-28.667 0 -53.667 -3.66699 -75 -11s-39 -18.666 -53 -33.999s-24.5 -35.5 -31.5 -60.5s-10.5 -54.833 -10.5 -89.5v-114h483v84c0 66 7.33301 122.167 22 168.5s36.834 84.333 66.501 114s67.167 51.167 112.5 64.5s98.666 20 159.999 20
c21.333 0 44 -2 68 -6s47.667 -10.333 71 -19l-26 -129c-19.333 3.33301 -40.5 6.16602 -63.5 8.49902s-47.833 3.5 -74.5 3.5c-28.667 0 -53.667 -3.66699 -75 -11s-39.166 -18.666 -53.499 -33.999s-25 -35.5 -32 -60.5s-10.5 -54.833 -10.5 -89.5v-114h648v-1120h-166
v975zM1521 1439c0 39.333 7.5 68.167 22.5 86.5s38.833 27.5 71.5 27.5c33.333 0 57.833 -9 73.5 -27s23.5 -47 23.5 -87s-8 -68.833 -24 -86.5s-40.333 -26.5 -73 -26.5s-56.5 8.83301 -71.5 26.5s-22.5 46.5 -22.5 86.5z" />
    <glyph glyph-name="f_f_l" unicode="ffl" horiz-adv-x="1866" 
d="M599 1571c21.333 0 43.998 -1.99902 67.998 -5.99902s48 -10.333 72 -19l-26 -129c-19.333 3.33301 -40.5 6.16602 -63.5 8.49902s-48.167 3.5 -75.5 3.5c-28.667 0 -53.667 -3.66699 -75 -11s-39 -18.666 -53 -33.999s-24.5 -35.5 -31.5 -60.5
s-10.5 -54.833 -10.5 -89.5v-114h483v84c0 63.333 8 118.166 24 164.499s39.833 84.5 71.5 114.5s71.334 52.167 119.001 66.5s103.167 21.5 166.5 21.5c30 0 63.333 -2.16699 100 -6.5s74.167 -10.666 112.5 -18.999s76.5 -18.333 114.5 -30s73.333 -24.5 106 -38.5v-1477
h-165v1377c-19.333 8 -40.333 15.167 -63 21.5s-46.5 11.666 -71.5 15.999s-50.833 7.83301 -77.5 10.5s-53.667 4 -81 4c-33.333 0 -62 -3.83301 -86 -11.5s-43.667 -19.5 -59 -35.5s-26.666 -36.333 -33.999 -61s-11 -53.667 -11 -87v-114h288v-145h-288v-975h-166v975
h-483v-975h-166v975h-199v145h199v84c0 66 7.33301 122.167 22 168.5s37 84.333 67 114s67.5 51.167 112.5 64.5s98.167 20 159.5 20z" />
    <glyph glyph-name="f_f" unicode="ff" horiz-adv-x="1364" 
d="M599 1571c21.333 0 43.999 -2 67.999 -6s48 -10.333 72 -19l-26 -129c-19.333 3.33301 -40.5 6.16602 -63.5 8.49902s-48.167 3.5 -75.5 3.5c-28.667 0 -53.667 -3.66699 -75 -11s-39 -18.666 -53 -33.999s-24.5 -35.5 -31.5 -60.5s-10.5 -54.833 -10.5 -89.5v-114h483
v84c0 66 7.33301 122.167 22 168.5s36.834 84.333 66.501 114s67.167 51.167 112.5 64.5s98.666 20 159.999 20c21.333 0 44 -2 68 -6s47.667 -10.333 71 -19l-26 -129c-19.333 3.33301 -40.5 6.16602 -63.5 8.49902s-47.833 3.5 -74.5 3.5
c-28.667 0 -53.667 -3.66699 -75 -11s-39.166 -18.666 -53.499 -33.999s-25 -35.5 -32 -60.5s-10.5 -54.833 -10.5 -89.5v-114h288v-145h-288v-975h-165v975h-483v-975h-166v975h-199v145h199v84c0 66 7.33301 122.167 22 168.5s37 84.333 67 114s67.5 51.167 112.5 64.5
s98.167 20 159.5 20z" />
    <glyph glyph-name="f_t" unicode="ft" horiz-adv-x="1439" 
d="M1378 15c-9.33301 -4.66699 -21.1699 -9.49609 -35.5029 -14.4961s-29.833 -9.66699 -46.5 -14s-33.667 -7.83301 -51 -10.5s-33.666 -4 -48.999 -4c-54 0 -100.333 6.5 -139 19.5s-70.667 33.333 -96 61s-44 63 -56 106s-18 94.833 -18 155.5v661h-483v-975h-166v975
h-199v145h199v84c0 58.667 5.83301 110.667 17.5 156s30.334 83.666 56.001 114.999s59 55.166 100 71.499s90.833 24.5 149.5 24.5c14.667 0 30.167 -0.666992 46.5 -2s32.333 -3.33301 48 -6s30.667 -5.83398 45 -9.50098s26.5 -7.83398 36.5 -12.501l-23 -130
c-10.667 2.66699 -21.667 5 -33 7s-23.333 3.83301 -36 5.5s-25.5 3 -38.5 4s-26.167 1.5 -39.5 1.5c-33.333 0 -60.666 -3.83301 -81.999 -11.5s-38 -19.5 -50 -35.5s-20.167 -36.167 -24.5 -60.5s-6.5 -53.5 -6.5 -87.5v-114h483l20 318h145v-318h338v-145h-338v-622
c0 -34.667 2.83301 -66 8.5 -94s15 -51.667 28 -71s30 -34.333 51 -45s46.833 -16 77.5 -16c8.66699 0 19 0.5 31 1.5s24.167 2.5 36.5 4.5s24.5 4.33301 36.5 7s22.667 5.66699 32 9z" />
    <glyph glyph-name=".notdef" horiz-adv-x="1503" 
d="M983 61l-160 -116l-723 511v434l161 114l260 -180v362l160 117l165 -117v-362l117 81l138 -97l141 98l161 -115v-435l-161 -113l-141 100l-118 -84v-198zM145 890l116 -82l120 82l-120 84zM285 791l116 -83l120 83l-118 84zM422 693l119 -85l120 85l-120 82zM681 1270
l-118 -84l118 -83l120 83zM681 1071l-118 -83l118 -83l119 85zM681 875l-118 -84l118 -83l119 83zM563 593l118 -82l119 83l-119 82zM703 495l120 -84l115 84l-115 83zM963 875l-121 -84l119 -83l117 83zM1242 875l-117 -84l117 -83l118 83z" />
    <glyph glyph-name=".null" horiz-adv-x="0" 
 />
    <glyph glyph-name=".null" horiz-adv-x="0" 
 />
    <glyph glyph-name="LF" unicode="&#xa;" horiz-adv-x="480" 
 />
    <glyph glyph-name="nonmarkingreturn" unicode="&#xd;" horiz-adv-x="480" 
 />
    <glyph glyph-name="space" unicode=" " horiz-adv-x="480" 
 />
    <glyph glyph-name="exclam" unicode="!" horiz-adv-x="674" 
d="M261 421c-1.33301 24 -3 58.167 -5 102.5l-6.5 144.5c-2.33301 52 -4.33301 105.167 -6 159.5s-2.5 104.166 -2.5 149.499v516h175v-516c0 -45.333 -0.833008 -95.166 -2.5 -149.499s-3.5 -107.5 -5.5 -159.5s-4.16699 -100.167 -6.5 -144.5l-5.5 -102.5h-135zM217 99
c0 44.667 8.83301 77.334 26.5 98.001s45.167 31 82.5 31c38.667 0 67.5 -10.333 86.5 -31s28.5 -53.334 28.5 -98.001c0 -46 -9.5 -78.667 -28.5 -98s-47.833 -29 -86.5 -29c-38 0 -65.667 9.66699 -83 29s-26 52 -26 98z" />
    <glyph glyph-name="quotedbl" unicode="&#x22;" horiz-adv-x="846" 
d="M332 1493l-18 -475h-138l-18 475h174zM688 1493l-18 -475h-136l-18 475h172z" />
    <glyph glyph-name="numbersign" unicode="#" horiz-adv-x="1605" 
d="M839 1470l-98 -412h275l99 412h152l-98 -412h295v-160h-331l-78 -328h301v-159h-338l-97 -411h-152l97 411h-277l-97 -411h-152l98 411h-298v159h333l80 328h-305v160h341l96 412h154zM980 898h-275l-79 -328h277z" />
    <glyph glyph-name="dollar" unicode="$" horiz-adv-x="1187" 
d="M715 1691l0.00195312 -208.005l34 -4c35.333 -5.33301 70.166 -13.5 104.499 -24.5s68.166 -24.667 101.499 -41s66.333 -35.833 99 -58.5l-105 -140c-44.667 32.667 -94 57.334 -148 74.001c-26.667 8 -55.334 14.333 -86.001 19v-492l1 -1
c44.667 -24 88.167 -49.167 130.5 -75.5s80 -55.666 113 -87.999s59.667 -68.166 80 -107.499s30.5 -84 30.5 -134c0 -60 -13.5 -114.833 -40.5 -164.5s-63.667 -92.334 -110 -128.001s-100.5 -63.5 -162.5 -83.5c-26.667 -8 -54 -14.667 -82 -20v-263h-155v254
c-33.333 2 -65.333 5.66699 -96 11c-42 8 -81.5 19 -118.5 33s-71.5 30.833 -103.5 50.5s-61 41.5 -87 65.5l109 136c22 -17.333 45.5 -33.333 70.5 -48s52 -27.5 81 -38.5s60.167 -19.833 93.5 -26.5c16 -2.66699 33 -5 51 -7v545c-41.333 22.667 -81.666 46 -120.999 70
c-42 26.667 -79.5 55.834 -112.5 87.501s-59.667 67 -80 106s-30.5 83.5 -30.5 133.5c0 56 12.667 106.333 38 151s59.333 82.834 102 114.501s92 55.834 148 72.501c31.333 9.33301 63.333 16.333 96 21v209h155zM693.002 191.995
c36.667 9.33301 68.999 22.666 96.999 39.999s50.333 38.5 67 63.5s25 53.167 25 84.5c0 40 -10.167 75.833 -30.5 107.5s-47.166 60.834 -80.499 87.501c-28.667 22.667 -60.667 44.667 -96 66v-453zM514.001 1304c-31.333 -6.66699 -58.333 -16.501 -81 -29.501
s-40 -29.667 -52 -50s-18 -43.833 -18 -70.5c0 -38.667 10.167 -73.5 30.5 -104.5s46.833 -59.833 79.5 -86.5c26 -21.333 55 -41.666 87 -60.999v409c-16 -2 -31.333 -4.33301 -46 -7z" />
    <glyph glyph-name="percent" unicode="%" horiz-adv-x="1917" 
d="M615 1071c0 34.667 -2 70.5 -6 107.5s-12.167 70.833 -24.5 101.5s-29.833 55.667 -52.5 75s-52.334 29 -89.001 29c-31.333 0 -57.166 -8.16699 -77.499 -24.5s-36.166 -38 -47.499 -65s-19.166 -57.5 -23.499 -91.5s-6.5 -68.333 -6.5 -103c0 -35.333 2 -71.5 6 -108.5
s12.167 -70.833 24.5 -101.5s29.666 -55.667 51.999 -75s52.166 -29 89.499 -29c31.333 0 57 8.16699 77 24.5s35.833 38 47.5 65s19.667 57.5 24 91.5s6.5 68.667 6.5 104zM791 1100c0 -62 -5.99902 -120.166 -17.999 -174.499s-31.667 -101.833 -59 -142.5
s-63.166 -72.667 -107.499 -96s-98.833 -35 -163.5 -35c-59.333 0 -110 11.167 -152 33.5s-76.333 52.666 -103 90.999s-46 82.833 -58 133.5s-18 104.334 -18 161.001c0 62 6 120 18 174s31.667 101.333 59 142s63.166 72.667 107.499 96s98.833 35 163.5 35
c59.333 0 110 -11.167 152 -33.5s76.167 -52.5 102.5 -90.5s45.666 -82.333 57.999 -133s18.5 -104.334 18.5 -161.001zM1424 1543l136 -82l-1089 -1534l-136 82zM1629 391.001c0 34.667 -2 70.5 -6 107.5s-12.167 70.833 -24.5 101.5s-29.833 55.667 -52.5 75
s-52.334 29 -89.001 29c-31.333 0 -57.166 -8.16699 -77.499 -24.5s-36.166 -38 -47.499 -65s-19.166 -57.5 -23.499 -91.5s-6.5 -68.333 -6.5 -103c0 -35.333 2 -71.5 6 -108.5s12.167 -70.833 24.5 -101.5s29.666 -55.667 51.999 -75s52.166 -29 89.499 -29
c31.333 0 57 8.16699 77 24.5s35.833 38 47.5 65s19.667 57.5 24 91.5s6.5 68.667 6.5 104zM1805 420.001c0 -62 -5.99902 -120.166 -17.999 -174.499s-31.667 -101.833 -59 -142.5s-63.166 -72.667 -107.499 -96s-98.833 -35 -163.5 -35c-59.333 0 -110 11.167 -152 33.5
s-76.333 52.666 -103 90.999s-46 82.833 -58 133.5s-18 104.334 -18 161.001c0 62 6 120 18 174s31.667 101.333 59 142s63.166 72.667 107.499 96s98.833 35 163.5 35c59.333 0 110 -11.167 152 -33.5s76.167 -52.5 102.5 -90.5s45.666 -82.333 57.999 -133
s18.5 -104.334 18.5 -161.001z" />
    <glyph glyph-name="ampersand" unicode="&#x26;" horiz-adv-x="1588" 
d="M1496 14c-9.33301 -4.66699 -21.5 -9.49512 -36.5 -14.4951s-31 -9.5 -48 -13.5s-34.5 -7.33301 -52.5 -10s-34.667 -4 -50 -4c-55.333 0 -103.333 6.5 -144 19.5s-74.334 33.333 -101.001 61s-46.5 63 -59.5 106s-19.5 94.833 -19.5 155.5v928c0 15.333 -6 29 -18 41
s-27.833 22.5 -47.5 31.5s-41.834 16.833 -66.501 23.5s-49.5 12 -74.5 16s-49.167 6.83301 -72.5 8.5s-43 2.5 -59 2.5c-40.667 0 -79.834 -4.33301 -117.501 -13s-71 -22 -100 -40s-52.167 -40.833 -69.5 -68.5s-26 -60.167 -26 -97.5
c0 -39.333 9.33301 -75.666 28 -108.999s45 -62 79 -86s75 -42.667 123 -56s101.333 -20 160 -20h37v-155h-58c-52 0 -102.333 -6.66699 -151 -20s-92 -32.333 -130 -57s-68.5 -54.667 -91.5 -90s-34.5 -75.333 -34.5 -120c0 -49.333 9.16699 -93 27.5 -131
s43.833 -70 76.5 -96s71.5 -45.833 116.5 -59.5s94.167 -20.5 147.5 -20.5c37.333 0 70.5 1.66699 99.5 5s59.167 8.66602 90.5 15.999l31 -133c-29.333 -13.333 -62.833 -23.833 -100.5 -31.5s-84.5 -11.5 -140.5 -11.5c-76.667 0 -147.167 9 -211.5 27
s-119.666 45 -165.999 81s-82.5 81 -108.5 135s-39 117 -39 189c0 44.667 7.66699 88 23 130s36.666 80.833 63.999 116.5s60.333 66.667 99 93s81.334 46.5 128.001 60.5c-42 11.333 -80 27.666 -114 48.999s-63 46 -87 74s-42.333 58.333 -55 91s-19 65.667 -19 99
c0 66 13.5 124.167 40.5 174.5s63.667 92.5 110 126.5s100.333 59.667 162 77s127.167 26 196.5 26c30.667 0 63.834 -1.83301 99.501 -5.5s71.5 -9.33398 107.5 -17.001s70.667 -17.834 104 -30.501s62.833 -27.834 88.5 -45.501s46.167 -38 61.5 -61s23 -49.167 23 -78.5
v-162h359v-145h-359v-622c0 -34.667 3.16699 -66 9.5 -94s16.5 -51.667 30.5 -71s32.333 -34.333 55 -45s50.334 -16 83.001 -16c8.66699 0 19.167 0.5 31.5 1.5s25 2.5 38 4.5s26 4.16699 39 6.5s24.5 5.16602 34.5 8.49902z" />
    <glyph glyph-name="quotesingle" unicode="'" horiz-adv-x="490" 
d="M328 1493l-15 -445h-135l-15 445h165z" />
    <glyph glyph-name="parenleft" unicode="(" horiz-adv-x="726" 
d="M439 -273c-48 73.333 -89.834 147.169 -125.501 221.502s-65.5 149.833 -89.5 226.5s-41.833 155 -53.5 235s-17.5 162 -17.5 246s6.83301 166 20.5 246s33.334 157.667 59.001 233s56.5 148 92.5 218s76.333 137 121 201l129 -67
c-41.333 -66 -77.333 -132.167 -108 -198.5s-56.167 -133 -76.5 -200s-35.5 -134.833 -45.5 -203.5s-15 -138.334 -15 -209.001c0 -80 6 -158.333 18 -235s28.667 -151.167 50 -223.5s46.833 -142.833 76.5 -211.5s62.5 -135.334 98.5 -200.001z" />
    <glyph glyph-name="parenright" unicode=")" horiz-adv-x="682" 
d="M201.026 1553.98c47.9971 -73.3291 89.8262 -147.156 125.491 -221.485c35.6641 -74.3291 65.4951 -149.824 89.4941 -226.486s41.8311 -154.99 53.4971 -234.985s17.499 -161.99 17.499 -245.985s-6.83301 -165.99 -20.499 -245.985
s-33.3311 -157.657 -58.9961 -232.986s-56.4971 -147.991 -92.4951 -217.987c-35.9971 -69.9951 -76.3281 -136.991 -120.992 -200.987l-128.992 66.9961c41.3311 65.9961 77.3291 132.158 107.994 198.487s56.1631 132.992 76.4951 199.988s35.498 134.825 45.498 203.487
c9.99902 68.6631 14.999 138.325 14.999 208.987c0 79.9951 -6 158.324 -17.999 234.986c-11.999 76.6611 -28.665 151.156 -49.9971 223.485s-46.8301 142.824 -76.4951 211.486c-29.665 68.6631 -62.4961 135.326 -98.4932 199.989z" />
    <glyph glyph-name="asterisk" unicode="*" horiz-adv-x="999" 
d="M924 1247l-341 -194l341 -195l-55 -98l-317 203v-377h-105v377l-318 -203l-54 98l340 195l-340 194l54 99l318 -203v377h105v-377l317 203z" />
    <glyph glyph-name="plus" unicode="+" horiz-adv-x="1570" 
d="M1305 719v-154h-443v-491h-155v491h-442v154h442v449h155v-449h443z" />
    <glyph glyph-name="comma" unicode="," horiz-adv-x="593" 
d="M296 240c14.667 0 29 -2.5 43 -7.5s26.5 -13 37.5 -24s19.667 -25.167 26 -42.5s9.5 -38 9.5 -62c0 -32.667 -4.16699 -67.167 -12.5 -103.5s-19 -72.5 -32 -108.5s-27.667 -70.5 -44 -103.5s-32.5 -62.5 -48.5 -88.5l-100 46c6 11.333 13 27.166 21 47.499
s15.833 41.5 23.5 63.5s14.167 43.5 19.5 64.5s8 37.833 8 50.5c0 6.66699 -3.5 13.834 -10.5 21.501s-14.667 17 -23 28s-16 24.833 -23 41.5s-10.5 37.334 -10.5 62.001c0 20 3.16699 37.333 9.5 52s14.833 26.667 25.5 36s23 16.166 37 20.499s28.667 6.5 44 6.5z" />
    <glyph glyph-name="hyphen" unicode="-" horiz-adv-x="843" 
d="M169 643h505v-145h-505v145z" />
    <glyph glyph-name="period" unicode="." horiz-adv-x="586" 
d="M181 111c0 44.667 8.83301 77.334 26.5 98.001s45.167 31 82.5 31c38.667 0 67.5 -10.333 86.5 -31s28.5 -53.334 28.5 -98.001c0 -46 -9.5 -78.667 -28.5 -98s-47.833 -29 -86.5 -29c-38 0 -65.667 9.66699 -83 29s-26 52 -26 98z" />
    <glyph glyph-name="slash" unicode="/" horiz-adv-x="710" 
d="M523 1493h155l-491 -1683h-155z" />
    <glyph glyph-name="zero" unicode="0" horiz-adv-x="1278" 
d="M974 692c0 46.667 -2.33301 93.3369 -7 140.004s-12.5 91.5 -23.5 134.5s-25.333 83 -43 120s-39.167 69.167 -64.5 96.5s-55 48.833 -89 64.5s-73 23.5 -117 23.5s-82.667 -7.66699 -116 -23s-62.166 -36.5 -86.499 -63.5s-44.333 -58.333 -60 -94
s-28.334 -73.834 -38.001 -114.501s-16.334 -82.667 -20.001 -126s-5.5 -85.666 -5.5 -126.999c0 -46.667 2.5 -93.334 7.5 -140.001s13 -91.167 24 -133.5s25.333 -82 43 -119s39.334 -69 65.001 -96s55.5 -48.167 89.5 -63.5s73 -23 117 -23
c44.667 0 83.667 7.66699 117 23s62 36.166 86 62.499s43.833 57.166 59.5 92.499s28 73.166 37 113.499s15.333 82 19 125s5.5 85.5 5.5 127.5zM1161 723.003c0 -63.333 -4.00098 -125.831 -12.001 -187.498s-20.667 -120.334 -38 -176.001s-39.833 -107.167 -67.5 -154.5
s-61.167 -88.333 -100.5 -123s-84.833 -61.667 -136.5 -81s-110.5 -29 -176.5 -29c-64.667 0 -122.167 9.16699 -172.5 27.5s-94.5 44 -132.5 77s-70.167 72 -96.5 117s-47.833 94.167 -64.5 147.5s-28.667 109.666 -36 168.999s-11 120 -11 182c0 63.333 4 126 12 188
s20.833 121 38.5 177s40.334 107.667 68.001 155s61.334 88.5 101.001 123.5s85.334 62.333 137.001 82s110.5 29.5 176.5 29.5c64.667 0 122.167 -9.33301 172.5 -28s94.333 -44.5 132 -77.5s69.667 -72.167 96 -117.5s47.666 -94.833 63.999 -148.5
s28.166 -110.5 35.499 -170.5s11 -120.667 11 -182z" />
    <glyph glyph-name="one" unicode="1" horiz-adv-x="1025" 
d="M183 152h292v1100l-296 -117l-39 157l333 126h177v-1266h267v-152h-734v152z" />
    <glyph glyph-name="two" unicode="2" horiz-adv-x="1127" 
d="M1009 152l-0.00488281 -151.995h-859v152l327 359c48.667 53.333 92 103.166 130 149.499s70.333 90.333 97 132s47 81.334 61 119.001s21 74.834 21 111.501c0 41.333 -7.16699 77.666 -21.5 108.999s-34.166 57.666 -59.499 78.999s-55.5 37.333 -90.5 48
s-73.167 16 -114.5 16c-22 0 -46 -1.5 -72 -4.5s-53 -7.33301 -81 -13s-56.333 -12.834 -85 -21.501s-57 -18.334 -85 -29.001l-37 148c34.667 14.667 68.834 27.667 102.501 39s66.334 21 98.001 29s62.5 14 92.5 18s59 6 87 6c67.333 0 128.833 -8.66699 184.5 -26
s103.334 -42.833 143.001 -76.5s70.334 -74.834 92.001 -123.501s32.5 -104.334 32.5 -167.001c0 -52 -8 -102.667 -24 -152s-38.5 -98.833 -67.5 -148.5s-64.167 -100 -105.5 -151s-87 -104.167 -137 -159.5l-264 -291h635z" />
    <glyph glyph-name="three" unicode="3" horiz-adv-x="1100" 
d="M683 768c48.667 -11.333 91.333 -28 128 -50s67 -47.833 91 -77.5s42 -62.334 54 -98.001s18 -72.5 18 -110.5c0 -75.333 -14.167 -141.666 -42.5 -198.999s-66 -105.333 -113 -144s-100.833 -67.834 -161.5 -87.501s-123.334 -29.5 -188.001 -29.5
c-30 0 -61.167 1.5 -93.5 4.5s-64.833 7.5 -97.5 13.5s-65.334 13.5 -98.001 22.5s-64.667 19.5 -96 31.5l54 172c60.667 -24.667 120.5 -42.834 179.5 -54.501s116.167 -17.5 171.5 -17.5c44.667 0 85.334 6.33301 122.001 19s68 30.334 94 53.001
s46.167 49.834 60.5 81.501s21.5 66.167 21.5 103.5c0 34.667 -7.83301 67.834 -23.5 99.501s-40.167 59.5 -73.5 83.5s-76.333 43 -129 57s-116 21 -190 21h-111v152h121c51.333 0 98.833 6 142.5 18s81.5 29.167 113.5 51.5s57 49.5 75 81.5s27 68 27 108
c0 64.667 -23.167 114.667 -69.5 150s-114.166 53 -203.499 53c-50 0 -98 -5.16699 -144 -15.5s-92.667 -24.5 -140 -42.5l-50 148c27.333 12 55.5 23 84.5 33s58.5 18.5 88.5 25.5s60.167 12.5 90.5 16.5s60.5 6 90.5 6c65.333 0 125 -7.16699 179 -21.5
s100.333 -35.833 139 -64.5s68.667 -64.5 90 -107.5s32 -92.833 32 -149.5c0 -44 -7 -84.333 -21 -121s-32.333 -69.167 -55 -97.5s-48.667 -52.333 -78 -72s-59 -34.834 -89 -45.501z" />
    <glyph glyph-name="four" unicode="4" horiz-adv-x="1234" 
d="M747 1236l-504 -742h504v742zM679 1418h243v-924h221v-152h-221v-342h-175v342h-667v188z" />
    <glyph glyph-name="five" unicode="5" horiz-adv-x="1152" 
d="M199 1418l746.002 0.00390625v-152h-571v-387c10.667 2.66699 23.667 5.16699 39 7.5s31.5 4.33301 48.5 6s34.5 3 52.5 4s35.333 1.5 52 1.5c68.667 0 132 -9.33301 190 -28s107.667 -46 149 -82s73.666 -80.167 96.999 -132.5s35 -112.166 35 -179.499
c0 -82 -12.5 -154.5 -37.5 -217.5s-59.667 -115.667 -104 -158s-97.166 -74.5 -158.499 -96.5s-128 -33 -200 -33c-32 0 -65.333 1.83301 -100 5.5s-69.334 9.16699 -104.001 16.5s-68 16.666 -100 27.999s-61.333 24.666 -88 39.999l60 165c28 -12 55.833 -23 83.5 -33
s56 -18.333 85 -25s58.667 -11.834 89 -15.501s61.833 -5.5 94.5 -5.5c44.667 0 85 6 121 18s66.833 30.167 92.5 54.5s45.334 55.166 59.001 92.499s20.5 81.666 20.5 132.999c0 42.667 -7 81.167 -21 115.5s-34.167 63.5 -60.5 87.5s-58.333 42.333 -96 55
s-79.834 19 -126.501 19c-26.667 0 -55.334 -1 -86.001 -3s-61.334 -5 -92.001 -9s-60.667 -8.66699 -90 -14s-55.666 -11.333 -78.999 -18v740z" />
    <glyph glyph-name="six" unicode="6" horiz-adv-x="1189" 
d="M595 748c-47.333 0 -88.833 -8.50098 -124.5 -25.501s-65.5 -39.667 -89.5 -68s-42 -60.833 -54 -97.5s-18 -74.667 -18 -114c0 -47.333 7.83301 -89.666 23.5 -126.999s37.5 -69 65.5 -95s61.5 -45.833 100.5 -59.5s82.167 -20.5 129.5 -20.5
c42 0 80.5 6.83301 115.5 20.5s65 33 90 58s44.5 55 58.5 90s21 74.167 21 117.5c0 53.333 -7.5 100 -22.5 140s-36.333 73.5 -64 100.5s-61.167 47.167 -100.5 60.5s-83 20 -131 20zM965 1220c-18 8 -36.5 15.499 -55.5 22.499s-40 13.167 -63 18.5s-48.5 9.5 -76.5 12.5
s-59.667 4.5 -95 4.5c-56 0 -104 -7.5 -144 -22.5s-73.833 -37.167 -101.5 -66.5s-49.834 -65.333 -66.501 -108s-29 -92 -37 -148c-5.33301 -31.333 -11.666 -61 -18.999 -89l-23 -89l4 -2c6 11.333 12 21.166 18 29.499s12.5 16 19.5 23s14.667 13.667 23 20
s17.833 13.166 28.5 20.499c12 8.66699 26.5 17.334 43.5 26.001s35.833 16.334 56.5 23.001s43 12 67 16s49.333 6 76 6c68.667 0 131.667 -10.833 189 -32.5s106.666 -52.5 147.999 -92.5s73.5 -88.333 96.5 -145s34.5 -120 34.5 -190c0 -73.333 -12 -139.833 -36 -199.5
s-57.5 -110.667 -100.5 -153s-94.5 -75 -154.5 -98s-126 -34.5 -198 -34.5c-74.667 0 -141.834 12.5 -201.501 37.5s-110.167 61.333 -151.5 109s-73.166 106.167 -95.499 175.5s-33.5 148.333 -33.5 237s3.83301 173 11.5 253s20.334 153.833 38.001 221.5
s41 128.834 70 183.501s65 101 108 139s93.167 67.333 150.5 88s123.666 31 198.999 31c40.667 0 77.334 -1.66699 110.001 -5s62.5 -7.83301 89.5 -13.5s51.833 -12.667 74.5 -21s44.667 -17.5 66 -27.5z" />
    <glyph glyph-name="seven" unicode="7" horiz-adv-x="1063" 
d="M102 1418l850.997 0.000976562v-135c-26.667 -45.333 -55.667 -100 -87 -164s-63.166 -133.333 -95.499 -208s-64.166 -152.667 -95.499 -234s-59.833 -162 -85.5 -242s-47.5 -157.333 -65.5 -232s-30.333 -142.334 -37 -203.001h-175c6 71.333 18.5 147 37.5 227
s41.833 160.667 68.5 242s55.834 161.833 87.501 241.5s63.5 154.5 95.5 224.5s62.667 133.5 92 190.5s55 103.833 77 140.5h-668v152z" />
    <glyph glyph-name="eight" unicode="8" horiz-adv-x="1204" 
d="M1032 1117c0 -54 -10.333 -101.832 -31 -143.499s-48 -79.167 -82 -112.5s-64.5 -58.333 -91.5 -75l-57.5 -35l81.5 -46c32.333 -18.667 65.666 -43.834 99.999 -75.501s61.833 -67.5 82.5 -107.5s31 -86.333 31 -139c0 -62 -12.667 -118.333 -38 -169
s-59.5 -94 -102.5 -130s-93 -63.667 -150 -83s-117.5 -29 -181.5 -29c-61.333 0 -119.333 8.66699 -174 26s-102.834 42.333 -144.501 75s-74.667 72.5 -99 119.5s-36.5 100.167 -36.5 159.5c0 53.333 10.333 100.833 31 142.5s47.834 78.834 81.501 111.501
s67 59.167 100 79.5s61.5 37.166 85.5 50.499c-14 7.33301 -35.333 19.166 -64 35.499s-60.167 40 -94.5 71s-61.833 66.167 -82.5 105.5s-31 85 -31 137c0 60 12.667 112.667 38 158s58.833 83.333 100.5 114s89.334 53.667 143.001 69s109.167 23 166.5 23
c54.667 0 107.167 -7.33301 157.5 -22s94.833 -36.167 133.5 -64.5s69.667 -63.166 93 -104.499s35 -88.333 35 -141zM594 657.001c-80 -40.667 -136.999 -73.167 -170.999 -97.5s-61.333 -50.833 -82 -79.5s-31 -61 -31 -97c0 -38.667 7.66699 -73.334 23 -104.001
s36.5 -56.667 63.5 -78s59.167 -37.666 96.5 -48.999s77.666 -17 120.999 -17c36.667 0 71.834 5 105.501 15s63.167 24.333 88.5 43s45.666 41.5 60.999 68.5s23 57.167 23 90.5c0 42.667 -10.333 80 -31 112s-48.167 61 -82.5 87s-95.833 61.333 -184.5 106zM338.001 1117
c0 -40 10.3311 -75.5 30.998 -106.5s48.167 -59.333 82.5 -85s89.5 -57.834 165.5 -96.501c52.667 26.667 95.834 52.334 129.501 77.001s60.834 51.334 81.501 80.001s31 61.667 31 99c0 34.667 -7.5 64.667 -22.5 90s-35 46.166 -60 62.499s-53.5 28.333 -85.5 36
s-65 11.5 -99 11.5s-66.333 -3.5 -97 -10.5s-57.667 -17.5 -81 -31.5s-41.833 -31.5 -55.5 -52.5s-20.5 -45.5 -20.5 -73.5z" />
    <glyph glyph-name="nine" unicode="9" horiz-adv-x="1189" 
d="M594.036 669.046c47.3311 0 88.8262 8.49902 124.49 25.498c35.665 16.999 65.4971 39.6641 89.4961 67.9951s41.998 60.8291 53.9971 97.4941c11.999 36.6641 17.999 74.6621 17.999 113.993c0 47.3301 -7.83301 89.6611 -23.498 126.992
c-15.666 37.3311 -37.498 68.9961 -65.4961 94.9951c-27.998 25.998 -61.4961 45.8301 -100.494 59.4961c-38.9971 13.666 -82.1611 20.499 -129.492 20.499c-41.9971 0 -80.4951 -6.83301 -115.493 -20.499c-34.9971 -13.666 -64.9951 -32.998 -89.9941 -57.9961
c-24.999 -24.999 -44.498 -54.9971 -58.4971 -89.9951c-13.999 -34.9971 -20.999 -74.1611 -20.999 -117.492c0 -53.3301 7.5 -99.9941 22.499 -139.992c14.999 -39.9971 36.3311 -73.4951 63.9961 -100.493c27.665 -26.999 61.1631 -47.1641 100.494 -60.4961
c39.3311 -13.333 82.9951 -19.999 130.992 -19.999zM224.057 197.074c17.999 -7.99902 36.498 -15.5029 55.4971 -22.502c18.999 -7 39.998 -13.166 62.9971 -18.499s48.4971 -9.49902 76.4951 -12.498c27.999 -3 59.6641 -4.5 94.9951 -4.5
c55.9971 0 103.994 7.49902 143.991 22.498s73.8281 37.1641 101.493 66.4951c27.665 29.332 49.8301 65.3301 66.4961 107.994c16.665 42.6641 28.9971 91.9941 36.9961 147.99c5.33301 31.3311 11.666 60.9961 18.999 88.9951l22.999 88.9941l-4 2
c-5.99902 -11.333 -11.999 -21.166 -17.999 -29.499c-5.99902 -8.33301 -12.499 -15.999 -19.499 -22.999c-6.99902 -6.99902 -14.665 -13.665 -22.998 -19.998s-17.832 -13.166 -28.498 -20.499c-11.999 -8.66602 -26.498 -17.332 -43.4971 -25.999
c-16.999 -8.66602 -35.8311 -16.332 -56.4961 -22.998s-42.9971 -11.999 -66.9961 -15.999s-49.3311 -6 -75.9961 -6c-68.6631 0 -131.659 10.833 -188.988 32.498c-57.3301 21.665 -106.66 52.4971 -147.991 92.4951c-41.3311 39.9971 -73.4961 88.3271 -96.4951 144.99
s-34.498 119.993 -34.498 189.989c0 73.3291 11.999 139.825 35.998 199.488s57.4971 110.66 100.494 152.991s94.4941 74.9961 154.491 97.9951c59.9961 22.999 125.992 34.498 197.987 34.498c74.6621 0 141.825 -12.499 201.488 -37.4971
c59.6631 -24.999 110.16 -61.3301 151.491 -108.994c41.3311 -47.6631 73.1621 -106.159 95.4932 -175.488c22.332 -69.3291 33.498 -148.324 33.498 -236.985s-3.83301 -172.989 -11.499 -252.984s-20.332 -153.824 -37.998 -221.486
c-17.665 -67.6631 -40.9971 -128.826 -69.9951 -183.489s-64.9961 -100.993 -107.993 -138.991s-93.1611 -67.3301 -150.491 -87.9951s-123.659 -30.998 -198.988 -30.998c-40.6641 0 -77.3281 1.66699 -109.993 5s-62.4961 7.83301 -89.4941 13.499
c-26.999 5.66699 -51.8311 12.667 -74.4961 21s-44.6631 17.499 -65.9951 27.498z" />
    <glyph glyph-name="colon" unicode=":" horiz-adv-x="586" 
d="M181 931c0 44.667 8.83301 77.334 26.5 98.001s45.167 31 82.5 31c38.667 0 67.5 -10.333 86.5 -31s28.5 -53.334 28.5 -98.001c0 -46 -9.5 -78.667 -28.5 -98s-47.833 -29 -86.5 -29c-38 0 -65.667 9.66699 -83 29s-26 52 -26 98zM181 111
c0 44.667 8.83301 77.334 26.5 98.001s45.167 31 82.5 31c38.667 0 67.5 -10.333 86.5 -31s28.5 -53.334 28.5 -98.001c0 -46 -9.5 -78.667 -28.5 -98s-47.833 -29 -86.5 -29c-38 0 -65.667 9.66699 -83 29s-26 52 -26 98z" />
    <glyph glyph-name="semicolon" unicode=";" horiz-adv-x="593" 
d="M175 -254c6 11.333 13 27.166 21 47.499s15.833 41.5 23.5 63.5s14.167 43.5 19.5 64.5s8 37.833 8 50.5c0 6.66699 -3.5 13.834 -10.5 21.501s-14.667 17 -23 28s-16 24.833 -23 41.5s-10.5 37.334 -10.5 62.001c0 20 3.16699 37.333 9.5 52s14.833 26.667 25.5 36
s23 16.166 37 20.499s28.667 6.5 44 6.5c14.667 0 29 -2.5 43 -7.5s26.5 -13 37.5 -24s19.667 -25.167 26 -42.5s9.5 -38 9.5 -62c0 -32.667 -4.16699 -67.167 -12.5 -103.5s-19 -72.5 -32 -108.5s-27.667 -70.5 -44 -103.5s-32.5 -62.5 -48.5 -88.5zM182 931
c0 44.667 9 77.334 27 98.001s45.667 31 83 31c38 0 66.5 -10.333 85.5 -31s28.5 -53.334 28.5 -98.001c0 -46 -9.5 -78.667 -28.5 -98s-47.5 -29 -85.5 -29s-65.833 9.66699 -83.5 29s-26.5 52 -26.5 98z" />
    <glyph glyph-name="less" unicode="&#x3c;" horiz-adv-x="1467" 
d="M1288 1008l-875 -367l875 -365l-77 -158l-1031 435l1 167l1032 438z" />
    <glyph glyph-name="equal" unicode="=" horiz-adv-x="1572" 
d="M1306 919v-154h-1040v154h1040zM1306 502v-154h-1040v154h1040z" />
    <glyph glyph-name="greater" unicode="&#x3e;" horiz-adv-x="1572" 
d="M179 268l874 367l-874 365l77 158l1031 -435l-1 -167l-1032 -438z" />
    <glyph glyph-name="question" unicode="?" horiz-adv-x="1011" 
d="M885 1187c0 -45.333 -8.49902 -86.002 -25.499 -122.002s-38.167 -69.5 -63.5 -100.5s-53 -60.667 -83 -89s-57.667 -57.666 -83 -87.999s-46.5 -62.833 -63.5 -97.5s-25.5 -73.667 -25.5 -117v-172h-175v141c0 61.333 8.16699 114.833 24.5 160.5s36.833 86 61.5 121
s51.5 66.333 80.5 94l80.5 79c24.667 25 45.167 50.167 61.5 75.5s24.5 53.333 24.5 84c0 32 -5.5 60.167 -16.5 84.5s-26.5 44.5 -46.5 60.5s-44 28 -72 36s-59 12 -93 12c-20.667 0 -41 -1.16699 -61 -3.5s-40.833 -5.83301 -62.5 -10.5s-44.667 -11 -69 -19
s-50.5 -17.333 -78.5 -28l-52 150c28 13.333 56.333 25.166 85 35.499s57.5 19 86.5 26s57.833 12.167 86.5 15.5s57 5 85 5c60 0 114.167 -7.16699 162.5 -21.5s89.666 -35.666 123.999 -63.999s60.833 -63.166 79.5 -104.499s28 -89 28 -143zM342.001 98.998
c0 44.667 8.83301 77.334 26.5 98.001s45.167 31 82.5 31c38.667 0 67.5 -10.333 86.5 -31s28.5 -53.334 28.5 -98.001c0 -46 -9.5 -78.667 -28.5 -98s-47.833 -29 -86.5 -29c-38 0 -65.667 9.66699 -83 29s-26 52 -26 98z" />
    <glyph glyph-name="at" unicode="@" horiz-adv-x="2034" 
d="M1418 -271c-30.667 -18 -62.166 -33.501 -94.499 -46.501s-65.5 -23.833 -99.5 -32.5s-69.333 -15.167 -106 -19.5s-75 -6.5 -115 -6.5c-138.667 0 -263 22 -373 66s-203.333 106.333 -280 187s-135.334 177.834 -176.001 291.501s-61 239.834 -61 378.501
c0 87.333 8.5 172.166 25.5 254.499s42.5 159.5 76.5 231.5s76.167 137.833 126.5 197.5s108.833 111 175.5 154s141.5 76.333 224.5 100s174.167 35.5 273.5 35.5c98 0 188.5 -10 271.5 -30s158 -48.5 225 -85.5s126 -82 177 -135s93.667 -112.167 128 -177.5
s60.166 -136.5 77.499 -213.5s26 -158.167 26 -243.5c0 -91.333 -8.83301 -174.166 -26.5 -248.499s-43 -138 -76 -191s-73.167 -93.833 -120.5 -122.5s-100.666 -43 -159.999 -43c-65.333 0 -120 13 -164 39s-76 66.333 -96 121c-11.333 -22 -27.5 -43.167 -48.5 -63.5
s-45 -38 -72 -53s-56.167 -27 -87.5 -36s-63 -13.5 -95 -13.5c-58 0 -111 11.5 -159 34.5s-89.5 56.833 -124.5 101.5s-62.167 99.5 -81.5 164.5s-29 139.167 -29 222.5c0 78.667 9.16699 151.834 27.5 219.501s45.833 126.167 82.5 175.5s82.5 88.166 137.5 116.499
s119.167 42.5 192.5 42.5c36 0 72.167 -3.16699 108.5 -9.5s71.5 -15 105.5 -26s66.5 -24 97.5 -39s59.833 -31.5 86.5 -49.5v-574c0 -43.333 3.33301 -79 10 -107s16 -50.167 28 -66.5s26.5 -27.833 43.5 -34.5s36.167 -10 57.5 -10c28.667 0 54.667 9.33301 78 28
s43 46 59 82s28.333 80 37 132s13 111.333 13 178c0 118 -16 224 -48 318s-79.333 173.833 -142 239.5s-140.667 116 -234 151s-201.333 52.5 -324 52.5c-80 0 -153 -10.167 -219 -30.5s-125.167 -48.5 -177.5 -84.5s-97.833 -78.833 -136.5 -128.5
s-70.834 -103.667 -96.501 -162s-44.834 -120 -57.501 -185s-19 -131.167 -19 -198.5c0 -117.333 16.333 -225 49 -323s80.334 -182.333 143.001 -253s139.5 -125.667 230.5 -165s194.5 -59 310.5 -59c30 0 59.833 2 89.5 6s59 9.66699 88 17s57.333 16.166 85 26.499
s53.834 21.833 78.501 34.5zM1003 177.999c28 0 54.168 4.16699 78.501 12.5s46.833 20 67.5 35s39.667 32.667 57 53s33 42.5 47 66.5v527c-32 23.333 -68.167 41.833 -108.5 55.5s-87.833 20.5 -142.5 20.5c-42 0 -78.5 -8.66699 -109.5 -26s-56.667 -42 -77 -74
s-35.666 -70.833 -45.999 -116.5s-15.5 -97.167 -15.5 -154.5c0 -67.333 6.16699 -126 18.5 -176s29.666 -91.5 51.999 -124.5s48.666 -57.667 78.999 -74s63.5 -24.5 99.5 -24.5z" />
    <glyph glyph-name="A" unicode="A" horiz-adv-x="1349" 
d="M978 391h-617l-130 -391h-189l528 1493h209l526 -1493h-196zM416 543h505l-254 751z" />
    <glyph glyph-name="B" unicode="B" horiz-adv-x="1278" 
d="M615 152c52.667 0 101.167 4.33398 145.5 13.001s82.666 23.5 114.999 44.5s57.666 48.833 75.999 83.5s27.5 78.334 27.5 131.001c0 50 -10.667 93.167 -32 129.5s-49.666 66.166 -84.999 89.499s-76.166 40.666 -122.499 51.999s-94.5 17 -144.5 17h-250v-560h270z
M615 864.001c39.333 0 77.334 4.83105 114.001 14.498s69.167 24.334 97.5 44.001s51 44.334 68 74.001s25.5 64.167 25.5 103.5c0 44.667 -8.5 82.5 -25.5 113.5s-40.167 55.833 -69.5 74.5s-63.833 32.167 -103.5 40.5s-81.834 12.5 -126.501 12.5h-250v-477h270z
M893.001 809.999c36 -10 70.499 -25.166 103.499 -45.499s62 -45.5 87 -75.5s45 -64.667 60 -104s22.5 -83 22.5 -131c0 -80 -14.667 -148.667 -44 -206s-69.833 -104.333 -121.5 -141s-112.167 -63.667 -181.5 -81s-144 -26 -224 -26h-425v1493h445
c66.667 0 129.834 -6.33301 189.501 -19s112 -33.334 157 -62.001s80.5 -66.167 106.5 -112.5s39 -102.833 39 -169.5c0 -40 -4.83301 -77.167 -14.5 -111.5s-23.5 -65.166 -41.5 -92.499s-40.333 -50.833 -67 -70.5s-57 -34.834 -91 -45.501z" />
    <glyph glyph-name="C" unicode="C" horiz-adv-x="1350" 
d="M1270 197c-28.667 -30 -60.165 -58.501 -94.498 -85.501s-72.5 -50.833 -114.5 -71.5s-87.833 -37.167 -137.5 -49.5s-103.834 -18.5 -162.501 -18.5c-106.667 0 -200 19.5 -280 58.5s-146.667 92.5 -200 160.5s-93.333 148.167 -120 240.5s-40 191.833 -40 298.5
c0 70 6.66699 138.167 20 204.5s32.666 128.666 57.999 186.999s57 112 95 161s81.333 91 130 126s103 62.333 163 82s125 29.5 195 29.5c46.667 0 92.167 -4.83301 136.5 -14.5s86.833 -23.667 127.5 -42s79.5 -40.666 116.5 -66.999s71.833 -55.833 104.5 -88.5l-104 -129
c-32 28.667 -63.833 53.667 -95.5 75s-64 39.166 -97 53.499s-66.833 25 -101.5 32s-70.667 10.5 -108 10.5c-49.333 0 -94.833 -7.66699 -136.5 -23s-79.167 -36.666 -112.5 -63.999s-62.833 -59.5 -88.5 -96.5s-47 -77.333 -64 -121s-29.833 -89.667 -38.5 -138
s-13 -97.166 -13 -146.499c0 -68 5.83301 -130.667 17.5 -188s28 -108.833 49 -154.5s46 -85.834 75 -120.501s61 -63.667 96 -87s72.5 -40.833 112.5 -52.5s81.333 -17.5 124 -17.5c36.667 0 72.667 4.33301 108 13s69.833 20.834 103.5 36.501s66 34.167 97 55.5
s60.167 45 87.5 71z" />
    <glyph glyph-name="D" unicode="D" horiz-adv-x="1445" 
d="M345 1341v-1189h240c96.667 0 180 13.333 250 40s127.667 64.834 173 114.501s78.833 110.167 100.5 181.5s32.5 152 32.5 242c0 84 -9.5 163.167 -28.5 237.5s-50.667 139.166 -95 194.499s-103.333 99 -177 131s-165.5 48 -275.5 48h-220zM170 1493l415 -0.00195312
c136 0 251.167 -18.333 345.5 -55s171 -87.667 230 -153s101.667 -142.666 128 -231.999s39.5 -187 39.5 -293c0 -130 -18.167 -242.667 -54.5 -338s-87.833 -174.166 -154.5 -236.499s-147 -108.833 -241 -139.5s-198.333 -46 -313 -46h-395v1493z" />
    <glyph glyph-name="E" unicode="E" horiz-adv-x="1164" 
d="M170 1493h867v-152h-692v-498h664v-152h-664v-539h710v-152h-885v1493z" />
    <glyph glyph-name="F" unicode="F" horiz-adv-x="1061" 
d="M170 1493h826v-152h-651v-527h623v-152h-623v-662h-175v1493z" />
    <glyph glyph-name="G" unicode="G" horiz-adv-x="1485" 
d="M1346 194c-34 -37.333 -70.832 -69.835 -110.499 -97.502s-81.667 -50.834 -126 -69.501s-90.666 -32.667 -138.999 -42s-97.833 -14 -148.5 -14c-106 0 -202.5 17.833 -289.5 53.5s-161.167 86.334 -222.5 152.001s-108.833 145.334 -142.5 239.001
s-50.5 198.5 -50.5 314.5c0 120 18.5 228.667 55.5 326s87.167 180.333 150.5 249s137.666 121.667 222.999 159s176.333 56 273 56c48 0 95.667 -4.5 143 -13.5s93.333 -22.5 138 -40.5s87.167 -40.667 127.5 -68s78.166 -59 113.499 -95l-98 -125
c-32.667 32 -67.167 58.833 -103.5 80.5s-73.5 39.334 -111.5 53.001s-76.333 23.5 -115 29.5s-76.667 9 -114 9c-83.333 0 -155.833 -16.5 -217.5 -49.5s-113.167 -76.833 -154.5 -131.5s-72.166 -117.5 -92.499 -188.5s-30.5 -144.167 -30.5 -219.5
c0 -104.667 13.5 -195.834 40.5 -273.501s64.5 -142.167 112.5 -193.5s104.833 -89.666 170.5 -114.999s137.167 -38 214.5 -38c32 0 63.167 2.5 93.5 7.5s59.166 12.5 86.499 22.5s53.5 22.667 78.5 38s48.5 33.333 70.5 54v365h-318v152h493v-586z" />
    <glyph glyph-name="H" unicode="H" horiz-adv-x="1418" 
d="M170 1493h175v-657h728v657h175v-1493h-175v684h-728v-684h-175v1493z" />
    <glyph glyph-name="I" unicode="I" horiz-adv-x="515" 
d="M170 1493h175v-1493h-175v1493z" />
    <glyph glyph-name="J" unicode="J" horiz-adv-x="607" 
d="M-5 -240c44 2 82.5 8.49902 115.5 19.499s60.833 26.833 83.5 47.5s39.667 46.167 51 76.5s17 65.833 17 106.5v1483h175v-1453c0 -151.333 -39.833 -264.166 -119.5 -338.499s-194.167 -111.5 -343.5 -111.5h-2v169z" />
    <glyph glyph-name="K" unicode="K" horiz-adv-x="1234" 
d="M170 1493h175v-638l608 638h216l-658 -689l718 -804h-230l-654 719v-719h-175v1493z" />
    <glyph glyph-name="L" unicode="L" horiz-adv-x="1076" 
d="M170 1493h175v-1341h677v-152h-852v1493z" />
    <glyph glyph-name="M" unicode="M" horiz-adv-x="1736" 
d="M155 0c0 12 0.332031 32.0029 0.999023 60.0029l2.5 101.5c1 39.667 2.33301 84.334 4 134.001l5.5 157.5l6 171.5l6 177.5l25 691h236l278 -794l50 -143c15.333 -44.667 29.166 -86.834 41.499 -126.501s23.333 -77 33 -112s17.834 -68.167 24.501 -99.5h12
c8 38 17.333 77 28 117s22.5 80.5 35.5 121.5s26.833 82.5 41.5 124.5l45 126l279 786h222l25 -690l6 -177.5l6 -171.5c2 -55.333 3.66699 -107.833 5 -157.5s2.66602 -94.334 3.99902 -134.001s2.33301 -73.5 3 -101.5s1 -48.333 1 -61h-176
c0 11.333 -0.333008 33.166 -1 65.499s-1.83398 71.5 -3.50098 117.5s-3.33398 97.333 -5.00098 154s-3.5 115.167 -5.5 175.5l-6 182c-2 61 -4 118.833 -6 173.5c-1.33301 46 -2.66602 88.667 -3.99902 128s-2.66602 73.666 -3.99902 102.999
c-1.33301 34 -2.33301 65 -3 93l-12 2l-107 -318l-294 -876h-180l-293 857l-114 335l-9 -1c-0.666992 -32.667 -1.66699 -68.667 -3 -108c-1.33301 -34 -2.66602 -73.333 -3.99902 -118s-2.66602 -93 -3.99902 -145c-2 -54 -3.83301 -110.167 -5.5 -168.5l-5 -173l-5 -165
c-1.66699 -53 -3 -100.833 -4 -143.5l-2.5 -108.5c-0.666992 -29.667 -1 -50.167 -1 -61.5h-169z" />
    <glyph glyph-name="N" unicode="N" horiz-adv-x="1424" 
d="M170 1493l191.999 -0.00292969l525 -856l64.5 -107l56 -96.5l46 -85c13.667 -26.333 25.167 -50.5 34.5 -72.5l6 2c-1.33301 20.667 -2.5 44.834 -3.5 72.501s-2 60.834 -3 99.501s-1.66699 83.834 -2 135.501s-0.5 111.5 -0.5 179.5v728h169v-1493h-193l-528 855
l-64.5 106l-56 97c-17 30.667 -32.167 59.167 -45.5 85.5s-24.666 50.5 -33.999 72.5l-6 -2c1.33301 -20.667 2.5 -44.334 3.5 -71.001s2 -55.667 3 -87s1.66699 -65.166 2 -101.499s0.5 -74.5 0.5 -114.5v-840h-166v1493z" />
    <glyph glyph-name="O" unicode="O" horiz-adv-x="1532" 
d="M757 1350c-61.333 0 -119.334 -13.499 -174.001 -40.499s-102.667 -65.833 -144 -116.5s-74.166 -112.5 -98.499 -185.5s-36.5 -155.167 -36.5 -246.5c0 -102 12.667 -191.667 38 -269s59.666 -142 102.999 -194s93.5 -91 150.5 -117s117.5 -39 181.5 -39
c66.667 0 127.667 14 183 42s103 67.667 143 119s71 113.166 93 185.499s33 152.833 33 241.5c0 102 -12.667 191.667 -38 269s-59.666 142 -102.999 194s-93.5 91.167 -150.5 117.5s-117.167 39.5 -180.5 39.5zM776.999 1520c90.667 0 175 -17 253 -51
s145.5 -83.333 202.5 -148s101.667 -144.167 134 -238.5s48.5 -201.833 48.5 -322.5c0 -118.667 -16.167 -226.5 -48.5 -323.5s-77.5 -179.833 -135.5 -248.5s-127.333 -121.834 -208 -159.501s-169.334 -56.5 -266.001 -56.5c-91.333 0 -176 16.833 -254 50.5
s-145.667 82.834 -203 147.501s-102.166 144 -134.499 238s-48.5 201.333 -48.5 322c0 118.667 16.667 226.667 50 324s79.5 180.5 138.5 249.5s128.667 122.333 209 160s167.833 56.5 262.5 56.5z" />
    <glyph glyph-name="P" unicode="P" horiz-adv-x="1171" 
d="M170 1493l400 0.00195312c98 0 180.333 -10.667 247 -32s120.167 -51 160.5 -89s69.333 -83 87 -135s26.5 -108.333 26.5 -169c0 -77.333 -13.667 -145.833 -41 -205.5s-65.333 -109.834 -114 -150.501s-106 -71.334 -172 -92.001s-138 -31 -216 -31h-203v-589h-175v1493
zM345 1341v-600.002h223c52.667 0 99.834 6.5 141.501 19.5s77 32 106 57s51 55.833 66 92.5s22.5 78.667 22.5 126c0 45.333 -5.5 86.833 -16.5 124.5s-30 69.834 -57 96.501s-63.333 47.334 -109 62.001s-102.834 22 -171.501 22h-205z" />
    <glyph glyph-name="Q" unicode="Q" horiz-adv-x="1532" 
d="M846 -24l-20 -1.99902c-6.66699 -0.666992 -13.5 -1.16699 -20.5 -1.5s-14.5 -0.666016 -22.5 -0.999023s-17 -0.5 -27 -0.5c-90.667 0 -174.834 17 -252.501 51s-145.167 83.333 -202.5 148s-102.333 144 -135 238s-49 201.333 -49 322
c0 126.667 16.667 239.167 50 337.5s79.5 181 138.5 248s128.667 117.833 209 152.5s167.833 52 262.5 52c91.333 0 175.833 -17 253.5 -51s145 -83.333 202 -148s101.667 -144.167 134 -238.5s48.5 -201.833 48.5 -322.5c0 -84.667 -7.33301 -160.334 -22 -227.001
s-33.5 -125.834 -56.5 -177.501s-48.833 -96.167 -77.5 -133.5s-57.167 -69 -85.5 -95s-55.166 -46.667 -80.499 -62s-46 -27 -62 -35l249 -215l-149 -117zM756 1362c-61.333 0 -118.997 -14.167 -172.997 -42.5s-101.333 -68.666 -142 -120.999
s-72.834 -115.5 -96.501 -189.5s-35.5 -156.667 -35.5 -248c0 -45.333 3.5 -92.5 10.5 -141.5s18 -96.833 33 -143.5s34.667 -91 59 -133s53.833 -78.833 88.5 -110.5s74.834 -56.834 120.501 -75.501s97.834 -28 156.501 -28c61.333 0 119.166 14.167 173.499 42.5
s101.666 68.666 141.999 120.999s72.166 115.5 95.499 189.5s35 156.667 35 248c0 102 -12.333 192.333 -37 271s-58.334 144.834 -101.001 198.501s-92.167 94.167 -148.5 121.5s-116.5 41 -180.5 41z" />
    <glyph glyph-name="R" unicode="R" horiz-adv-x="1257" 
d="M564 790c50 0 95 6.66797 135 20.001s73.667 32.166 101 56.499s48.333 53.5 63 87.5s22 71.667 22 113c0 42 -8 79.833 -24 113.5s-38.833 62.5 -68.5 86.5s-65.667 42.333 -108 55s-89.833 19 -142.5 19h-197v-551h219zM1012 0.000976562l-139.001 294.998
c-22 46 -45.833 89.667 -71.5 131s-54.667 77.833 -87 109.5s-68.5 56.667 -108.5 75s-85 27.5 -135 27.5h-126v-638h-175v1493h393c86 0 161 -9.83301 225 -29.5s117 -47.167 159 -82.5s73.333 -77.166 94 -125.499s31 -101.166 31 -158.499
c0 -49.333 -7.16699 -95.833 -21.5 -139.5s-34.833 -83.167 -61.5 -118.5s-58.5 -65.666 -95.5 -90.999s-78.167 -44 -123.5 -56l-1 -5c32.667 -8.66699 62.667 -24.334 90 -47.001s52.5 -49.5 75.5 -80.5s44.333 -65 64 -102s37.834 -73.833 54.501 -110.5l156 -347h-197z
" />
    <glyph glyph-name="S" unicode="S" horiz-adv-x="1158" 
d="M924 1238c-21.333 14 -43.999 27.6689 -67.999 41.002s-49.5 25.333 -76.5 36s-55.833 19.167 -86.5 25.5s-63 9.5 -97 9.5c-30.667 0 -60.334 -3.5 -89.001 -10.5s-54.167 -17.667 -76.5 -32s-40.166 -32.5 -53.499 -54.5s-20 -48.333 -20 -79
c0 -41.333 9.83301 -78.166 29.5 -110.499s45.5 -62.166 77.5 -89.499s68.5 -53.166 109.5 -77.499l125.5 -74c42.667 -25 84.5 -51.333 125.5 -79s77.5 -58.5 109.5 -92.5s57.833 -72.167 77.5 -114.5s29.5 -90.833 29.5 -145.5c0 -65.333 -13.667 -123.833 -41 -175.5
s-64 -95.5 -110 -131.5s-99 -63.667 -159 -83s-122.333 -29 -187 -29c-37.333 0 -75.833 3.66699 -115.5 11s-78.834 18 -117.501 32s-75.667 31.333 -111 52s-67.333 44.667 -96 72l93 149c23.333 -20.667 49.166 -40 77.499 -58s58.166 -33.5 89.499 -46.5
s64 -23.167 98 -30.5s68.333 -11 103 -11c36 0 71.333 4.66699 106 14s65.5 23.166 92.5 41.499s48.833 41.166 65.5 68.499s25 59 25 95c0 41.333 -9.83301 78.166 -29.5 110.499s-45.5 62.166 -77.5 89.499s-68.5 53.166 -109.5 77.499l-125.5 74
c-42.667 25 -84.5 51.167 -125.5 78.5s-77.5 58 -109.5 92s-57.833 72.167 -77.5 114.5s-29.5 90.833 -29.5 145.5c0 60 12 113.333 36 160s56.5 86.167 97.5 118.5s88.5 56.833 142.5 73.5s111 25 171 25c72.667 0 142.334 -11 209.001 -33s127.334 -54.333 182.001 -97z
" />
    <glyph glyph-name="T" unicode="T" horiz-adv-x="1142" 
d="M30 1493h1082v-152h-454v-1341h-175v1341h-453v152z" />
    <glyph glyph-name="U" unicode="U" horiz-adv-x="1407" 
d="M166 1493l174.998 0.00195312v-862c0 -70 5.83301 -134.833 17.5 -194.5s32 -111.334 61 -155.001s68 -77.834 117 -102.501s110.833 -37 185.5 -37c69.333 0 126.666 11.667 171.999 35s81.333 55.666 108 96.999s45.334 89.833 56.001 145.5s16 116.167 16 181.5v892
h167v-862c0 -99.333 -8.66699 -189.5 -26 -270.5s-46.666 -150.167 -87.999 -207.5s-96.5 -101.833 -165.5 -133.5s-155.5 -47.5 -259.5 -47.5c-101.333 0 -186.166 14.667 -254.499 44s-123.333 71.333 -165 126s-71.5 120.834 -89.5 198.501s-27 164.5 -27 260.5v892z" />
    <glyph glyph-name="V" unicode="V" horiz-adv-x="1340" 
d="M44 1493h191l220 -629l80.5 -230.5l70.5 -201l49 -142.5l19 -54h3l18 54l50 142.5l71 201l81 230.5l220 629h181l-528 -1493h-198z" />
    <glyph glyph-name="W" unicode="W" horiz-adv-x="1903" 
d="M88 1493l179 0.000976562l214 -922l21.5 -99.5l22 -107.5c7 -34.667 12.833 -65.667 17.5 -93s7.66699 -46.333 9 -57h4c1.33301 10 4.83301 29.5 10.5 58.5l19 97.5l22 109c7.66699 36.667 14.5 68 20.5 94l213 920h234l213 -919l13.5 -60.5l15 -71l14.5 -73.5l13 -68
c4 -20.667 7.33301 -38.834 10 -54.501s4.66699 -26.5 6 -32.5h2c0.666992 6.66699 2.5 18.167 5.5 34.5l10.5 57.5c4 22 8.66699 45.833 14 71.5l15.5 76l14.5 70.5l13 55l213 914h168l-334 -1493h-252l-139 613l-34 151.5l-32.5 143.5l-28.5 126l-23 101
c-6.66699 28.667 -11.667 51 -15 67l-5 24h-2l-5 -24l-14.5 -67l-22.5 -101l-28.5 -126l-32.5 -143.5l-34 -151.5l-139 -613h-251z" />
    <glyph glyph-name="X" unicode="X" horiz-adv-x="1320" 
d="M765 787l505 -787h-205l-413 634l-410 -634h-192l508 795l-447 698h204l356 -546l354 546h192z" />
    <glyph glyph-name="Y" unicode="Y" horiz-adv-x="1270" 
d="M544 0v641l-500 852h207l396 -684l384 684h197l-501 -852v-641h-183z" />
    <glyph glyph-name="Z" unicode="Z" horiz-adv-x="1142" 
d="M126 1493h889v-152l-714 -1189h736v-152h-932v152l712 1189h-691v152z" />
    <glyph glyph-name="bracketleft" unicode="[" horiz-adv-x="715" 
d="M153 1556h392v-143h-225v-1540h225v-143h-392v1826z" />
    <glyph glyph-name="backslash" unicode="\" horiz-adv-x="715" 
d="M524 -190l-491 1683h158l491 -1683h-158z" />
    <glyph glyph-name="bracketright" unicode="]" horiz-adv-x="715" 
d="M563 -270h-392v143h224v1540h-224v143h392v-1826z" />
    <glyph glyph-name="asciicircum" unicode="^" horiz-adv-x="1572" 
d="M878 1493l514 -557h-188l-418 395l-417 -395h-188l514 557h183z" />
    <glyph glyph-name="underscore" unicode="_" horiz-adv-x="1136" 
d="M1072 -28v-143h-1008v143h1008z" />
    <glyph glyph-name="grave" unicode="`" horiz-adv-x="856" 
d="M512 1288l-294 317l147 93l257 -340z" />
    <glyph glyph-name="a" unicode="a" horiz-adv-x="1109" 
d="M679 550c-63.333 0 -119.833 -3.99902 -169.5 -11.999s-91.667 -21.167 -126 -39.5s-60.666 -42.166 -78.999 -71.499s-27.5 -65.333 -27.5 -108c0 -30 4.66699 -56.833 14 -80.5s22.166 -43.834 38.499 -60.501s36 -29.334 59 -38.001s48.167 -13 75.5 -13
c36 0 73.167 8.33301 111.5 25s73 39 104 67s56.5 60 76.5 96s30 73.333 30 112v123h-107zM952 0.000976562h-153.003l-13 142l-3 1c-18 -24.667 -39.833 -47.334 -65.5 -68.001s-53.667 -38.667 -84 -54s-62.166 -27.333 -95.499 -36s-66.666 -13 -99.999 -13
c-49.333 0 -94.666 7.66699 -135.999 23s-76.833 37 -106.5 65s-52.834 61.333 -69.501 100s-25 81.667 -25 129c0 76.667 15 140.834 45 192.501s71.5 93.334 124.5 125.001s115.833 54.334 188.5 68.001s151.334 20.5 236.001 20.5h91c0 48.667 -5.5 91.5 -16.5 128.5
s-28.167 68 -51.5 93s-53.166 44 -89.499 57s-79.5 19.5 -129.5 19.5c-20 0 -42.5 -1.5 -67.5 -4.5s-51.167 -7.5 -78.5 -13.5s-55 -13.333 -83 -22s-54.333 -18.334 -79 -29.001l-32 139c65.333 29.333 128.166 50.833 188.499 64.5s117.5 20.5 171.5 20.5
c62.667 0 120.5 -7.66699 173.5 -23s98.833 -41.5 137.5 -78.5s68.667 -86.333 90 -148s32 -138.834 32 -231.501v-667z" />
    <glyph glyph-name="b" unicode="b" horiz-adv-x="1177" 
d="M582 127c52.667 0 98.3311 10.832 136.998 32.499s70.667 51.334 96 89.001s44.333 82.167 57 133.5s19 106.666 19 165.999c0 77.333 -6.66699 144 -20 200s-32.166 102.167 -56.499 138.5s-54.166 63.166 -89.499 80.499s-75 26 -119 26
c-32 0 -62.667 -6.66699 -92 -20s-56 -30.833 -80 -52.5s-45 -46 -63 -73s-31.667 -53.833 -41 -80.5v-555c16 -13.333 34 -25.166 54 -35.499s41.167 -19.166 63.5 -26.499s45 -13 68 -17s45.167 -6 66.5 -6zM329.997 999.999c14.667 22.667 33.667 43.001 57 61.001
s48.833 33.5 76.5 46.5s56.167 23 85.5 30s57 10.5 83 10.5c74.667 0 139.334 -13 194.001 -39s99.667 -63.5 135 -112.5s61.666 -108.833 78.999 -179.5s26 -150.334 26 -239.001c0 -86.667 -10.5 -167 -31.5 -241s-52.5 -138 -94.5 -192s-94.667 -96.333 -158 -127
s-137.666 -46 -222.999 -46c-32.667 0 -66.334 2.83301 -101.001 8.5s-69 14.334 -103 26.001s-67.167 26.167 -99.5 43.5s-62.5 37.666 -90.5 60.999v1445h165v-556z" />
    <glyph glyph-name="c" unicode="c" horiz-adv-x="1015" 
d="M890 928c-37.333 20 -80.502 35.8301 -129.502 47.4971s-97.5 17.5 -145.5 17.5c-42 0 -82.5 -8.16699 -121.5 -24.5s-73.667 -41.666 -104 -75.999s-54.666 -77.833 -72.999 -130.5s-27.5 -115 -27.5 -187c0 -65.333 7.5 -125.5 22.5 -180.5s37 -102.333 66 -142
s65 -70.5 108 -92.5s92.833 -33 149.5 -33c22 0 45 1.66699 69 5s48 8 72 14s47.167 13.167 69.5 21.5s42.5 17.5 60.5 27.5l51 -131c-20.667 -13.333 -44.5 -25.666 -71.5 -36.999s-55.667 -21 -86 -29s-61.333 -14.333 -93 -19s-62.167 -7 -91.5 -7
c-59.333 0 -113.166 7.16699 -161.499 21.5s-91 34.5 -128 60.5s-69 56.667 -96 92s-49.167 74.333 -66.5 117s-30.166 87.834 -38.499 135.501s-12.5 96.5 -12.5 146.5c0 100 13.333 187.5 40 262.5s63.5 137.833 110.5 188.5s102.333 88.667 166 114s132.5 38 206.5 38
c27.333 0 54.666 -1.83301 81.999 -5.5s54 -9 80 -16s51 -15.833 75 -26.5s46.667 -23 68 -37z" />
    <glyph glyph-name="d" unicode="d" horiz-adv-x="1177" 
d="M846 1556l165.999 0.00195312v-1556h-153l-7 121l-2 1c-16 -22 -34.667 -42.333 -56 -61s-44.666 -34.5 -69.999 -47.5s-52.333 -23.167 -81 -30.5s-58 -11 -88 -11c-75.333 0 -140.833 14.333 -196.5 43s-101.834 68.5 -138.501 119.5s-64 111.5 -82 181.5
s-27 146.333 -27 229c0 83.333 9.83301 161.666 29.5 234.999s48.834 137.166 87.501 191.499s87 97.333 145 129s125.333 47.5 202 47.5c57.333 0 110 -9 158 -27s85.667 -42.667 113 -74v509zM575.999 127.002c30 0 58.002 4.66504 84.002 13.998s50.167 22.333 72.5 39
s43 36 62 58s36.167 45.667 51.5 71v537c-30.667 44.667 -71.5 80.334 -122.5 107.001s-107.5 40 -169.5 40c-46 0 -85.667 -11.667 -119 -35s-60.833 -54.5 -82.5 -93.5s-37.834 -83.667 -48.501 -134s-16 -102.166 -16 -155.499c0 -59.333 5 -116 15 -170
s26.5 -101.5 49.5 -142.5s52.667 -73.833 89 -98.5s81.166 -37 134.499 -37z" />
    <glyph glyph-name="e" unicode="e" horiz-adv-x="1121" 
d="M993 68c-56 -31.333 -120.499 -55.165 -193.499 -71.498s-150.833 -24.5 -233.5 -24.5c-70 0 -133.167 13.833 -189.5 41.5s-104.166 66.5 -143.499 116.5s-69.5 110.167 -90.5 180.5s-31.5 148.5 -31.5 234.5c0 96.667 12 182.334 36 257.001s57.167 137.667 99.5 189
s92.666 90.333 150.999 117s121.5 40 189.5 40c76.667 0 142.167 -14.167 196.5 -42.5s99 -67.333 134 -117s60.667 -108.334 77 -176.001s24.5 -140.834 24.5 -219.501v-77h-731c3.33301 -60 11.5 -114.167 24.5 -162.5s31.5 -89.333 55.5 -123s54.167 -59.5 90.5 -77.5
s79.166 -27 128.499 -27c30 0 60.833 1.5 92.5 4.5s63.167 7.83301 94.5 14.5s62 14.667 92 24s58.333 20.666 85 33.999zM844.001 660.001c-4 54 -11.667 101.667 -23 143s-27.833 76 -49.5 104s-49.167 49.167 -82.5 63.5s-74 21.5 -122 21.5c-42 0 -79 -8 -111 -24
s-59.167 -38.5 -81.5 -67.5s-40.333 -64 -54 -105s-23.167 -86.167 -28.5 -135.5h552z" />
    <glyph glyph-name="f" unicode="f" horiz-adv-x="716" 
d="M599 1571c21.333 0 44 -2 68 -6s48 -10.333 72 -19l-26 -129c-19.333 3.33301 -40.5 6.16602 -63.5 8.49902s-48.167 3.5 -75.5 3.5c-28.667 0 -53.667 -3.66699 -75 -11s-39 -18.666 -53 -33.999s-24.5 -35.5 -31.5 -60.5s-10.5 -54.833 -10.5 -89.5v-114h288v-145h-288
v-975h-166v975h-199v145h199v84c0 66 7.33301 122.167 22 168.5s37 84.333 67 114s67.5 51.167 112.5 64.5s98.167 20 159.5 20z" />
    <glyph glyph-name="g" unicode="g" horiz-adv-x="1176" 
d="M845 110c-18 -21.333 -38.8301 -40.5059 -62.4971 -57.5059s-49 -31.5 -76 -43.5s-55.167 -21.167 -84.5 -27.5s-59.333 -9.5 -90 -9.5c-76.667 0 -141.667 15 -195 45s-96.833 71.333 -130.5 124s-58 114.834 -73 186.501s-22.5 148.834 -22.5 231.501
c0 80 9 155.667 27 227s45.667 133.833 83 187.5s84.166 96.167 140.499 127.5s123.166 47 200.499 47c28 0 56 -2.33301 84 -7s55.167 -12.167 81.5 -22.5s51.166 -23.666 74.499 -39.999s44 -35.833 62 -58.5l16 100h131v-1047c0 -89.333 -11.667 -167.166 -35 -233.499
s-56.166 -121.166 -98.499 -164.499s-93.5 -75.666 -153.5 -96.999s-126.333 -32 -199 -32c-23.333 0 -48.666 1.66699 -75.999 5s-55 8.5 -83 15.5s-55.5 15.833 -82.5 26.5s-51.833 23 -74.5 37l53 143c18.667 -9.33301 40.167 -18.333 64.5 -27
s49.166 -16.334 74.499 -23.001s50.5 -12 75.5 -16s47.5 -6 67.5 -6c45.333 0 86.5 7 123.5 21s68.667 35.333 95 64s46.666 64.334 60.999 107.001s21.5 92.667 21.5 150v67zM845.003 833.994c-16.667 26.667 -36.334 50.001 -59.001 70.001s-47.167 36.667 -73.5 50
s-54.166 23.166 -83.499 29.499s-59.333 9.5 -90 9.5c-45.333 0 -83.833 -11.667 -115.5 -35s-57.5 -54 -77.5 -92s-34.667 -81.167 -44 -129.5s-14 -97.5 -14 -147.5c0 -56 4.16699 -111.667 12.5 -167s22.666 -104.833 42.999 -148.5s47.333 -79 81 -106
s75.834 -40.5 126.501 -40.5c30.667 0 60.5 4.5 89.5 13.5s56.167 21.333 81.5 37s48.333 34.167 69 55.5s38.667 44.333 54 69v532z" />
    <glyph glyph-name="h" unicode="h" horiz-adv-x="1183" 
d="M1026 0h-164.997v664c0 44.667 -3.5 87 -10.5 127s-19.333 75 -37 105s-41.834 53.667 -72.501 71s-69.334 26 -116.001 26c-34 0 -66.833 -6.66699 -98.5 -20s-60.5 -30.833 -86.5 -52.5s-48.5 -46 -67.5 -73s-33.167 -53.833 -42.5 -80.5v-767h-165v1556h165v-566
c24.667 28 49 51.833 73 71.5s48.667 36 74 49s51.833 22.5 79.5 28.5s57.5 9 89.5 9c68.667 0 127.167 -11 175.5 -33s87.666 -52.667 117.999 -92s52.333 -86.333 66 -141s20.5 -115 20.5 -181v-701z" />
    <glyph glyph-name="i" unicode="i" horiz-adv-x="496" 
d="M165 1120h166v-1120h-166v1120zM152 1439c0 39.333 7.5 68.167 22.5 86.5s38.833 27.5 71.5 27.5c33.333 0 57.833 -9 73.5 -27s23.5 -47 23.5 -87s-8 -68.833 -24 -86.5s-40.333 -26.5 -73 -26.5s-56.5 8.83301 -71.5 26.5s-22.5 46.5 -22.5 86.5z" />
    <glyph glyph-name="j" unicode="j" horiz-adv-x="494" 
d="M-56 -283c33.333 1.33301 63.5 6.83398 90.5 16.501s50.167 24.167 69.5 43.5s34.333 43.666 45 72.999s16 64.333 16 105v1165h165v-1141c0 -62 -7.83301 -118 -23.5 -168s-39 -92.5 -70 -127.5s-69.5 -62 -115.5 -81s-99 -28.5 -159 -28.5zM152 1439
c0 39.333 7.5 68.167 22.5 86.5s39.167 27.5 72.5 27.5c32.667 0 56.834 -9 72.501 -27s23.5 -47 23.5 -87s-7.83301 -68.833 -23.5 -86.5s-39.834 -26.5 -72.501 -26.5c-33.333 0 -57.5 8.83301 -72.5 26.5s-22.5 46.5 -22.5 86.5z" />
    <glyph glyph-name="k" unicode="k" horiz-adv-x="1044" 
d="M165 1556h165v-919l451 483h215l-489 -524l535 -596h-219l-493 547v-547h-165v1556z" />
    <glyph glyph-name="l" unicode="l" horiz-adv-x="495" 
d="M165 1556h165v-1556h-165v1556z" />
    <glyph glyph-name="m" unicode="m" horiz-adv-x="1795" 
d="M935 963c20.667 30 42.8389 56.501 66.5059 79.501s49.5 42.333 77.5 58s58.5 27.5 91.5 35.5s69.5 12 109.5 12c61.333 0 114.5 -9.5 159.5 -28.5s82.167 -46.333 111.5 -82s51.166 -79.334 65.499 -131.001s21.5 -110.167 21.5 -175.5v-731h-165v701
c0 28 -1.33301 54.5 -4 79.5s-7.16699 48.333 -13.5 70s-14.666 41.334 -24.999 59.001s-23.333 32.667 -39 45s-34.334 21.833 -56.001 28.5s-46.5 10 -74.5 10c-33.333 0 -64.5 -6.66699 -93.5 -20s-55.5 -30.833 -79.5 -52.5s-44.833 -45.834 -62.5 -72.501
s-31.5 -53.334 -41.5 -80.001v-768h-165v701c0 26.667 -1.33301 52.5 -4 77.5s-7.33398 48.333 -14.001 70s-15.334 41.334 -26.001 59.001s-23.834 32.834 -39.501 45.501s-34.167 22.5 -55.5 29.5s-46 10.5 -74 10.5c-30 0 -59.5 -6.66699 -88.5 -20
s-55.833 -30.833 -80.5 -52.5s-46.334 -46 -65.001 -73s-32.667 -53.833 -42 -80.5v-767h-165v1120h130l23 -136c36 52 80.667 92.333 134 121s111.333 43 174 43c39.333 0 75.166 -4.33301 107.499 -13s61.333 -21 87 -37s48 -35.333 67 -58s34.833 -48.334 47.5 -77.001z
" />
    <glyph glyph-name="n" unicode="n" horiz-adv-x="1198" 
d="M875 0l0.00195312 663.998c0 44.667 -3.5 87 -10.5 127s-19.667 74.833 -38 104.5s-43 53.167 -74 70.5s-70.5 26 -118.5 26c-36 0 -70 -6.16699 -102 -18.5s-61.167 -28.666 -87.5 -48.999s-49.333 -44.166 -69 -71.499s-34.834 -56 -45.501 -86v-767h-165v1120h132
l23 -136c14.667 22 33.167 42.833 55.5 62.5s47.666 37 75.999 52s59.5 27 93.5 36s70.333 13.5 109 13.5c70 0 129.667 -11 179 -33s89.333 -53 120 -93s53 -87.833 67 -143.5s21 -117.167 21 -184.5v-694h-166z" />
    <glyph glyph-name="o" unicode="o" horiz-adv-x="1185" 
d="M583 993c-42.667 0 -81.999 -8.16699 -117.999 -24.5s-67.167 -41.666 -93.5 -75.999s-46.833 -77.833 -61.5 -130.5s-22 -115 -22 -187c0 -80 7.16699 -148.333 21.5 -205s35.166 -103 62.499 -139s60.333 -62.333 99 -79s82.667 -25 132 -25
c42.667 0 82 8.16699 118 24.5s67 41.666 93 75.999s46.333 77.833 61 130.5s22 115 22 187c0 80 -7.16699 148.333 -21.5 205s-35 103 -62 139s-60 62.333 -99 79s-82.833 25 -131.5 25zM603.001 1148c66.667 0 128.833 -11.998 186.5 -35.998s107.5 -60 149.5 -108
s75 -107.833 99 -179.5s36 -154.834 36 -249.501c0 -100 -11.667 -187.5 -35 -262.5s-56.5 -137.833 -99.5 -188.5s-94.667 -88.667 -155 -114s-127.5 -38 -201.5 -38c-67.333 0 -129.833 12 -187.5 36s-107.5 60 -149.5 108s-75 107.667 -99 179s-36 154.666 -36 249.999
c0 100 11.667 187.5 35 262.5s56.5 137.833 99.5 188.5s94.833 88.667 155.5 114s128 38 202 38z" />
    <glyph glyph-name="p" unicode="p" horiz-adv-x="1177" 
d="M165 -426l-0.000976562 1546h132l24 -136c14 25.333 33.167 48.166 57.5 68.499s51 37.5 80 51.5s58.667 24.833 89 32.5s58.5 11.5 84.5 11.5c74.667 0 139.334 -13 194.001 -39s99.667 -63.5 135 -112.5s61.666 -108.833 78.999 -179.5s26 -150.334 26 -239.001
c0 -86.667 -10.5 -167 -31.5 -241s-52.5 -138 -94.5 -192s-94.667 -96.333 -158 -127s-137.666 -46 -222.999 -46c-37.333 0 -75.333 3.33301 -114 10s-77 16.667 -115 30v-438h-165zM329.999 191.002c40 -22 81.165 -38.166 123.498 -48.499s85.166 -15.5 128.499 -15.5
c52.667 0 98.334 10.833 137.001 32.5s70.667 51.334 96 89.001s44.333 82.167 57 133.5s19 106.666 19 165.999c0 77.333 -6.66699 144 -20 200s-32.166 102.167 -56.499 138.5s-54.166 63.166 -89.499 80.499s-75 26 -119 26c-32 0 -62.667 -6.66699 -92 -20
s-56 -30.833 -80 -52.5s-45 -46 -63 -73s-31.667 -53.833 -41 -80.5v-576z" />
    <glyph glyph-name="q" unicode="q" horiz-adv-x="1175" 
d="M845 110c-18 -21.333 -38.8301 -40.5029 -62.4971 -57.5029s-49 -31.5 -76 -43.5s-55.167 -21.167 -84.5 -27.5s-59.333 -9.5 -90 -9.5c-76.667 0 -141.667 15 -195 45s-96.833 71.333 -130.5 124s-58 114.834 -73 186.501s-22.5 148.834 -22.5 231.501
c0 80 9 155.667 27 227s45.667 133.833 83 187.5s84.166 96.167 140.499 127.5s123.166 47 200.499 47c28 0 56 -2.33301 84 -7s55.167 -12.167 81.5 -22.5s51.166 -23.666 74.499 -39.999s44 -35.833 62 -58.5l16 100h131v-1546h-166v536zM845.003 833.997
c-16.667 26.667 -36.334 50.001 -59.001 70.001s-47.167 36.667 -73.5 50s-54.166 23.166 -83.499 29.499s-59.333 9.5 -90 9.5c-45.333 0 -83.833 -11.667 -115.5 -35s-57.5 -54 -77.5 -92s-34.667 -81.167 -44 -129.5s-14 -97.5 -14 -147.5
c0 -56 4.33301 -111.667 13 -167s23.167 -104.833 43.5 -148.5s47.333 -79 81 -106s75.5 -40.5 125.5 -40.5c30.667 0 60.5 4.5 89.5 13.5s56.167 21.333 81.5 37s48.333 34.167 69 55.5s38.667 44.333 54 69v532z" />
    <glyph glyph-name="r" unicode="r" horiz-adv-x="741" 
d="M702 944c-9.33301 3.33301 -19.4961 5.66797 -30.4961 7.00098s-21.167 2 -30.5 2c-36 0 -69.333 -3 -100 -9s-58.834 -15.667 -84.501 -29s-49 -30.833 -70 -52.5s-39.833 -48.167 -56.5 -79.5v-783h-165v1120h131l26 -148c19.333 28.667 42.166 54 68.499 76
s54.166 40.5 83.499 55.5s59.333 26.167 90 33.5s60.667 11 90 11c4 0 9.16699 -0.166992 15.5 -0.5s12.833 -0.833008 19.5 -1.5l19.5 -2c6.33301 -0.666992 11.166 -1.33398 14.499 -2.00098z" />
    <glyph glyph-name="s" unicode="s" horiz-adv-x="942" 
d="M766 912c-21.333 11.333 -42.9941 21.9932 -64.9941 31.9932s-44.667 18.667 -68 26s-47.333 13 -72 17s-50.334 6 -77.001 6c-24 0 -46.667 -2.5 -68 -7.5s-40.333 -12.667 -57 -23s-29.834 -23.5 -39.501 -39.5s-14.5 -35.333 -14.5 -58c0 -26 7.66699 -49.5 23 -70.5
s35.333 -40.833 60 -59.5s53 -36.667 85 -54l97.5 -53c33 -18 65.5 -37 97.5 -57s60.333 -42.333 85 -67s44.667 -51.834 60 -81.501s23 -63.5 23 -101.5c0 -55.333 -10.5 -104.5 -31.5 -147.5s-49.667 -79.5 -86 -109.5s-79.333 -52.833 -129 -68.5
s-102.834 -23.5 -159.501 -23.5c-31.333 0 -62.833 2.5 -94.5 7.5s-62.667 12.333 -93 22s-59 21.334 -86 35.001s-51.167 29.5 -72.5 47.5l65 141c22 -15.333 45.5 -29.166 70.5 -41.499s50.667 -22.666 77 -30.999s52.666 -14.666 78.999 -18.999s51.5 -6.5 75.5 -6.5
c29.333 0 56.666 3.33301 81.999 10s47.166 16.834 65.499 30.501s32.833 30.834 43.5 51.501s16 44.667 16 72c0 26 -7.66699 49.5 -23 70.5s-35.333 40.833 -60 59.5s-53 36.667 -85 54l-97.5 53c-33 18 -65.5 37 -97.5 57s-60.333 42.333 -85 67
s-44.667 51.834 -60 81.501s-23 63.5 -23 101.5c0 44 8.66699 85 26 123s42.166 71 74.499 99s72 50.167 119 66.5s100.167 24.5 159.5 24.5c28 0 56.5 -2.16699 85.5 -6.5s57.333 -10.666 85 -18.999s54.334 -18.333 80.001 -30s49.167 -24.5 70.5 -38.5z" />
    <glyph glyph-name="t" unicode="t" horiz-adv-x="788" 
d="M727 15c-9.33301 -4.66699 -21.168 -9.5 -35.501 -14.5s-29.833 -9.66699 -46.5 -14s-33.667 -7.83301 -51 -10.5s-33.666 -4 -48.999 -4c-54 0 -100.333 6.5 -139 19.5s-70.667 33.333 -96 61s-44 63 -56 106s-18 94.833 -18 155.5v661h-187v112l187 33l20 318h145v-318
h338v-145h-338v-622c0 -34.667 2.83301 -66 8.5 -94s15 -51.667 28 -71s30 -34.333 51 -45s46.833 -16 77.5 -16c8.66699 0 19 0.5 31 1.5s24.167 2.5 36.5 4.5s24.5 4.33301 36.5 7s22.667 5.66699 32 9z" />
    <glyph glyph-name="u" unicode="u" horiz-adv-x="1200" 
d="M882 0l-6.99805 120.002c-12.667 -20.667 -30.334 -40 -53.001 -58s-48.5 -33.667 -77.5 -47s-60.333 -23.833 -94 -31.5s-67.834 -11.5 -102.501 -11.5c-64 0 -120.333 8 -169 24s-89.5 41 -122.5 75s-57.833 77.5 -74.5 130.5s-25 116.167 -25 189.5v729h163v-699
c0 -48 4.83301 -90.333 14.5 -127s24.334 -67.334 44.001 -92.001s45 -43.334 76 -56.001s68.167 -19 111.5 -19c32.667 0 64.167 4.5 94.5 13.5s58.666 21.333 84.999 37s50 34.167 71 55.5s38.5 44.333 52.5 69v818h166v-1120h-153z" />
    <glyph glyph-name="v" unicode="v" horiz-adv-x="1100" 
d="M72 1120l180 -0.00195312l218 -651l28 -82.5l24.5 -75.5c7.66699 -24 14.334 -46.667 20.001 -68s10.5 -41.666 14.5 -60.999h5c3.33301 18.667 7.66602 37.834 12.999 57.501s11.333 40.5 18 62.5s14.167 45.333 22.5 70l27.5 80l224 668h166l-378 -1120h-205z" />
    <glyph glyph-name="w" unicode="w" horiz-adv-x="1574" 
d="M76 1120h171l137 -557c6.66699 -26 14.167 -57.5 22.5 -94.5s16.166 -74 23.499 -111s13.5 -71.333 18.5 -103s7.5 -54.5 7.5 -68.5h6c0 9.33301 1.16699 22.666 3.5 39.999s5.5 37 9.5 59s8.66699 45 14 69l16 73l16 70.5c5.33301 22.333 10.333 41.833 15 58.5l142 564
h237l137 -557l13.5 -60l15.5 -71l15.5 -75c5 -25.333 9.33301 -49 13 -71s6.66699 -41.833 9 -59.5s3.5 -31.167 3.5 -40.5h6c0 9.33301 1.33301 22.833 4 40.5s6 37.334 10 59.001s8.83301 45 14.5 70l16.5 74c5.33301 24.333 10.666 47.333 15.999 69l14 57.5l138 564h162
l-277 -1120h-209l-167 667c-3.33301 12 -7.83301 30.667 -13.5 56l-17.5 81.5l-17 85c-5.33301 27.667 -8.66602 50.5 -9.99902 68.5h-6c-1.33301 -18.667 -4.83301 -41.834 -10.5 -69.501s-11.667 -55.5 -18 -83.5s-12.666 -54.167 -18.999 -78.5
s-10.833 -42.166 -13.5 -53.499l-169 -673h-205z" />
    <glyph glyph-name="x" unicode="x" horiz-adv-x="1121" 
d="M453 578l-374 542h208l276 -399l276 399h198l-369 -537l398 -583h-207l-304 440l-304 -440h-196z" />
    <glyph glyph-name="y" unicode="y" horiz-adv-x="1100" 
d="M148 -284c12.667 -4.66699 26.9971 -8.50293 42.9971 -11.5029s29.667 -4.5 41 -4.5c28.667 0 57.5 13.667 86.5 41s57.833 65 86.5 113c20 33.333 40 70.333 60 111l-393 1155h180l224 -673l19 -59c6.66699 -20 12.834 -39.667 18.501 -59l16 -56l13.5 -50
c4 -15.333 7 -29 9 -41c0.666992 -5.33301 1.33398 -10 2.00098 -14c8 20 15.667 40.333 23 61c28 74 55.167 150.667 81.5 230l76.5 236l70 226l62 199h166l-75.5 -248l-82 -262.5c-28.333 -88.333 -58.166 -176 -89.499 -263s-63.833 -170 -97.5 -249
s-68.667 -152.167 -105 -219.5s-74 -125.666 -113 -174.999s-79.5 -88 -121.5 -116s-85.667 -42 -131 -42c-10 0 -20.167 0.666992 -30.5 2s-20.5 3.33301 -30.5 6s-19.667 5.83398 -29 9.50098s-18.333 7.83398 -27 12.501z" />
    <glyph glyph-name="z" unicode="z" horiz-adv-x="961" 
d="M118 1120h744v-145l-567 -830h582v-145h-783v145l566 830h-542v145z" />
    <glyph glyph-name="braceleft" unicode="{" horiz-adv-x="1155" 
d="M479 612c42.667 -10.667 77.001 -27.9971 103.001 -51.9971s46 -52 60 -84s23.333 -66.833 28 -104.5s7 -75.834 7 -114.501c0 -39.333 -1.16699 -77.5 -3.5 -114.5s-3.5 -71.5 -3.5 -103.5c0 -43.333 2.16699 -79.666 6.5 -108.999s13.833 -52.833 28.5 -70.5
s36.167 -30.334 64.5 -38.001s66.5 -11.5 114.5 -11.5h64v-144h-57c-17.333 0 -33.833 0.166992 -49.5 0.5s-30.5 1.16602 -44.5 2.49902c-57.333 4 -105 12.833 -143 26.5s-68.333 34.5 -91 62.5s-38.667 64.5 -48 109.5s-14 100.833 -14 167.5c0 36 1.33301 73 4 111
s4 76 4 114c-0.666992 37.333 -4 73 -10 107s-17.833 63.833 -35.5 89.5s-42.334 46.167 -74.001 61.5s-73.167 23 -124.5 23h-58v143h58c52 0 93.833 7.5 125.5 22.5s56.334 35.167 74.001 60.5s29.667 54.833 36 88.5s9.5 69.167 9.5 106.5c0 38 -1.5 76.167 -4.5 114.5
s-4.5 75.5 -4.5 111.5c0 66 4.66699 121.5 14 166.5s25.5 81.5 48.5 109.5s53.333 48.833 91 62.5s85.167 22.5 142.5 26.5c14 1.33301 28.833 2.16602 44.5 2.49902s32.167 0.5 49.5 0.5h57v-143h-64c-48 0 -86.333 -3.83301 -115 -11.5s-50.334 -20.334 -65.001 -38.001
s-24.167 -41.167 -28.5 -70.5s-6.5 -65.666 -6.5 -108.999c0 -32 1.33301 -66.5 4 -103.5s4 -75.167 4 -114.5s-2.33301 -77.833 -7 -115.5s-14 -72.5 -28 -104.5s-34 -59.833 -60 -83.5s-60.333 -40.5 -103 -50.5z" />
    <glyph glyph-name="bar" unicode="|" horiz-adv-x="578" 
d="M368 1565v-2048h-158v2048h158z" />
    <glyph glyph-name="braceright" unicode="}" horiz-adv-x="1155" 
d="M207 -190l66 0.00292969c48 0 86.167 3.83301 114.5 11.5s49.833 20.334 64.5 38.001s24 41.167 28 70.5s6 65.666 6 108.999c0 32 -1.16699 66.5 -3.5 103.5s-3.5 75.167 -3.5 114.5c0 38.667 2.33301 77 7 115s14 73 28 105s33.833 59.833 59.5 83.5
s59.834 40.834 102.501 51.501c-35.333 8 -64.833 21 -88.5 39s-43 39.167 -58 63.5s-26.167 51.333 -33.5 81s-12.333 60.5 -15 92.5c-2 25.333 -3 51.166 -3 77.499s0.666992 52.166 2 77.499l4 73.5c1.33301 23.667 2 46.167 2 67.5
c0 43.333 -2.16699 79.666 -6.5 108.999s-13.833 52.833 -28.5 70.5s-36 30.334 -64 38.001s-66 11.5 -114 11.5h-66v143h58c33.333 0 64.666 -1 93.999 -3c56.667 -4 104 -12.833 142 -26.5s68.333 -34.5 91 -62.5s38.667 -64.5 48 -109.5s14 -100.5 14 -166.5
c0 -36 -1.5 -73 -4.5 -111s-4.5 -76 -4.5 -114c0 -37.333 3 -72.833 9 -106.5s17.833 -63.334 35.5 -89.001s42.334 -46 74.001 -61s73.5 -22.5 125.5 -22.5h59v-143h-59c-52 0 -93.833 -7.66699 -125.5 -23s-56.167 -35.833 -73.5 -61.5s-29 -55.5 -35 -89.5
s-9 -69.667 -9 -107c0 -38 1.33301 -76 4 -114s4 -75 4 -111c0 -58 -3.33301 -107.833 -10 -149.5s-18.167 -76.5 -34.5 -104.5s-37.833 -50.167 -64.5 -66.5s-60 -28.5 -100 -36.5c-24.667 -4.66699 -51.834 -7.83398 -81.501 -9.50098s-62.5 -2.5 -98.5 -2.5h-58v144z" />
    <glyph glyph-name="asciitilde" unicode="~" horiz-adv-x="1573" 
d="M1414 657c-25.333 -23.333 -52.8291 -45.166 -82.4961 -65.499s-60.834 -37.833 -93.501 -52.5s-66.334 -26.167 -101.001 -34.5s-69.334 -12.5 -104.001 -12.5c-31.333 0 -61.5 3.33301 -90.5 10s-57.5 15 -85.5 25s-55.667 20.833 -83 32.5s-54.833 22.5 -82.5 32.5
s-55.667 18.333 -84 25s-57.5 10 -87.5 10c-33.333 0 -63.666 -3.16699 -90.999 -9.5s-53 -15.333 -77 -27s-47 -25.834 -69 -42.501s-44.667 -35.334 -68 -56.001l-55 137c25.333 22.667 52.833 43.834 82.5 63.501s60.667 37 93 52s65.833 26.833 100.5 35.5
s69.667 13 105 13c30.667 0 60.5 -3.33301 89.5 -10s57.667 -15 86 -25s56.333 -21 84 -33s55.5 -23 83.5 -33s56.167 -18.333 84.5 -25s57.166 -10 86.499 -10c32.667 0 62.5 3.66699 89.5 11s52.167 16.833 75.5 28.5s45.166 24.667 65.499 39l60.5 42.5z" />
    <glyph glyph-name="uni00A0" unicode="&#xa0;" horiz-adv-x="480" 
 />
    <glyph glyph-name="exclamdown" unicode="&#xa1;" horiz-adv-x="674" 
d="M397.016 1072.03c1.33301 -23.999 3 -58.1641 5 -102.494l6.5 -144.491c2.33301 -51.9971 4.33301 -105.16 6 -159.49s2.5 -104.16 2.5 -149.491v-515.969h-174.989v515.969c0 45.3311 0.833008 95.1611 2.5 149.491s3.5 107.493 5.5 159.49
c1.99902 51.9971 4.16504 100.161 6.49805 144.492l5.5 102.493h134.991zM441.014 1394c0 -44.6641 -8.83398 -77.3291 -26.5 -97.9941c-17.665 -20.665 -45.1631 -30.998 -82.4941 -30.998c-38.6641 0 -67.4951 10.333 -86.4941 30.998s-28.498 53.3301 -28.498 97.9941
c0 45.9971 9.49902 78.6621 28.498 97.9941s47.8301 28.998 86.4941 28.998c37.998 0 65.6631 -9.66602 82.9951 -28.998c17.333 -19.332 25.999 -51.9971 25.999 -97.9941z" />
    <glyph glyph-name="cent" unicode="&#xa2;" horiz-adv-x="1046" 
d="M945 928c-41.333 20 -89.3359 35.667 -144.003 47c-34 7.33301 -68 12.333 -102 15v-862c12 0.666992 24.667 2 38 4c27.333 3.33301 54.333 8 81 14s52.334 13.167 77.001 21.5s47.334 17.5 68.001 27.5l51 -131c-22.667 -13.333 -48.834 -25.666 -78.501 -36.999
s-61 -21 -94 -29s-66.833 -14.333 -101.5 -19c-14 -2 -27.667 -3.33301 -41 -4v-223h-163v227c-56 7.33301 -106 20.666 -150 39.999c-69.333 32 -126 74.333 -170 127s-76.167 113.5 -96.5 182.5s-30.5 141.167 -30.5 216.5c0 100 14.833 187.5 44.5 262.5
s70.167 137.833 121.5 188.5s111.333 88.667 180 114c32.667 12 66.334 21 101.001 27v223h163v-213c16.667 -1.33301 33.334 -3 50.001 -5c30.667 -3.33301 60.167 -8.5 88.5 -15.5s55.833 -15.833 82.5 -26.5s51.667 -23 75 -37zM502.997 968
c-44 -16 -83.5 -41.166 -118.5 -75.499s-63.167 -77.833 -84.5 -130.5s-32 -115 -32 -187c0 -65.333 8.5 -125.5 25.5 -180.5s42 -102.333 75 -142s73.833 -70.5 122.5 -92.5c14 -6.66699 29 -12.334 45 -17.001v836c-11.333 -3.33301 -22.333 -7 -33 -11z" />
    <glyph glyph-name="sterling" unicode="&#xa3;" horiz-adv-x="1247" 
d="M1018 1283c-35.333 19.333 -74.666 35.3311 -117.999 47.998s-95 19 -155 19c-37.333 0 -69.166 -6.5 -95.499 -19.5s-47.666 -32.833 -63.999 -59.5s-28.166 -60.5 -35.499 -101.5s-11 -89.833 -11 -146.5v-180h444v-152h-444c0 -83.333 -2.66699 -154.833 -8 -214.5
s-13 -110.667 -23 -153s-22 -77.166 -36 -104.499s-30 -49.666 -48 -66.999h666v-152h-947v152c37.333 2.66699 68.666 11.667 93.999 27s46.166 35.5 62.499 60.5s28.833 54.167 37.5 87.5s15 69.5 19 108.5s6.33301 80.167 7 123.5s1 87.333 1 132h-231v152h231v150
c0 80 7.16699 152.5 21.5 217.5s37.5 120.333 69.5 166s73.5 81 124.5 106s113.5 37.5 187.5 37.5c30 0 60.167 -2.16699 90.5 -6.5s59.666 -10.5 87.999 -18.5s55.166 -17.5 80.499 -28.5s48.333 -22.833 69 -35.5z" />
    <glyph glyph-name="currency" unicode="&#xa4;" horiz-adv-x="1247" 
d="M203 82l-104.001 114.999l195 206c-20.667 36.667 -37.667 75 -51 115s-20 81 -20 123s6.33301 82.833 19 122.5s30.667 77.5 54 113.5l-196 206l107 115l196 -207c32 24 66.833 42.667 104.5 56s77.167 20 118.5 20c42 0 81.833 -6.83301 119.5 -20.5
s73.167 -31.5 106.5 -53.5l195 209l107 -115l-196 -206c22.667 -36.667 40 -75.167 52 -115.5s18 -81.833 18 -124.5c0 -42 -6.33301 -82.667 -19 -122s-31 -77 -55 -113l197 -207l-106 -113l-195 207c-33.333 -23.333 -68.5 -42.166 -105.5 -56.499
s-76.5 -21.5 -118.5 -21.5c-40.667 0 -80.167 7 -118.5 21s-74.166 31.667 -107.499 53zM625.999 372.999c38 0 72.834 7.66895 104.501 23.002s58.834 35.666 81.501 60.999s40.167 54.166 52.5 86.499s18.5 65.5 18.5 99.5s-6.16699 67 -18.5 99s-29.833 60.333 -52.5 85
s-49.834 44.5 -81.501 59.5s-66.5 22.5 -104.5 22.5s-72.667 -7.5 -104 -22.5s-58.333 -34.833 -81 -59.5s-40.334 -53 -53.001 -85s-19 -65 -19 -99c0 -34.667 6.16699 -68.167 18.5 -100.5s29.666 -61 51.999 -86s49.333 -45.167 81 -60.5s66.834 -23 105.501 -23z" />
    <glyph glyph-name="yen" unicode="&#xa5;" horiz-adv-x="1245" 
d="M1103 455h-387v-455h-182v455h-391v123h391v51l-82 155h-309v123h247l-298 586h170l362 -700l360 700h171l-299 -586h247v-123h-308l-81 -155v-51h389v-123z" />
    <glyph glyph-name="brokenbar" unicode="&#xa6;" horiz-adv-x="578" 
d="M368 408v-758h-158v758h158zM368 1432v-758h-158v758h158z" />
    <glyph glyph-name="section" unicode="&#xa7;" horiz-adv-x="981" 
d="M789 1298c-20 10 -40.668 19.6738 -62.001 29.0068s-43.166 17.666 -65.499 24.999s-45 13.166 -68 17.499s-46.167 6.5 -69.5 6.5c-26 0 -50.833 -2.83301 -74.5 -8.5s-44.5 -14.667 -62.5 -27s-32.333 -28 -43 -47s-16 -41.833 -16 -68.5c0 -25.333 8 -49 24 -71
s37 -43 63 -63s55.5 -39.833 88.5 -59.5l102 -60.5c35 -20.667 69 -42.834 102 -66.501s62.5 -49.334 88.5 -77.001s47 -58.334 63 -92.001s24 -71.167 24 -112.5c0 -62.667 -15.5 -117.334 -46.5 -164.001s-73.167 -86.334 -126.5 -119.001
c34 -30.667 61.167 -64.334 81.5 -101.001s30.5 -78 30.5 -124c0 -50.667 -9 -95.334 -27 -134.001s-42.833 -71 -74.5 -97s-69 -45.667 -112 -59s-89.833 -20 -140.5 -20s-100.5 5.33301 -149.5 16s-97.167 24.667 -144.5 42v164c20.667 -10 42 -19.667 64 -29
s44.5 -17.666 67.5 -24.999s46.333 -13.166 70 -17.499s47.5 -6.5 71.5 -6.5c28 0 54.5 3 79.5 9s47 15.333 66 28s34 29.167 45 49.5s16.5 44.833 16.5 73.5c0 28 -8 53.667 -24 77s-37 45.333 -63 66s-55.5 40.834 -88.5 60.501l-102 61c-35 21 -69 43 -102 66
s-62.5 48.5 -88.5 76.5s-47 59 -63 93s-24 72 -24 114c0 61.333 15 116 45 164s72 87.667 126 119c-36 29.333 -63.333 62.833 -82 100.5s-28 79.167 -28 124.5c0 47.333 9.33301 89 28 125s43.667 66.167 75 90.5s67.833 42.666 109.5 54.999s85.5 18.5 131.5 18.5
c49.333 0 97.833 -5.16699 145.5 -15.5s94.167 -24.5 139.5 -42.5v-164zM363.999 936.007c-14.667 -11.333 -29.001 -23.668 -43.001 -37.001s-26.5 -27.5 -37.5 -42.5s-19.833 -31.167 -26.5 -48.5s-10 -35.333 -10 -54c0 -26 6.33301 -51 19 -75
s29.334 -46.833 50.001 -68.5s44.334 -42.167 71.001 -61.5s53.667 -37.333 81 -54s54.166 -32.167 80.499 -46.5l69.5 -38.5c14.667 10.667 29 22.667 43 36s26.5 27.666 37.5 42.999s19.833 31.5 26.5 48.5s10 35.167 10 54.5c0 25.333 -6.5 49.833 -19.5 73.5
s-30 46.334 -51 68.001s-44.833 42.334 -71.5 62.001s-53.667 38 -81 55s-54 32.667 -80 47z" />
    <glyph glyph-name="dieresis" unicode="&#xa8;" horiz-adv-x="856" 
d="M133 1489c0 38.667 7.5 67 22.5 85s38.833 27 71.5 27c32 0 55.833 -9 71.5 -27s23.5 -46.333 23.5 -85c0 -39.333 -7.83301 -67.666 -23.5 -84.999s-39.5 -26 -71.5 -26c-32.667 0 -56.5 8.66699 -71.5 26s-22.5 45.666 -22.5 84.999zM535 1489c0 38.667 7.5 67 22.5 85
s38.833 27 71.5 27c32 0 55.667 -9 71 -27s23 -46.333 23 -85c0 -39.333 -7.66699 -67.666 -23 -84.999s-39 -26 -71 -26c-32.667 0 -56.5 8.66699 -71.5 26s-22.5 45.666 -22.5 84.999z" />
    <glyph glyph-name="copyright" unicode="&#xa9;" horiz-adv-x="1852" 
d="M1172 1014c-32 16 -68.665 28.5 -109.998 37.5s-83 13.5 -125 13.5c-36.667 0 -71.334 -6.83301 -104.001 -20.5s-61.334 -33.5 -86.001 -59.5s-44.334 -58 -59.001 -96s-22 -81.333 -22 -130c0 -58 7.16699 -108 21.5 -150s34.333 -76.667 60 -104
s56.334 -47.5 92.001 -60.5s74.834 -19.5 117.501 -19.5c16 0 33.833 1.16699 53.5 3.5s39.667 5.83301 60 10.5s40.5 10.334 60.5 17.001s38.667 14 56 22l49 -122c-18 -10.667 -39 -20.5 -63 -29.5s-49.167 -16.833 -75.5 -23.5s-53.333 -11.834 -81 -15.501
s-54.5 -5.5 -80.5 -5.5c-61.333 0 -118.833 9.83301 -172.5 29.5s-100.5 48.667 -140.5 87s-71.5 85.333 -94.5 141s-34.5 119.5 -34.5 191.5c0 77.333 11.667 145.833 35 205.5s55.5 109.667 96.5 150s89.667 70.833 146 91.5s117.833 31 184.5 31
c18.667 0 39.5 -1.5 62.5 -4.5s46.167 -7.5 69.5 -13.5s46.666 -13.167 69.999 -21.5s45 -17.833 65 -28.5zM921.002 1382c-100.667 0 -188.669 -17.5 -264.002 -52.5s-138.166 -82 -188.499 -141s-88 -127.167 -113 -204.5s-37.5 -158.333 -37.5 -243
c0 -96 15.5 -183.167 46.5 -261.5s73.667 -145.5 128 -201.5s118.5 -99.333 192.5 -130s154 -46 240 -46c89.333 0 171.166 15.333 245.499 46s138.333 73.834 192 129.501s95.334 122.5 125.001 200.5s44.5 164 44.5 258c0 63.333 -6.66699 123.166 -20 179.499
s-32.666 108.5 -57.999 156.5s-56 91.167 -92 129.5s-76.667 70.833 -122 97.5s-94.833 47.167 -148.5 61.5s-110.5 21.5 -170.5 21.5zM925 1510c72 0 140.169 -8.49707 204.502 -25.4971s123.833 -41.5 178.5 -73.5s104 -70.833 148 -116.5s81.333 -97 112 -154
s54.167 -119 70.5 -186s24.5 -138.167 24.5 -213.5c0 -68.667 -7.83301 -135.334 -23.5 -200.001s-38.334 -125.334 -68.001 -182.001s-66 -108.5 -109 -155.5s-92 -87.5 -147 -121.5s-115.667 -60.333 -182 -79s-137.166 -28 -212.499 -28c-110 0 -210 19.167 -300 57.5
s-167.167 91.333 -231.5 159s-114 148 -149 241s-52.5 194.167 -52.5 303.5c0 70 7.66699 137.667 23 203s37.666 126.666 66.999 183.999s65.166 109.833 107.499 157.5s90.833 88.5 145.5 122.5s115 60.333 181 79s137 28 213 28z" />
    <glyph glyph-name="ordfeminine" unicode="&#xaa;" horiz-adv-x="901" 
d="M767 717l-159.002 0.000976562v97c-13.333 -19.333 -29.666 -36.166 -48.999 -50.499s-40.166 -26.5 -62.499 -36.5s-45.666 -17.5 -69.999 -22.5s-47.833 -7.5 -70.5 -7.5c-38.667 0 -73.834 5.5 -105.501 16.5s-58.834 26.5 -81.501 46.5s-40.167 43.833 -52.5 71.5
s-18.5 58.167 -18.5 91.5c0 50.667 10.667 94.167 32 130.5s51.666 66.333 90.999 90s86.833 41 142.5 52s117.834 16.5 186.501 16.5h58c0 29.333 -4 54.666 -12 75.999s-20.167 38.833 -36.5 52.5s-37.333 23.667 -63 30s-56.167 9.5 -91.5 9.5c-16 0 -33.667 -1 -53 -3
s-39 -5 -59 -9s-40 -8.83301 -60 -14.5s-39 -12.167 -57 -19.5l-34 124c48 19.333 96.667 34.666 146 45.999s97 17 143 17c53.333 0 100.833 -6.5 142.5 -19.5s76.834 -33.5 105.501 -61.5s50.5 -64 65.5 -108s22.5 -97.333 22.5 -160v-455zM127.998 591.001h640v-130h-640
v130zM526.998 1077c-83.333 0 -148 -9.66797 -194 -29.001s-69 -51.666 -69 -96.999c0 -33.333 10.667 -60.5 32 -81.5s50 -31.5 86 -31.5c29.333 0 57.5 5.33301 84.5 16s51 25.5 72 44.5s37.833 41 50.5 66s19 52.167 19 81.5v31h-81z" />
    <glyph glyph-name="guillemotleft" unicode="&#xab;" horiz-adv-x="1244" 
d="M1090 1035l101 -90l-295 -346l298 -356l-105 -95l-439 433zM560 1065l99 -91l-330 -373l331 -385l-105 -95l-471 462z" />
    <glyph glyph-name="logicalnot" unicode="&#xac;" horiz-adv-x="1573" 
d="M181 862h1212v-575h-156v405h-1056v170z" />
    <glyph glyph-name="uni00AD" unicode="&#xad;" horiz-adv-x="706" 
d="M102 643h505v-164h-505v164z" />
    <glyph glyph-name="registered" unicode="&#xae;" horiz-adv-x="1753" 
d="M873 1632c-80.667 0 -151.334 -14 -212.001 -42s-111.167 -65.5 -151.5 -112.5s-70.5 -101.5 -90.5 -163.5s-30 -127.333 -30 -196c0 -78 12.167 -148.667 36.5 -212s58.333 -117.333 102 -162s95.334 -79.167 155.001 -103.5s124.5 -36.5 194.5 -36.5
c72 0 137.833 12.333 197.5 37s111 59.5 154 104.5s76.333 98.667 100 161s35.5 131.166 35.5 206.499c0 74.667 -11.667 143.834 -35 207.501s-56.5 118.5 -99.5 164.5s-94.667 82 -155 108s-127.5 39 -201.5 39zM877 1753c60.667 0 117.832 -7.33105 171.499 -21.998
s103.167 -35.334 148.5 -62.001s85.833 -59 121.5 -97s65.834 -80.667 90.501 -128s43.667 -98.333 57 -153s20 -112.334 20 -173.001c0 -86 -14.333 -167.333 -43 -244s-69.667 -144 -123 -202s-117.666 -103.833 -192.999 -137.5s-160 -50.5 -254 -50.5
c-91.333 0 -174.166 15.667 -248.499 47s-138 74.833 -191 130.5s-94 122 -123 199s-43.5 161.167 -43.5 252.5c0 87.333 14 169.833 42 247.5s68.167 145.5 120.5 203.5s116.166 104 191.499 138s160.666 51 255.999 51zM870.998 1170c18 0 34.332 2.66699 48.999 8
s27.334 12.333 38.001 21s19 18.334 25 29.001s9 21.667 9 33c0 37.333 -11.833 64.166 -35.5 80.499s-56.5 24.5 -98.5 24.5h-100v-196h113zM757.997 1064l-0.000976562 -264.999h-137v675h250c42 0 79.333 -3.66699 112 -11s60.334 -18.666 83.001 -33.999
s40 -35.333 52 -60s18 -54.334 18 -89.001c0 -20 -2.83301 -38.5 -8.5 -55.5s-14.167 -32.333 -25.5 -46s-25.333 -25.834 -42 -36.501s-36.334 -19.334 -59.001 -26.001c-1.33301 0 -2.16602 -0.166992 -2.49902 -0.5s-1.16602 -0.833008 -2.49902 -1.5
c14 -3.33301 27.333 -8.83301 40 -16.5s25 -17.167 37 -28.5s23.333 -24.833 34 -40.5s20.667 -33.5 30 -53.5l84 -176h-148l-85 169c-9.33301 18.667 -19.333 34.334 -30 47.001s-22.334 22.5 -35.001 29.5s-26.667 12 -42 15s-32.333 4.5 -51 4.5h-72z" />
    <glyph glyph-name="macron" unicode="&#xaf;" 
d="M138 1516h581v-130h-581v130z" />
    <glyph glyph-name="degree" unicode="&#xb0;" horiz-adv-x="930" 
d="M233 1201c0 -26 5.33496 -50.5 16.002 -73.5s25 -43 43 -60s39.167 -30.5 63.5 -40.5s50.5 -15 78.5 -15c27.333 0 53.166 5 77.499 15s45.666 23.5 63.999 40.5s32.833 37 43.5 60s16 47.5 16 73.5s-5.33301 50.5 -16 73.5s-25 43 -43 60s-39.167 30.5 -63.5 40.5
s-50.5 15 -78.5 15s-54.167 -5 -78.5 -15s-45.5 -23.5 -63.5 -40.5s-32.333 -37 -43 -60s-16 -47.5 -16 -73.5zM79.002 1201c0 46 9.5 89.167 28.5 129.5s44.667 75.5 77 105.5s70 53.5 113 70.5s88.833 25.5 137.5 25.5c50 0 96.667 -8.5 140 -25.5s81 -40.333 113 -70
s57.167 -64.667 75.5 -105s27.5 -83.833 27.5 -130.5c0 -46 -9.5 -89.167 -28.5 -129.5s-44.667 -75.5 -77 -105.5s-70 -53.5 -113 -70.5s-88.833 -25.5 -137.5 -25.5s-94.5 8.5 -137.5 25.5s-80.667 40.5 -113 70.5s-58 65.167 -77 105.5s-28.5 83.5 -28.5 129.5z" />
    <glyph glyph-name="plusminus" unicode="&#xb1;" horiz-adv-x="1570" 
d="M1305 879v-154h-443v-441h-155v441h-442v154h442v399h155v-399h443z" />
    <glyph glyph-name="twosuperior" unicode="&#xb2;" horiz-adv-x="698" 
d="M624 808l-0.00488281 -140.004h-548v140l179 178c36.667 36.667 65.834 67.834 87.501 93.501s38.334 48 50.001 67s19.167 35.833 22.5 50.5s5 29.667 5 45c0 42 -10.667 74.333 -32 97s-53.666 34 -96.999 34c-31.333 0 -64.166 -3.5 -98.499 -10.5
s-66.166 -18.167 -95.499 -33.5l-36 136c17.333 7.33301 36.333 14.333 57 21s42 12.334 64 17.001s43.833 8.33398 65.5 11.001s41.834 4 60.501 4c48 0 90 -5.66699 126 -17s66 -27.666 90 -48.999s41.833 -47.333 53.5 -78s17.5 -65 17.5 -103
c0 -22 -1.83301 -43.667 -5.5 -65s-12.334 -44.833 -26.001 -70.5s-33.667 -54.5 -60 -86.5s-61.833 -69.667 -106.5 -113l-132 -128h359z" />
    <glyph glyph-name="threesuperior" unicode="&#xb3;" horiz-adv-x="659" 
d="M436 1121c24.667 -6 47.165 -14.999 67.498 -26.999s37.833 -26.167 52.5 -42.5s25.834 -34.5 33.501 -54.5s11.5 -41 11.5 -63c0 -45.333 -7.5 -85.333 -22.5 -120s-36.667 -64 -65 -88s-62.833 -42.167 -103.5 -54.5s-86.334 -18.5 -137.001 -18.5
c-39.333 0 -75.5 2.5 -108.5 7.5s-69.167 13.5 -108.5 25.5l40 148c28.667 -10.667 60.167 -19.334 94.5 -26.001s67.5 -10 99.5 -10c43.333 0 76.666 9.66699 99.999 29s35 45.333 35 78c0 20 -4.16699 37.5 -12.5 52.5s-21 27.333 -38 37s-38.167 17 -63.5 22
s-55 7.5 -89 7.5h-58v140h71c27.333 0 51.5 3.16699 72.5 9.5s38.5 15 52.5 26s24.667 23.833 32 38.5s11 30 11 46c0 28 -10.167 50 -30.5 66s-49.5 24 -87.5 24c-32 0 -61.667 -3.16699 -89 -9.5s-53.333 -14.166 -78 -23.499l-38 130c14.667 6.66699 30.834 13 48.501 19
s36.334 11.167 56.001 15.5s39.334 7.66602 59.001 9.99902s38.834 3.5 57.501 3.5c93.333 0 162.833 -17 208.5 -51s68.5 -85.667 68.5 -155c0 -21.333 -3.5 -42 -10.5 -62s-16.667 -38.5 -29 -55.5s-27.333 -31.833 -45 -44.5s-36.834 -22.667 -57.501 -30z" />
    <glyph glyph-name="acute" unicode="&#xb4;" 
d="M324 1293l-107 75l257 343l147 -96z" />
    <glyph glyph-name="uni00B5" unicode="&#xb5;" horiz-adv-x="1184" 
d="M129 -426l-0.00195312 1546h165v-651c0 -35.333 2 -68.166 6 -98.499s10.333 -58 19 -83s19.834 -47.167 33.501 -66.5s30.167 -35.666 49.5 -48.999s41.833 -23.5 67.5 -30.5s54.5 -10.5 86.5 -10.5c54.667 0 100.167 9.83301 136.5 29.5s65.5 45.834 87.5 78.501
s37.5 70.167 46.5 112.5s13.5 86.166 13.5 131.499v637h167v-862c0 -25.333 1.16699 -46.166 3.5 -62.499s6 -29.166 11 -38.499s11.167 -16 18.5 -20s16 -6 26 -6c15.333 0 27.833 1.5 37.5 4.5s17.834 6.83301 24.501 11.5l24 -127c-10 -6 -21.167 -12 -33.5 -18
s-25.166 -11.333 -38.499 -16s-26.666 -8.33398 -39.999 -11.001s-26.333 -4 -39 -4c-25.333 0 -46.833 4.16699 -64.5 12.5s-32.5 19.666 -44.5 33.999s-21.5 31.166 -28.5 50.499s-12.5 39.666 -16.5 60.999c-15.333 -25.333 -34.333 -47.666 -57 -66.999
s-47.5 -35.666 -74.5 -48.999s-55.833 -23.5 -86.5 -30.5s-61.334 -10.5 -92.001 -10.5s-58.334 2.66699 -83.001 8s-47 12.666 -67 21.999s-37.5 20.666 -52.5 33.999s-28.5 27.666 -40.5 42.999v-505h-165z" />
    <glyph glyph-name="paragraph" unicode="&#xb6;" horiz-adv-x="1196" 
d="M1010 1493l0.00195312 -1690h-131v1567h-179v-1567h-133v846c-64.667 5.33301 -123.334 18.5 -176.001 39.5s-97.5 49.167 -134.5 84.5s-65.5 78 -85.5 128s-30 106.667 -30 170c0 64 11 121.833 33 173.5s52.667 96 92 133s86.666 65.5 141.999 85.5s116 30 182 30h420z
" />
    <glyph glyph-name="periodcentered" unicode="&#xb7;" horiz-adv-x="515" 
d="M156 710c0 42 8 72.5 24 91.5s41.333 28.5 76 28.5s60.334 -9.5 77.001 -28.5s25 -49.5 25 -91.5s-8.33301 -72.333 -25 -91s-42.334 -28 -77.001 -28s-60 9.33301 -76 28s-24 49 -24 91z" />
    <glyph glyph-name="cedilla" unicode="&#xb8;" horiz-adv-x="856" 
d="M237 -485c15.333 22.667 30 45.834 44 69.501s26.167 48.667 36.5 75s18.5 54.166 24.5 83.499s9 61.333 9 96h173c0 -40 -5.16699 -77.5 -15.5 -112.5s-24.333 -68.5 -42 -100.5s-37.667 -62.5 -60 -91.5s-45.5 -56.833 -69.5 -83.5z" />
    <glyph glyph-name="onesuperior" unicode="&#xb9;" horiz-adv-x="691" 
d="M127 808h177v545l-185 -74l-25 137l213 87h166v-695h162v-140h-508v140z" />
    <glyph glyph-name="ordmasculine" unicode="&#xba;" horiz-adv-x="859" 
d="M420 1383c-26 0 -50.5 -5.33398 -73.5 -16.001s-42.833 -26.667 -59.5 -48s-29.834 -48.166 -39.501 -80.499s-14.5 -70.5 -14.5 -114.5c0 -51.333 4.83301 -95.166 14.5 -131.499s23.334 -66 41.001 -89s39.167 -39.833 64.5 -50.5s54 -16 86 -16
c26 0 50.5 5.16699 73.5 15.5s42.833 26.333 59.5 48s29.834 48.667 39.501 81s14.5 70.5 14.5 114.5c0 51.333 -4.83301 95.166 -14.5 131.499s-23.334 66 -41.001 89s-39.167 39.833 -64.5 50.5s-54 16 -86 16zM439 1522c51.333 0 98.5 -9.16699 141.5 -27.5
s80 -44.5 111 -78.5s55.167 -75.667 72.5 -125s26 -105 26 -167c0 -68.667 -8.66699 -129.5 -26 -182.5s-42 -97.5 -74 -133.5s-70.833 -63.333 -116.5 -82s-96.834 -28 -153.501 -28c-51.333 0 -98.5 9.16699 -141.5 27.5s-80 44.5 -111 78.5s-55.167 75.667 -72.5 125
s-26 105 -26 167c0 68 8.66699 128.5 26 181.5s42 97.667 74 134s70.833 63.833 116.5 82.5s96.834 28 153.501 28zM119 590.999h640v-130h-640v130z" />
    <glyph glyph-name="guillemotright" unicode="&#xbb;" horiz-adv-x="1244" 
d="M154.066 151.063l-100.994 89.9941l294.982 345.979l-297.981 355.979l104.993 94.9941l438.974 -432.974zM684.034 121.064l-98.9941 90.9951l329.98 372.978l-330.98 384.977l104.994 94.9941l470.971 -461.973z" />
    <glyph glyph-name="onequarter" unicode="&#xbc;" horiz-adv-x="1877" 
d="M1364 1543l136 -82l-1089 -1534l-136 82zM1476 641l-224 -321h224v321zM1442 835h203v-515h131v-141h-131v-179h-169v179h-378v170zM127 808h177v545l-185 -74l-25 137l213 87h166v-695h162v-140h-508v140z" />
    <glyph glyph-name="onehalf" unicode="&#xbd;" horiz-adv-x="1864" 
d="M1364 1543l136 -82l-1089 -1534l-136 82zM127 808h177v545l-185 -74l-25 137l213 87h166v-695h162v-140h-508v140zM1697 140l-0.00488281 -140.004h-548v140l179 178c36.667 36.667 65.834 67.834 87.501 93.501s38.334 48 50.001 67s19.167 35.833 22.5 50.5
s5 29.667 5 45c0 42 -10.667 74.333 -32 97s-53.666 34 -96.999 34c-31.333 0 -64.166 -3.5 -98.499 -10.5s-66.166 -18.167 -95.499 -33.5l-36 136c17.333 7.33301 36.333 14.333 57 21s42 12.334 64 17.001s43.833 8.33398 65.5 11.001s41.834 4 60.501 4
c48 0 90 -5.66699 126 -17s66 -27.666 90 -48.999s41.833 -47.333 53.5 -78s17.5 -65 17.5 -103c0 -22 -1.83301 -43.667 -5.5 -65s-12.334 -44.833 -26.001 -70.5s-33.667 -54.5 -60 -86.5s-61.833 -69.667 -106.5 -113l-133 -128h360z" />
    <glyph glyph-name="threequarters" unicode="&#xbe;" horiz-adv-x="1891" 
d="M1364 1543l136 -82l-1089 -1534l-136 82zM480 1121c24.667 -6 47.165 -14.999 67.498 -26.999s37.833 -26.167 52.5 -42.5s25.834 -34.5 33.501 -54.5s11.5 -41 11.5 -63c0 -45.333 -7.5 -85.333 -22.5 -120s-36.667 -64 -65 -88s-62.833 -42.167 -103.5 -54.5
s-86.334 -18.5 -137.001 -18.5c-39.333 0 -75.5 2.5 -108.5 7.5s-69.167 13.5 -108.5 25.5l40 148c28.667 -10.667 60.167 -19.334 94.5 -26.001s67.5 -10 99.5 -10c43.333 0 76.666 9.66699 99.999 29s35 45.333 35 78c0 20 -4.16699 37.5 -12.5 52.5s-21 27.333 -38 37
s-38.167 17 -63.5 22s-55 7.5 -89 7.5h-58v140h71c27.333 0 51.5 3.16699 72.5 9.5s38.5 15 52.5 26s24.667 23.833 32 38.5s11 30 11 46c0 28 -10.167 50 -30.5 66s-49.5 24 -87.5 24c-32 0 -61.667 -3.16699 -89 -9.5s-53.333 -14.166 -78 -23.499l-38 130
c14.667 6.66699 30.834 13 48.501 19s36.334 11.167 56.001 15.5s39.334 7.66602 59.001 9.99902s38.834 3.5 57.501 3.5c93.333 0 162.833 -17 208.5 -51s68.5 -85.667 68.5 -155c0 -21.333 -3.5 -42 -10.5 -62s-16.667 -38.5 -29 -55.5s-27.333 -31.833 -45 -44.5
s-36.834 -22.667 -57.501 -30zM1476 641.001l-224 -321h224v321zM1442 835.001h203v-515h131v-141h-131v-179h-169v179h-378v170z" />
    <glyph glyph-name="questiondown" unicode="&#xbf;" horiz-adv-x="1011" 
d="M126.054 305.072c0 45.3311 8.50293 85.9951 25.502 121.992c16.999 35.998 38.1641 69.4961 63.4961 100.494c25.3311 30.998 52.9961 60.6631 82.9951 88.9951c29.998 28.3311 57.6631 57.6621 82.9941 87.9932c25.332 30.3311 46.4971 62.8291 63.4961 97.4941
s25.499 73.6631 25.499 116.994v171.989h174.989v-140.991c0 -61.3291 -8.16602 -114.826 -24.499 -160.49c-16.332 -45.6641 -36.8311 -85.9951 -61.4961 -120.992c-24.665 -34.998 -51.4971 -66.3301 -80.4961 -93.9951l-80.4951 -78.9951
c-24.665 -24.998 -45.1641 -50.1631 -61.4971 -75.4951c-16.332 -25.332 -24.498 -53.3301 -24.498 -83.9951c0 -31.998 5.5 -60.1631 16.499 -84.4941c10.999 -24.332 26.498 -44.498 46.4971 -60.4971s43.9971 -27.998 71.9951 -35.9971
c27.999 -8 58.9971 -12 92.9941 -12c20.666 0 40.998 1.16699 60.9971 3.5s40.8311 5.83301 62.4961 10.5c21.665 4.66602 44.6631 10.999 68.9941 18.998c24.332 8 50.4971 17.333 78.4951 27.998l51.9971 -149.99c-27.998 -13.333 -56.3291 -25.166 -84.9941 -35.499
s-57.4971 -18.999 -86.4951 -25.998c-28.998 -7 -57.8301 -12.166 -86.4951 -15.499s-56.9961 -5 -84.9941 -5c-59.9971 0 -114.16 7.16602 -162.49 21.499c-48.3311 14.332 -89.6621 35.6641 -123.993 63.9961c-34.3311 28.3311 -60.8291 63.1621 -79.4941 104.493
c-18.666 41.3311 -27.999 88.9951 -27.999 142.992zM669.023 1393.01c0 -44.6641 -8.83398 -77.3291 -26.499 -97.9941s-45.1631 -30.998 -82.4941 -30.998c-38.6641 0 -67.4951 10.333 -86.4941 30.998s-28.499 53.3301 -28.499 97.9941
c0 45.9971 9.5 78.6621 28.499 97.9941s47.8301 28.998 86.4941 28.998c37.998 0 65.6631 -9.66602 82.9951 -28.998s25.998 -51.9971 25.998 -97.9941z" />
    <glyph glyph-name="Agrave" unicode="&#xc0;" horiz-adv-x="1349" 
d="M978 391h-617l-130 -391h-189l528 1493h209l526 -1493h-196zM416 543h505l-254 751zM720 1611l-428 170l112 128l392 -209z" />
    <glyph glyph-name="Aacute" unicode="&#xc1;" horiz-adv-x="1349" 
d="M978 391h-617l-130 -391h-189l528 1493h209l526 -1493h-196zM416 543h505l-254 751zM616 1608l-80 92l392 209l116 -131z" />
    <glyph glyph-name="Acircumflex" unicode="&#xc2;" horiz-adv-x="1349" 
d="M978 391h-617l-130 -391h-189l528 1493h209l526 -1493h-196zM416 543h505l-254 751zM677 1904l298 -207l-80 -90l-228 128l-218 -128l-68 84z" />
    <glyph glyph-name="Atilde" unicode="&#xc3;" horiz-adv-x="1349" 
d="M978 391h-617l-130 -391h-189l528 1493h209l526 -1493h-196zM416 543h505l-254 751zM803 1644c-37.333 0 -68.335 4.83008 -93.002 14.4971s-46.5 20.334 -65.5 32.001l-53 32c-16.333 9.66699 -34.833 14.5 -55.5 14.5c-14 0 -26.333 -2.83301 -37 -8.5
s-20.167 -13 -28.5 -22s-16.166 -19.167 -23.499 -30.5l-22 -35l-93 63c9.33301 20.667 21 41.167 35 61.5s30.167 38.5 48.5 54.5s39 28.833 62 38.5s48.167 14.5 75.5 14.5c34 0 62.667 -4.83301 86 -14.5s44.666 -20.5 63.999 -32.5s38 -22.833 56 -32.5
s38.667 -14.5 62 -14.5c12.667 0 24.334 2.5 35.001 7.5s20.334 11.833 29.001 20.5s16.334 18.834 23.001 30.501s12.667 23.834 18 36.501l95 -59c-22.667 -60 -51.834 -103.5 -87.501 -130.5s-79.167 -40.5 -130.5 -40.5z" />
    <glyph glyph-name="Adieresis" unicode="&#xc4;" horiz-adv-x="1349" 
d="M363 1730c0 38.667 7.5 66.834 22.5 84.501s39.5 26.5 73.5 26.5c33.333 0 58 -8.83301 74 -26.5s24 -45.834 24 -84.501s-8 -66.5 -24 -83.5s-40.667 -25.5 -74 -25.5c-34 0 -58.5 8.5 -73.5 25.5s-22.5 44.833 -22.5 83.5zM793 1730c0 38.667 7.5 66.834 22.5 84.501
s39.5 26.5 73.5 26.5c32 0 56.167 -8.83301 72.5 -26.5s24.5 -45.834 24.5 -84.501s-8.16699 -66.5 -24.5 -83.5s-40.5 -25.5 -72.5 -25.5c-34 0 -58.5 8.5 -73.5 25.5s-22.5 44.833 -22.5 83.5zM978 391h-617l-130 -391h-189l528 1493h209l526 -1493h-196zM416 543h505
l-254 751z" />
    <glyph glyph-name="Aring" unicode="&#xc5;" horiz-adv-x="1349" 
d="M465 1670c0 27.333 5.00098 53.6699 15.001 79.0029s24.167 47.666 42.5 66.999s40.666 34.833 66.999 46.5s55.5 17.5 87.5 17.5c34.667 0 64.667 -5.83301 90 -17.5s46.333 -27 63 -46s29 -40.5 37 -64.5s12 -48.333 12 -73c0 -32 -5 -61.333 -15 -88
s-24.333 -49.667 -43 -69c-12 -12.667 -25.667 -23.334 -41 -32.001l525 -1490h-196l-131 391h-617l-130 -391h-189l526 1488c-16.667 9.33301 -31.667 20.666 -45 33.999c-18 18.667 -32.167 40.5 -42.5 65.5s-15.5 52.5 -15.5 82.5zM416.001 543.004h505l-254 751z
M576.001 1679c0 -35.333 9.83105 -61.5 29.498 -78.5s43.5 -25.5 71.5 -25.5c27.333 0 49.5 8.33301 66.5 25s25.5 40 25.5 70c0 12 -2.16699 24 -6.5 36s-10.666 22.667 -18.999 32s-18.5 16.833 -30.5 22.5s-25.667 8.5 -41 8.5c-29.333 0 -52.666 -8.5 -69.999 -25.5
s-26 -38.5 -26 -64.5z" />
    <glyph glyph-name="AE" unicode="&#xc6;" horiz-adv-x="1956" 
d="M961 391h-513l-218 -391h-187l865 1493h921v-152h-692v-498h664v-152h-664v-539h710v-152h-886v391zM536 543h425v751z" />
    <glyph glyph-name="Ccedilla" unicode="&#xc7;" horiz-adv-x="1350" 
d="M584 -485c15.333 22.667 30 45.834 44 69.501s26.167 48.667 36.5 75s18.5 54.166 24.5 83.499s9 61.333 9 96h173c0 -40 -5.16699 -77.5 -15.5 -112.5s-24.333 -68.5 -42 -100.5s-37.667 -62.5 -60 -91.5s-45.5 -56.833 -69.5 -83.5zM1270 197
c-28.667 -30 -60.165 -58.501 -94.498 -85.501s-72.5 -50.833 -114.5 -71.5s-87.833 -37.167 -137.5 -49.5s-103.834 -18.5 -162.501 -18.5c-106.667 0 -200 19.5 -280 58.5s-146.667 92.5 -200 160.5s-93.333 148.167 -120 240.5s-40 191.833 -40 298.5
c0 70 6.66699 138.167 20 204.5s32.666 128.666 57.999 186.999s57 112 95 161s81.333 91 130 126s103 62.333 163 82s125 29.5 195 29.5c46.667 0 92.167 -4.83301 136.5 -14.5s86.833 -23.667 127.5 -42s79.5 -40.666 116.5 -66.999s71.833 -55.833 104.5 -88.5l-104 -129
c-32 28.667 -63.833 53.667 -95.5 75s-64 39.166 -97 53.499s-66.833 25 -101.5 32s-70.667 10.5 -108 10.5c-49.333 0 -94.833 -7.66699 -136.5 -23s-79.167 -36.666 -112.5 -63.999s-62.833 -59.5 -88.5 -96.5s-47 -77.333 -64 -121s-29.833 -89.667 -38.5 -138
s-13 -97.166 -13 -146.499c0 -68 5.83301 -130.667 17.5 -188s28 -108.833 49 -154.5s46 -85.834 75 -120.501s61 -63.667 96 -87s72.5 -40.833 112.5 -52.5s81.333 -17.5 124 -17.5c36.667 0 72.667 4.33301 108 13s69.833 20.834 103.5 36.501s66 34.167 97 55.5
s60.167 45 87.5 71z" />
    <glyph glyph-name="Egrave" unicode="&#xc8;" horiz-adv-x="1164" 
d="M702 1611l-428 170l112 128l392 -209zM170 1493h867v-152h-692v-498h664v-152h-664v-539h710v-152h-885v1493z" />
    <glyph glyph-name="Eacute" unicode="&#xc9;" horiz-adv-x="1164" 
d="M548 1608l-80 92l392 209l116 -131zM170 1493h867v-152h-692v-498h664v-152h-664v-539h710v-152h-885v1493z" />
    <glyph glyph-name="Ecircumflex" unicode="&#xca;" horiz-adv-x="1164" 
d="M597 1904l298 -207l-80 -90l-228 128l-218 -128l-68 84zM170 1493h867v-152h-692v-498h664v-152h-664v-539h710v-152h-885v1493z" />
    <glyph glyph-name="Edieresis" unicode="&#xcb;" horiz-adv-x="1164" 
d="M298 1730c0 38.667 7.5 66.834 22.5 84.501s39.5 26.5 73.5 26.5c33.333 0 58 -8.83301 74 -26.5s24 -45.834 24 -84.501s-8 -66.5 -24 -83.5s-40.667 -25.5 -74 -25.5c-34 0 -58.5 8.5 -73.5 25.5s-22.5 44.833 -22.5 83.5zM728 1730c0 38.667 7.5 66.834 22.5 84.501
s39.5 26.5 73.5 26.5c32 0 56.167 -8.83301 72.5 -26.5s24.5 -45.834 24.5 -84.501s-8.16699 -66.5 -24.5 -83.5s-40.5 -25.5 -72.5 -25.5c-34 0 -58.5 8.5 -73.5 25.5s-22.5 44.833 -22.5 83.5zM170 1493h867v-152h-692v-498h664v-152h-664v-539h710v-152h-885v1493z" />
    <glyph glyph-name="Igrave" unicode="&#xcc;" horiz-adv-x="515" 
d="M170 1493h175v-1493h-175v1493zM316 1611l-428 170l112 128l392 -209z" />
    <glyph glyph-name="Iacute" unicode="&#xcd;" horiz-adv-x="515" 
d="M170 1493h175v-1493h-175v1493zM198 1608l-80 92l392 209l116 -131z" />
    <glyph glyph-name="Icircumflex" unicode="&#xce;" horiz-adv-x="515" 
d="M170 1493h175v-1493h-175v1493zM263 1904l298 -207l-80 -90l-228 128l-218 -128l-68 84z" />
    <glyph glyph-name="Idieresis" unicode="&#xcf;" horiz-adv-x="515" 
d="M170 1493h175v-1493h-175v1493zM-50 1730c0 38.667 7.5 66.834 22.5 84.501s39.5 26.5 73.5 26.5c33.333 0 58 -8.83301 74 -26.5s24 -45.834 24 -84.501s-8 -66.5 -24 -83.5s-40.667 -25.5 -74 -25.5c-34 0 -58.5 8.5 -73.5 25.5s-22.5 44.833 -22.5 83.5zM380 1730
c0 38.667 7.5 66.834 22.5 84.501s39.5 26.5 73.5 26.5c32 0 56.167 -8.83301 72.5 -26.5s24.5 -45.834 24.5 -84.501s-8.16699 -66.5 -24.5 -83.5s-40.5 -25.5 -72.5 -25.5c-34 0 -58.5 8.5 -73.5 25.5s-22.5 44.833 -22.5 83.5z" />
    <glyph glyph-name="Eth" unicode="&#xd0;" horiz-adv-x="1452" 
d="M12 837l165 -0.00195312v656h415c136 0 251.167 -18.333 345.5 -55s171 -87.667 230 -153s101.667 -142.666 128 -231.999s39.5 -187 39.5 -293c0 -130 -18.167 -242.667 -54.5 -338s-87.833 -174.166 -154.5 -236.499s-147 -108.833 -241 -139.5s-198.333 -46 -313 -46
h-395v707h-165v130zM352 1341v-504h299v-130h-299v-555h240c96.667 0 180 13.333 250 40s127.667 64.834 173 114.501s78.833 110.167 100.5 181.5s32.5 152 32.5 242c0 84 -9.5 163.167 -28.5 237.5s-50.667 139.166 -95 194.499s-103.333 99 -177 131s-165.5 48 -275.5 48
h-220z" />
    <glyph glyph-name="Ntilde" unicode="&#xd1;" horiz-adv-x="1424" 
d="M839 1644c-37.333 0 -68.335 4.83008 -93.002 14.4971s-46.5 20.334 -65.5 32.001l-53 32c-16.333 9.66699 -34.833 14.5 -55.5 14.5c-14 0 -26.333 -2.83301 -37 -8.5s-20.167 -13 -28.5 -22s-16.166 -19.167 -23.499 -30.5l-22 -35l-93 63
c9.33301 20.667 21 41.167 35 61.5s30.167 38.5 48.5 54.5s39 28.833 62 38.5s48.167 14.5 75.5 14.5c34 0 62.667 -4.83301 86 -14.5s44.666 -20.5 63.999 -32.5s38 -22.833 56 -32.5s38.667 -14.5 62 -14.5c12.667 0 24.334 2.5 35.001 7.5s20.334 11.833 29.001 20.5
s16.334 18.834 23.001 30.501s12.667 23.834 18 36.501l95 -59c-22.667 -60 -51.834 -103.5 -87.501 -130.5s-79.167 -40.5 -130.5 -40.5zM169.998 1493l191.999 -0.00292969l525 -856l64.5 -107l56 -96.5l46 -85c13.667 -26.333 25.167 -50.5 34.5 -72.5l6 2
c-1.33301 20.667 -2.5 44.834 -3.5 72.501s-2 60.834 -3 99.501s-1.66699 83.834 -2 135.501s-0.5 111.5 -0.5 179.5v728h169v-1493h-193l-528 855l-64.5 106l-56 97c-17 30.667 -32.167 59.167 -45.5 85.5s-24.666 50.5 -33.999 72.5l-6 -2
c1.33301 -20.667 2.5 -44.334 3.5 -71.001s2 -55.667 3 -87s1.66699 -65.166 2 -101.499s0.5 -74.5 0.5 -114.5v-840h-166v1493z" />
    <glyph glyph-name="Ograve" unicode="&#xd2;" horiz-adv-x="1532" 
d="M889 1611l-428 170l112 128l392 -209zM757 1350c-61.333 0 -119.334 -13.499 -174.001 -40.499s-102.667 -65.833 -144 -116.5s-74.166 -112.5 -98.499 -185.5s-36.5 -155.167 -36.5 -246.5c0 -102 12.667 -191.667 38 -269s59.666 -142 102.999 -194
s93.5 -91 150.5 -117s117.5 -39 181.5 -39c66.667 0 127.667 14 183 42s103 67.667 143 119s71 113.166 93 185.499s33 152.833 33 241.5c0 102 -12.667 191.667 -38 269s-59.666 142 -102.999 194s-93.5 91.167 -150.5 117.5s-117.167 39.5 -180.5 39.5zM776.999 1520
c90.667 0 175 -17 253 -51s145.5 -83.333 202.5 -148s101.667 -144.167 134 -238.5s48.5 -201.833 48.5 -322.5c0 -118.667 -16.167 -226.5 -48.5 -323.5s-77.5 -179.833 -135.5 -248.5s-127.333 -121.834 -208 -159.501s-169.334 -56.5 -266.001 -56.5
c-91.333 0 -176 16.833 -254 50.5s-145.667 82.834 -203 147.501s-102.166 144 -134.499 238s-48.5 201.333 -48.5 322c0 118.667 16.667 226.667 50 324s79.5 180.5 138.5 249.5s128.667 122.333 209 160s167.833 56.5 262.5 56.5z" />
    <glyph glyph-name="Oacute" unicode="&#xd3;" horiz-adv-x="1532" 
d="M661 1608l-80 92l392 209l116 -131zM757 1350c-61.333 0 -119.334 -13.499 -174.001 -40.499s-102.667 -65.833 -144 -116.5s-74.166 -112.5 -98.499 -185.5s-36.5 -155.167 -36.5 -246.5c0 -102 12.667 -191.667 38 -269s59.666 -142 102.999 -194s93.5 -91 150.5 -117
s117.5 -39 181.5 -39c66.667 0 127.667 14 183 42s103 67.667 143 119s71 113.166 93 185.499s33 152.833 33 241.5c0 102 -12.667 191.667 -38 269s-59.666 142 -102.999 194s-93.5 91.167 -150.5 117.5s-117.167 39.5 -180.5 39.5zM776.999 1520c90.667 0 175 -17 253 -51
s145.5 -83.333 202.5 -148s101.667 -144.167 134 -238.5s48.5 -201.833 48.5 -322.5c0 -118.667 -16.167 -226.5 -48.5 -323.5s-77.5 -179.833 -135.5 -248.5s-127.333 -121.834 -208 -159.501s-169.334 -56.5 -266.001 -56.5c-91.333 0 -176 16.833 -254 50.5
s-145.667 82.834 -203 147.501s-102.166 144 -134.499 238s-48.5 201.333 -48.5 322c0 118.667 16.667 226.667 50 324s79.5 180.5 138.5 249.5s128.667 122.333 209 160s167.833 56.5 262.5 56.5z" />
    <glyph glyph-name="Ocircumflex" unicode="&#xd4;" horiz-adv-x="1532" 
d="M767 1904l298 -207l-80 -90l-228 128l-218 -128l-68 84zM757 1350c-61.333 0 -119.334 -13.499 -174.001 -40.499s-102.667 -65.833 -144 -116.5s-74.166 -112.5 -98.499 -185.5s-36.5 -155.167 -36.5 -246.5c0 -102 12.667 -191.667 38 -269s59.666 -142 102.999 -194
s93.5 -91 150.5 -117s117.5 -39 181.5 -39c66.667 0 127.667 14 183 42s103 67.667 143 119s71 113.166 93 185.499s33 152.833 33 241.5c0 102 -12.667 191.667 -38 269s-59.666 142 -102.999 194s-93.5 91.167 -150.5 117.5s-117.167 39.5 -180.5 39.5zM776.999 1520
c90.667 0 175 -17 253 -51s145.5 -83.333 202.5 -148s101.667 -144.167 134 -238.5s48.5 -201.833 48.5 -322.5c0 -118.667 -16.167 -226.5 -48.5 -323.5s-77.5 -179.833 -135.5 -248.5s-127.333 -121.834 -208 -159.501s-169.334 -56.5 -266.001 -56.5
c-91.333 0 -176 16.833 -254 50.5s-145.667 82.834 -203 147.501s-102.166 144 -134.499 238s-48.5 201.333 -48.5 322c0 118.667 16.667 226.667 50 324s79.5 180.5 138.5 249.5s128.667 122.333 209 160s167.833 56.5 262.5 56.5z" />
    <glyph glyph-name="Otilde" unicode="&#xd5;" horiz-adv-x="1532" 
d="M893 1644c-37.333 0 -68.335 4.83008 -93.002 14.4971s-46.5 20.334 -65.5 32.001l-53 32c-16.333 9.66699 -34.833 14.5 -55.5 14.5c-14 0 -26.333 -2.83301 -37 -8.5s-20.167 -13 -28.5 -22s-16.166 -19.167 -23.499 -30.5l-22 -35l-93 63
c9.33301 20.667 21 41.167 35 61.5s30.167 38.5 48.5 54.5s39 28.833 62 38.5s48.167 14.5 75.5 14.5c34 0 62.667 -4.83301 86 -14.5s44.666 -20.5 63.999 -32.5s38 -22.833 56 -32.5s38.667 -14.5 62 -14.5c12.667 0 24.334 2.5 35.001 7.5s20.334 11.833 29.001 20.5
s16.334 18.834 23.001 30.501s12.667 23.834 18 36.501l95 -59c-22.667 -60 -51.834 -103.5 -87.501 -130.5s-79.167 -40.5 -130.5 -40.5zM756.998 1350c-61.333 0 -119.334 -13.499 -174.001 -40.499s-102.667 -65.833 -144 -116.5s-74.166 -112.5 -98.499 -185.5
s-36.5 -155.167 -36.5 -246.5c0 -102 12.667 -191.667 38 -269s59.666 -142 102.999 -194s93.5 -91 150.5 -117s117.5 -39 181.5 -39c66.667 0 127.667 14 183 42s103 67.667 143 119s71 113.166 93 185.499s33 152.833 33 241.5c0 102 -12.667 191.667 -38 269
s-59.666 142 -102.999 194s-93.5 91.167 -150.5 117.5s-117.167 39.5 -180.5 39.5zM776.997 1520c90.667 0 175 -17 253 -51s145.5 -83.333 202.5 -148s101.667 -144.167 134 -238.5s48.5 -201.833 48.5 -322.5c0 -118.667 -16.167 -226.5 -48.5 -323.5
s-77.5 -179.833 -135.5 -248.5s-127.333 -121.834 -208 -159.501s-169.334 -56.5 -266.001 -56.5c-91.333 0 -176 16.833 -254 50.5s-145.667 82.834 -203 147.501s-102.166 144 -134.499 238s-48.5 201.333 -48.5 322c0 118.667 16.667 226.667 50 324
s79.5 180.5 138.5 249.5s128.667 122.333 209 160s167.833 56.5 262.5 56.5z" />
    <glyph glyph-name="Odieresis" unicode="&#xd6;" horiz-adv-x="1532" 
d="M455 1730c0 38.667 7.5 66.834 22.5 84.501s39.5 26.5 73.5 26.5c33.333 0 58 -8.83301 74 -26.5s24 -45.834 24 -84.501s-8 -66.5 -24 -83.5s-40.667 -25.5 -74 -25.5c-34 0 -58.5 8.5 -73.5 25.5s-22.5 44.833 -22.5 83.5zM885 1730c0 38.667 7.5 66.834 22.5 84.501
s39.5 26.5 73.5 26.5c32 0 56.167 -8.83301 72.5 -26.5s24.5 -45.834 24.5 -84.501s-8.16699 -66.5 -24.5 -83.5s-40.5 -25.5 -72.5 -25.5c-34 0 -58.5 8.5 -73.5 25.5s-22.5 44.833 -22.5 83.5zM757 1350c-61.333 0 -119.334 -13.499 -174.001 -40.499
s-102.667 -65.833 -144 -116.5s-74.166 -112.5 -98.499 -185.5s-36.5 -155.167 -36.5 -246.5c0 -102 12.667 -191.667 38 -269s59.666 -142 102.999 -194s93.5 -91 150.5 -117s117.5 -39 181.5 -39c66.667 0 127.667 14 183 42s103 67.667 143 119s71 113.166 93 185.499
s33 152.833 33 241.5c0 102 -12.667 191.667 -38 269s-59.666 142 -102.999 194s-93.5 91.167 -150.5 117.5s-117.167 39.5 -180.5 39.5zM776.999 1520c90.667 0 175 -17 253 -51s145.5 -83.333 202.5 -148s101.667 -144.167 134 -238.5s48.5 -201.833 48.5 -322.5
c0 -118.667 -16.167 -226.5 -48.5 -323.5s-77.5 -179.833 -135.5 -248.5s-127.333 -121.834 -208 -159.501s-169.334 -56.5 -266.001 -56.5c-91.333 0 -176 16.833 -254 50.5s-145.667 82.834 -203 147.501s-102.166 144 -134.499 238s-48.5 201.333 -48.5 322
c0 118.667 16.667 226.667 50 324s79.5 180.5 138.5 249.5s128.667 122.333 209 160s167.833 56.5 262.5 56.5z" />
    <glyph glyph-name="multiply" unicode="&#xd7;" horiz-adv-x="1478" 
d="M1120 1131l108 -109l-381 -386l413 -418l-110 -110l-413 417l-413 -418l-109 109l414 419l-382 388l110 110l382 -387z" />
    <glyph glyph-name="Oslash" unicode="&#xd8;" horiz-adv-x="1531" 
d="M777 1520c90.667 0 174.997 -16.999 252.997 -50.999c49.333 -21.333 94.333 -49 135 -83l159 211l123 -89l-177 -235c39.333 -54.667 71.333 -118.334 96 -191.001c32.667 -94 49 -201.333 49 -322c0 -127.333 -16.667 -239.833 -50 -337.5s-79.333 -180 -138 -247
s-128.167 -117.667 -208.5 -152s-167.833 -51.5 -262.5 -51.5c-91.333 0 -176 16.667 -254 50c-43.333 19.333 -83.666 43 -120.999 71l-170 -226l-123 88l185 246c-44.667 58.667 -80.667 127.667 -108 207c-32 94 -48 201.333 -48 322c0 126.667 16.667 239.167 50 337.5
s79.333 181 138 248s128.334 117.833 209.001 152.5s168.334 52 263.001 52zM755.997 1350c-61.333 0 -119.334 -13.502 -174.001 -40.502s-102.667 -65.833 -144 -116.5s-74.166 -112.5 -98.499 -185.5s-36.5 -155.167 -36.5 -246.5c0 -102 12.667 -191.667 38 -269
c15.333 -47.333 33.666 -89.666 54.999 -126.999l654 868c-34 32.667 -71.667 58.334 -113 77.001c-57.333 26.667 -117.666 40 -180.999 40zM594.996 180.999c57.333 -26 118 -39.001 182 -39.001c61.333 0 119.333 13.5 174 40.5s102.5 65.833 143.5 116.5
s73.5 112.334 97.5 185.001s36 154.667 36 246c0 102 -12.667 191.667 -38 269c-13.333 39.333 -28.333 75.333 -45 108l-650 -862c30.667 -26.667 64 -48 100 -64z" />
    <glyph glyph-name="Ugrave" unicode="&#xd9;" horiz-adv-x="1407" 
d="M767 1617l-428 170l112 128l392 -209zM166 1493l174.998 0.00195312v-862c0 -70 5.83301 -134.833 17.5 -194.5s32 -111.334 61 -155.001s68 -77.834 117 -102.501s110.833 -37 185.5 -37c69.333 0 126.666 11.667 171.999 35s81.333 55.666 108 96.999
s45.334 89.833 56.001 145.5s16 116.167 16 181.5v892h167v-862c0 -99.333 -8.66699 -189.5 -26 -270.5s-46.666 -150.167 -87.999 -207.5s-96.5 -101.833 -165.5 -133.5s-155.5 -47.5 -259.5 -47.5c-101.333 0 -186.166 14.667 -254.499 44s-123.333 71.333 -165 126
s-71.5 120.834 -89.5 198.501s-27 164.5 -27 260.5v892z" />
    <glyph glyph-name="Uacute" unicode="&#xda;" horiz-adv-x="1407" 
d="M617 1608l-80 92l392 209l116 -131zM166 1493l174.998 0.00195312v-862c0 -70 5.83301 -134.833 17.5 -194.5s32 -111.334 61 -155.001s68 -77.834 117 -102.501s110.833 -37 185.5 -37c69.333 0 126.666 11.667 171.999 35s81.333 55.666 108 96.999
s45.334 89.833 56.001 145.5s16 116.167 16 181.5v892h167v-862c0 -99.333 -8.66699 -189.5 -26 -270.5s-46.666 -150.167 -87.999 -207.5s-96.5 -101.833 -165.5 -133.5s-155.5 -47.5 -259.5 -47.5c-101.333 0 -186.166 14.667 -254.499 44s-123.333 71.333 -165 126
s-71.5 120.834 -89.5 198.501s-27 164.5 -27 260.5v892z" />
    <glyph glyph-name="Ucircumflex" unicode="&#xdb;" horiz-adv-x="1407" 
d="M704 1904l298 -207l-80 -90l-228 128l-218 -128l-68 84zM166 1493l174.998 0.00195312v-862c0 -70 5.83301 -134.833 17.5 -194.5s32 -111.334 61 -155.001s68 -77.834 117 -102.501s110.833 -37 185.5 -37c69.333 0 126.666 11.667 171.999 35s81.333 55.666 108 96.999
s45.334 89.833 56.001 145.5s16 116.167 16 181.5v892h167v-862c0 -99.333 -8.66699 -189.5 -26 -270.5s-46.666 -150.167 -87.999 -207.5s-96.5 -101.833 -165.5 -133.5s-155.5 -47.5 -259.5 -47.5c-101.333 0 -186.166 14.667 -254.499 44s-123.333 71.333 -165 126
s-71.5 120.834 -89.5 198.501s-27 164.5 -27 260.5v892z" />
    <glyph glyph-name="Udieresis" unicode="&#xdc;" horiz-adv-x="1407" 
d="M392 1730c0 38.667 7.5 66.834 22.5 84.501s39.5 26.5 73.5 26.5c33.333 0 58 -8.83301 74 -26.5s24 -45.834 24 -84.501s-8 -66.5 -24 -83.5s-40.667 -25.5 -74 -25.5c-34 0 -58.5 8.5 -73.5 25.5s-22.5 44.833 -22.5 83.5zM822 1730c0 38.667 7.5 66.834 22.5 84.501
s39.5 26.5 73.5 26.5c32 0 56.167 -8.83301 72.5 -26.5s24.5 -45.834 24.5 -84.501s-8.16699 -66.5 -24.5 -83.5s-40.5 -25.5 -72.5 -25.5c-34 0 -58.5 8.5 -73.5 25.5s-22.5 44.833 -22.5 83.5zM166 1493l174.998 0.00195312v-862c0 -70 5.83301 -134.833 17.5 -194.5
s32 -111.334 61 -155.001s68 -77.834 117 -102.501s110.833 -37 185.5 -37c69.333 0 126.666 11.667 171.999 35s81.333 55.666 108 96.999s45.334 89.833 56.001 145.5s16 116.167 16 181.5v892h167v-862c0 -99.333 -8.66699 -189.5 -26 -270.5
s-46.666 -150.167 -87.999 -207.5s-96.5 -101.833 -165.5 -133.5s-155.5 -47.5 -259.5 -47.5c-101.333 0 -186.166 14.667 -254.499 44s-123.333 71.333 -165 126s-71.5 120.834 -89.5 198.501s-27 164.5 -27 260.5v892z" />
    <glyph glyph-name="Yacute" unicode="&#xdd;" horiz-adv-x="1270" 
d="M587 1608l-80 92l392 209l116 -131zM544 0v641l-500 852h207l396 -684l384 684h197l-501 -852v-641h-183z" />
    <glyph glyph-name="Thorn" unicode="&#xde;" horiz-adv-x="1171" 
d="M170 1493l175 0.00195312v-260h225c98 0 180.333 -10.667 247 -32s120.167 -51 160.5 -89s69.333 -83 87 -135s26.5 -108.333 26.5 -169c0 -77.333 -13.667 -145.833 -41 -205.5s-65.333 -109.834 -114 -150.501s-106 -71.334 -172 -92.001s-138 -31 -216 -31h-203v-329
h-175v1493zM345 1081v-600.002h223c52.667 0 99.834 6.5 141.501 19.5s77 32 106 57s51 55.833 66 92.5s22.5 78.667 22.5 126c0 45.333 -5.5 86.833 -16.5 124.5s-30 69.834 -57 96.501s-63.333 47.334 -109 62.001s-102.834 22 -171.501 22h-205z" />
    <glyph glyph-name="germandbls" unicode="&#xdf;" horiz-adv-x="1204" 
d="M165 1046c0 80 7.99609 151.502 23.9961 214.502s42 116.5 78 160.5s83 77.5 141 100.5s129 34.5 213 34.5c44.667 0 88.167 -7 130.5 -21s80 -33.833 113 -59.5s59.5 -56.5 79.5 -92.5s30 -75.667 30 -119c0 -46 -6.66699 -86 -20 -120s-30 -64 -50 -90
s-41.5 -49.167 -64.5 -69.5l-64.5 -59c-20 -19 -36.667 -38.333 -50 -58s-20 -41.834 -20 -66.501c0 -30 10 -56 30 -78s44.833 -43 74.5 -63s62 -40 97 -60s67.333 -42.833 97 -68.5s54.5 -55.334 74.5 -89.001s30 -74.167 30 -121.5c0 -51.333 -9.5 -98.5 -28.5 -141.5
s-46 -79.833 -81 -110.5s-77.333 -54.5 -127 -71.5s-104.834 -25.5 -165.501 -25.5c-22.667 0 -45.167 1.66699 -67.5 5s-44 8.33301 -65 15s-40.833 14.834 -59.5 24.501s-35.667 20.5 -51 32.5l62 137c11.333 -8 24.5 -15.5 39.5 -22.5s31.333 -13.167 49 -18.5
s36 -9.66602 55 -12.999s38.167 -5 57.5 -5c26.667 0 52.334 3.33301 77.001 10s46.5 16.667 65.5 30s34.167 30.166 45.5 50.499s17 44.5 17 72.5c0 32.667 -10 60.5 -30 83.5s-44.833 44.333 -74.5 64s-62 39 -97 58s-67.333 40.833 -97 65.5s-54.5 53.667 -74.5 87
s-30 74 -30 122c0 40.667 6.66699 76 20 106s30 57 50 81s41.5 45.833 64.5 65.5s44.5 39.667 64.5 60s36.667 41.833 50 64.5s20 49 20 79c0 29.333 -5.83301 55.166 -17.5 77.499s-27.667 40.833 -48 55.5s-44.166 25.667 -71.499 33s-56.666 11 -87.999 11
c-45.333 0 -83.166 -8.5 -113.499 -25.5s-54.666 -39.833 -72.999 -68.5s-31.333 -62 -39 -100s-11.5 -78.333 -11.5 -121v-1088h-170v1046z" />
    <glyph glyph-name="agrave" unicode="&#xe0;" horiz-adv-x="1109" 
d="M679 550c-63.333 0 -119.833 -3.99902 -169.5 -11.999s-91.667 -21.167 -126 -39.5s-60.666 -42.166 -78.999 -71.499s-27.5 -65.333 -27.5 -108c0 -30 4.66699 -56.833 14 -80.5s22.166 -43.834 38.499 -60.501s36 -29.334 59 -38.001s48.167 -13 75.5 -13
c36 0 73.167 8.33301 111.5 25s73 39 104 67s56.5 60 76.5 96s30 73.333 30 112v123h-107zM952 0.000976562h-153.003l-13 142l-3 1c-18 -24.667 -39.833 -47.334 -65.5 -68.001s-53.667 -38.667 -84 -54s-62.166 -27.333 -95.499 -36s-66.666 -13 -99.999 -13
c-49.333 0 -94.666 7.66699 -135.999 23s-76.833 37 -106.5 65s-52.834 61.333 -69.501 100s-25 81.667 -25 129c0 76.667 15 140.834 45 192.501s71.5 93.334 124.5 125.001s115.833 54.334 188.5 68.001s151.334 20.5 236.001 20.5h91c0 48.667 -5.5 91.5 -16.5 128.5
s-28.167 68 -51.5 93s-53.166 44 -89.499 57s-79.5 19.5 -129.5 19.5c-20 0 -42.5 -1.5 -67.5 -4.5s-51.167 -7.5 -78.5 -13.5s-55 -13.333 -83 -22s-54.333 -18.334 -79 -29.001l-32 139c65.333 29.333 128.166 50.833 188.499 64.5s117.5 20.5 171.5 20.5
c62.667 0 120.5 -7.66699 173.5 -23s98.833 -41.5 137.5 -78.5s68.667 -86.333 90 -148s32 -138.834 32 -231.501v-667zM515.997 1288l-294 317l147 93l257 -340z" />
    <glyph glyph-name="aacute" unicode="&#xe1;" horiz-adv-x="1109" 
d="M679 550c-63.333 0 -119.833 -3.99902 -169.5 -11.999s-91.667 -21.167 -126 -39.5s-60.666 -42.166 -78.999 -71.499s-27.5 -65.333 -27.5 -108c0 -30 4.66699 -56.833 14 -80.5s22.166 -43.834 38.499 -60.501s36 -29.334 59 -38.001s48.167 -13 75.5 -13
c36 0 73.167 8.33301 111.5 25s73 39 104 67s56.5 60 76.5 96s30 73.333 30 112v123h-107zM952 0.000976562h-153.003l-13 142l-3 1c-18 -24.667 -39.833 -47.334 -65.5 -68.001s-53.667 -38.667 -84 -54s-62.166 -27.333 -95.499 -36s-66.666 -13 -99.999 -13
c-49.333 0 -94.666 7.66699 -135.999 23s-76.833 37 -106.5 65s-52.834 61.333 -69.501 100s-25 81.667 -25 129c0 76.667 15 140.834 45 192.501s71.5 93.334 124.5 125.001s115.833 54.334 188.5 68.001s151.334 20.5 236.001 20.5h91c0 48.667 -5.5 91.5 -16.5 128.5
s-28.167 68 -51.5 93s-53.166 44 -89.499 57s-79.5 19.5 -129.5 19.5c-20 0 -42.5 -1.5 -67.5 -4.5s-51.167 -7.5 -78.5 -13.5s-55 -13.333 -83 -22s-54.333 -18.334 -79 -29.001l-32 139c65.333 29.333 128.166 50.833 188.499 64.5s117.5 20.5 171.5 20.5
c62.667 0 120.5 -7.66699 173.5 -23s98.833 -41.5 137.5 -78.5s68.667 -86.333 90 -148s32 -138.834 32 -231.501v-667zM538.997 1293l-107 75l257 343l147 -96z" />
    <glyph glyph-name="acircumflex" unicode="&#xe2;" horiz-adv-x="1109" 
d="M679 550c-63.333 0 -119.833 -3.99902 -169.5 -11.999s-91.667 -21.167 -126 -39.5s-60.666 -42.166 -78.999 -71.499s-27.5 -65.333 -27.5 -108c0 -30 4.66699 -56.833 14 -80.5s22.166 -43.834 38.499 -60.501s36 -29.334 59 -38.001s48.167 -13 75.5 -13
c36 0 73.167 8.33301 111.5 25s73 39 104 67s56.5 60 76.5 96s30 73.333 30 112v123h-107zM952 0.000976562h-153.003l-13 142l-3 1c-18 -24.667 -39.833 -47.334 -65.5 -68.001s-53.667 -38.667 -84 -54s-62.166 -27.333 -95.499 -36s-66.666 -13 -99.999 -13
c-49.333 0 -94.666 7.66699 -135.999 23s-76.833 37 -106.5 65s-52.834 61.333 -69.501 100s-25 81.667 -25 129c0 76.667 15 140.834 45 192.501s71.5 93.334 124.5 125.001s115.833 54.334 188.5 68.001s151.334 20.5 236.001 20.5h91c0 48.667 -5.5 91.5 -16.5 128.5
s-28.167 68 -51.5 93s-53.166 44 -89.499 57s-79.5 19.5 -129.5 19.5c-20 0 -42.5 -1.5 -67.5 -4.5s-51.167 -7.5 -78.5 -13.5s-55 -13.333 -83 -22s-54.333 -18.334 -79 -29.001l-32 139c65.333 29.333 128.166 50.833 188.499 64.5s117.5 20.5 171.5 20.5
c62.667 0 120.5 -7.66699 173.5 -23s98.833 -41.5 137.5 -78.5s68.667 -86.333 90 -148s32 -138.834 32 -231.501v-667zM755.997 1296l-232 185l-219 -185l-101 92l329 296l324 -293z" />
    <glyph glyph-name="atilde" unicode="&#xe3;" horiz-adv-x="1109" 
d="M679 550c-63.333 0 -119.833 -3.99902 -169.5 -11.999s-91.667 -21.167 -126 -39.5s-60.666 -42.166 -78.999 -71.499s-27.5 -65.333 -27.5 -108c0 -30 4.66699 -56.833 14 -80.5s22.166 -43.834 38.499 -60.501s36 -29.334 59 -38.001s48.167 -13 75.5 -13
c36 0 73.167 8.33301 111.5 25s73 39 104 67s56.5 60 76.5 96s30 73.333 30 112v123h-107zM952 0.000976562h-153.003l-13 142l-3 1c-18 -24.667 -39.833 -47.334 -65.5 -68.001s-53.667 -38.667 -84 -54s-62.166 -27.333 -95.499 -36s-66.666 -13 -99.999 -13
c-49.333 0 -94.666 7.66699 -135.999 23s-76.833 37 -106.5 65s-52.834 61.333 -69.501 100s-25 81.667 -25 129c0 76.667 15 140.834 45 192.501s71.5 93.334 124.5 125.001s115.833 54.334 188.5 68.001s151.334 20.5 236.001 20.5h91c0 48.667 -5.5 91.5 -16.5 128.5
s-28.167 68 -51.5 93s-53.166 44 -89.499 57s-79.5 19.5 -129.5 19.5c-20 0 -42.5 -1.5 -67.5 -4.5s-51.167 -7.5 -78.5 -13.5s-55 -13.333 -83 -22s-54.333 -18.334 -79 -29.001l-32 139c65.333 29.333 128.166 50.833 188.499 64.5s117.5 20.5 171.5 20.5
c62.667 0 120.5 -7.66699 173.5 -23s98.833 -41.5 137.5 -78.5s68.667 -86.333 90 -148s32 -138.834 32 -231.501v-667zM678.997 1343c-24.667 0 -46.5068 3.32812 -65.5068 9.99512s-36.167 14.834 -51.5 24.501s-29.166 20.334 -41.499 32.001s-24.333 22.334 -36 32.001
s-23.334 17.834 -35.001 24.501s-24.167 10 -37.5 10c-14 0 -26.333 -3.33301 -37 -10s-20.167 -15 -28.5 -25s-16.166 -21.333 -23.499 -34l-22 -37l-93 63c9.33301 20.667 21 41.667 35 63s30.167 40.5 48.5 57.5s39 31 62 42s48.167 16.5 75.5 16.5
c22.667 0 42.834 -3.33301 60.501 -10s33.834 -15 48.501 -25s28.334 -20.667 41.001 -32l37.5 -32c12.333 -10 25 -18.333 38 -25s27.167 -10 42.5 -10c12.667 0 24.334 3.66699 35.001 11s20.334 16.5 29.001 27.5s16.334 23.333 23.001 37s12.667 26.834 18 39.501
l95 -59c-22.667 -60.667 -51.667 -107.667 -87 -141s-79 -50 -131 -50z" />
    <glyph glyph-name="adieresis" unicode="&#xe4;" horiz-adv-x="1109" 
d="M679 550c-63.333 0 -119.833 -3.99902 -169.5 -11.999s-91.667 -21.167 -126 -39.5s-60.666 -42.166 -78.999 -71.499s-27.5 -65.333 -27.5 -108c0 -30 4.66699 -56.833 14 -80.5s22.166 -43.834 38.499 -60.501s36 -29.334 59 -38.001s48.167 -13 75.5 -13
c36 0 73.167 8.33301 111.5 25s73 39 104 67s56.5 60 76.5 96s30 73.333 30 112v123h-107zM952 0.000976562h-153.003l-13 142l-3 1c-18 -24.667 -39.833 -47.334 -65.5 -68.001s-53.667 -38.667 -84 -54s-62.166 -27.333 -95.499 -36s-66.666 -13 -99.999 -13
c-49.333 0 -94.666 7.66699 -135.999 23s-76.833 37 -106.5 65s-52.834 61.333 -69.501 100s-25 81.667 -25 129c0 76.667 15 140.834 45 192.501s71.5 93.334 124.5 125.001s115.833 54.334 188.5 68.001s151.334 20.5 236.001 20.5h91c0 48.667 -5.5 91.5 -16.5 128.5
s-28.167 68 -51.5 93s-53.166 44 -89.499 57s-79.5 19.5 -129.5 19.5c-20 0 -42.5 -1.5 -67.5 -4.5s-51.167 -7.5 -78.5 -13.5s-55 -13.333 -83 -22s-54.333 -18.334 -79 -29.001l-32 139c65.333 29.333 128.166 50.833 188.499 64.5s117.5 20.5 171.5 20.5
c62.667 0 120.5 -7.66699 173.5 -23s98.833 -41.5 137.5 -78.5s68.667 -86.333 90 -148s32 -138.834 32 -231.501v-667zM249.997 1489c0 38.667 7.5 67 22.5 85s38.833 27 71.5 27c32 0 55.833 -9 71.5 -27s23.5 -46.333 23.5 -85c0 -39.333 -7.83301 -67.666 -23.5 -84.999
s-39.5 -26 -71.5 -26c-32.667 0 -56.5 8.66699 -71.5 26s-22.5 45.666 -22.5 84.999zM651.997 1489c0 38.667 7.5 67 22.5 85s38.833 27 71.5 27c32 0 55.667 -9 71 -27s23 -46.333 23 -85c0 -39.333 -7.66699 -67.666 -23 -84.999s-39 -26 -71 -26
c-32.667 0 -56.5 8.66699 -71.5 26s-22.5 45.666 -22.5 84.999z" />
    <glyph glyph-name="aring" unicode="&#xe5;" horiz-adv-x="1109" 
d="M679 550c-63.333 0 -119.833 -3.99902 -169.5 -11.999s-91.667 -21.167 -126 -39.5s-60.666 -42.166 -78.999 -71.499s-27.5 -65.333 -27.5 -108c0 -30 4.66699 -56.833 14 -80.5s22.166 -43.834 38.499 -60.501s36 -29.334 59 -38.001s48.167 -13 75.5 -13
c36 0 73.167 8.33301 111.5 25s73 39 104 67s56.5 60 76.5 96s30 73.333 30 112v123h-107zM952 0.000976562h-153.003l-13 142l-3 1c-18 -24.667 -39.833 -47.334 -65.5 -68.001s-53.667 -38.667 -84 -54s-62.166 -27.333 -95.499 -36s-66.666 -13 -99.999 -13
c-49.333 0 -94.666 7.66699 -135.999 23s-76.833 37 -106.5 65s-52.834 61.333 -69.501 100s-25 81.667 -25 129c0 76.667 15 140.834 45 192.501s71.5 93.334 124.5 125.001s115.833 54.334 188.5 68.001s151.334 20.5 236.001 20.5h91c0 48.667 -5.5 91.5 -16.5 128.5
s-28.167 68 -51.5 93s-53.166 44 -89.499 57s-79.5 19.5 -129.5 19.5c-20 0 -42.5 -1.5 -67.5 -4.5s-51.167 -7.5 -78.5 -13.5s-55 -13.333 -83 -22s-54.333 -18.334 -79 -29.001l-32 139c65.333 29.333 128.166 50.833 188.499 64.5s117.5 20.5 171.5 20.5
c62.667 0 120.5 -7.66699 173.5 -23s98.833 -41.5 137.5 -78.5s68.667 -86.333 90 -148s32 -138.834 32 -231.501v-667zM452.997 1479c0 -35.333 9.83105 -61.5 29.498 -78.5s43.5 -25.5 71.5 -25.5c27.333 0 49.5 8.33301 66.5 25s25.5 40 25.5 70
c0 12 -2.16699 24 -6.5 36s-10.666 22.667 -18.999 32s-18.5 16.833 -30.5 22.5s-25.667 8.5 -41 8.5c-29.333 0 -52.666 -8.5 -69.999 -25.5s-26 -38.5 -26 -64.5zM341.995 1470c0 27.333 4.99902 53.668 14.999 79.001s24.167 47.666 42.5 66.999
s40.666 34.833 66.999 46.5s55.5 17.5 87.5 17.5c34.667 0 64.667 -5.83301 90 -17.5s46.333 -27 63 -46s29 -40.5 37 -64.5s12 -48.333 12 -73c0 -32 -5 -61.333 -15 -88s-24.167 -49.5 -42.5 -68.5s-40.166 -33.667 -65.499 -44s-53 -15.5 -83 -15.5
s-57.833 5.16699 -83.5 15.5s-47.667 24.833 -66 43.5s-32.666 40.5 -42.999 65.5s-15.5 52.5 -15.5 82.5z" />
    <glyph glyph-name="ae" unicode="&#xe6;" horiz-adv-x="1798" 
d="M1673 68c-58 -31.333 -124.67 -55.1699 -200.003 -71.5029s-155.666 -24.5 -240.999 -24.5c-45.333 0 -88.666 6.16699 -129.999 18.5s-79.5 29.5 -114.5 51.5s-65.667 48.167 -92 78.5s-46.5 63.5 -60.5 99.5c-24 -44 -52.167 -81.667 -84.5 -113
s-66.166 -57 -101.499 -77s-71.166 -34.667 -107.499 -44s-70.833 -14 -103.5 -14c-50 0 -95.833 7.66699 -137.5 23s-77.167 37 -106.5 65s-52.166 61.333 -68.499 100s-24.5 81.667 -24.5 129c0 76.667 15.167 140.834 45.5 192.501s72.166 93.334 125.499 125.001
s116.166 54.334 188.499 68.001s150.5 20.5 234.5 20.5h91c0 48.667 -5.5 91.5 -16.5 128.5s-28.167 68 -51.5 93s-53 44 -89 57s-79 19.5 -129 19.5c-20 0 -42.667 -1.5 -68 -4.5s-51.666 -7.5 -78.999 -13.5s-55 -13.333 -83 -22s-54.333 -18.334 -79 -29.001l-32 139
c65.333 29.333 128.166 50.833 188.499 64.5s117.5 20.5 171.5 20.5c40.667 0 79.5 -3 116.5 -9s71.167 -15.833 102.5 -29.5s59.666 -31.667 84.999 -54s47 -49.5 65 -81.5c44 56.667 97.5 99.834 160.5 129.501s131.833 44.5 206.5 44.5c60.667 0 117.834 -10 171.501 -30
s100.834 -52.167 141.501 -96.5s72.834 -101.833 96.501 -172.5s35.5 -156.334 35.5 -257.001v-76h-755c3.33301 -62 11.666 -117.167 24.999 -165.5s32.5 -89.166 57.5 -122.499s56.167 -58.666 93.5 -75.999s81.333 -26 132 -26c30.667 0 62.5 1.5 95.5 4.5
s65.833 7.83301 98.5 14.5s64.667 14.667 96 24s60.666 20.666 87.999 33.999zM678.997 549.996c-62.667 0 -118.832 -3.99902 -168.499 -11.999s-91.834 -21.167 -126.501 -39.5s-61.167 -42.166 -79.5 -71.499s-27.5 -65.333 -27.5 -108c0 -30 4.66699 -56.833 14 -80.5
s22.166 -43.834 38.499 -60.501s36 -29.334 59 -38.001s48.167 -13 75.5 -13c42 0 82.333 8.66699 121 26s72.834 42 102.501 74s53.5 70.167 71.5 114.5s27 93.5 27 147.5v61h-107zM1524 660.997c-4 54 -11.832 101.501 -23.499 142.501s-28.834 75.5 -51.501 103.5
s-51.5 49.167 -86.5 63.5s-77.833 21.5 -128.5 21.5c-43.333 0 -81.833 -8.33301 -115.5 -25s-62.5 -39.834 -86.5 -69.501s-43 -64.667 -57 -105s-22.333 -84.5 -25 -132.5z" />
    <glyph glyph-name="ccedilla" unicode="&#xe7;" horiz-adv-x="1014" 
d="M890 928c-37.333 20 -80.502 35.8301 -129.502 47.4971s-97.5 17.5 -145.5 17.5c-42 0 -82.5 -8.16699 -121.5 -24.5s-73.667 -41.666 -104 -75.999s-54.666 -77.833 -72.999 -130.5s-27.5 -115 -27.5 -187c0 -65.333 7.5 -125.5 22.5 -180.5s37 -102.333 66 -142
s65 -70.5 108 -92.5s92.833 -33 149.5 -33c22 0 45 1.66699 69 5s48 8 72 14s47.167 13.167 69.5 21.5s42.5 17.5 60.5 27.5l51 -131c-20.667 -13.333 -44.5 -25.666 -71.5 -36.999s-55.667 -21 -86 -29s-61.333 -14.333 -93 -19s-62.167 -7 -91.5 -7
c-59.333 0 -113.166 7.16699 -161.499 21.5s-91 34.5 -128 60.5s-69 56.667 -96 92s-49.167 74.333 -66.5 117s-30.166 87.834 -38.499 135.501s-12.5 96.5 -12.5 146.5c0 100 13.333 187.5 40 262.5s63.5 137.833 110.5 188.5s102.333 88.667 166 114s132.5 38 206.5 38
c27.333 0 54.666 -1.83301 81.999 -5.5s54 -9 80 -16s51 -15.833 75 -26.5s46.667 -23 68 -37zM386.998 -485.003c15.333 22.667 30 45.834 44 69.501s26.167 48.667 36.5 75s18.5 54.166 24.5 83.499s9 61.333 9 96h173c0 -40 -5.16699 -77.5 -15.5 -112.5
s-24.333 -68.5 -42 -100.5s-37.667 -62.5 -60 -91.5s-45.5 -56.833 -69.5 -83.5z" />
    <glyph glyph-name="egrave" unicode="&#xe8;" horiz-adv-x="1144" 
d="M993 68c-56 -31.333 -120.499 -55.165 -193.499 -71.498s-150.833 -24.5 -233.5 -24.5c-70 0 -133.167 13.833 -189.5 41.5s-104.166 66.5 -143.499 116.5s-69.5 110.167 -90.5 180.5s-31.5 148.5 -31.5 234.5c0 96.667 12 182.334 36 257.001s57.167 137.667 99.5 189
s92.666 90.333 150.999 117s121.5 40 189.5 40c76.667 0 142.167 -14.167 196.5 -42.5s99 -67.333 134 -117s60.667 -108.334 77 -176.001s24.5 -140.834 24.5 -219.501v-77h-731c3.33301 -60 11.5 -114.167 24.5 -162.5s31.5 -89.333 55.5 -123s54.167 -59.5 90.5 -77.5
s79.166 -27 128.499 -27c30 0 60.833 1.5 92.5 4.5s63.167 7.83301 94.5 14.5s62 14.667 92 24s58.333 20.666 85 33.999zM844.001 660.001c-4 54 -11.667 101.667 -23 143s-27.833 76 -49.5 104s-49.167 49.167 -82.5 63.5s-74 21.5 -122 21.5c-42 0 -79 -8 -111 -24
s-59.167 -38.5 -81.5 -67.5s-40.333 -64 -54 -105s-23.167 -86.167 -28.5 -135.5h552zM566.001 1288l-294 317l147 93l257 -340z" />
    <glyph glyph-name="eacute" unicode="&#xe9;" horiz-adv-x="1144" 
d="M993 68c-56 -31.333 -120.499 -55.165 -193.499 -71.498s-150.833 -24.5 -233.5 -24.5c-70 0 -133.167 13.833 -189.5 41.5s-104.166 66.5 -143.499 116.5s-69.5 110.167 -90.5 180.5s-31.5 148.5 -31.5 234.5c0 96.667 12 182.334 36 257.001s57.167 137.667 99.5 189
s92.666 90.333 150.999 117s121.5 40 189.5 40c76.667 0 142.167 -14.167 196.5 -42.5s99 -67.333 134 -117s60.667 -108.334 77 -176.001s24.5 -140.834 24.5 -219.501v-77h-731c3.33301 -60 11.5 -114.167 24.5 -162.5s31.5 -89.333 55.5 -123s54.167 -59.5 90.5 -77.5
s79.166 -27 128.499 -27c30 0 60.833 1.5 92.5 4.5s63.167 7.83301 94.5 14.5s62 14.667 92 24s58.333 20.666 85 33.999zM844.001 660.001c-4 54 -11.667 101.667 -23 143s-27.833 76 -49.5 104s-49.167 49.167 -82.5 63.5s-74 21.5 -122 21.5c-42 0 -79 -8 -111 -24
s-59.167 -38.5 -81.5 -67.5s-40.333 -64 -54 -105s-23.167 -86.167 -28.5 -135.5h552zM620.001 1293l-107 75l257 343l147 -96z" />
    <glyph glyph-name="ecircumflex" unicode="&#xea;" horiz-adv-x="1144" 
d="M993 68c-56 -31.333 -120.499 -55.165 -193.499 -71.498s-150.833 -24.5 -233.5 -24.5c-70 0 -133.167 13.833 -189.5 41.5s-104.166 66.5 -143.499 116.5s-69.5 110.167 -90.5 180.5s-31.5 148.5 -31.5 234.5c0 96.667 12 182.334 36 257.001s57.167 137.667 99.5 189
s92.666 90.333 150.999 117s121.5 40 189.5 40c76.667 0 142.167 -14.167 196.5 -42.5s99 -67.333 134 -117s60.667 -108.334 77 -176.001s24.5 -140.834 24.5 -219.501v-77h-731c3.33301 -60 11.5 -114.167 24.5 -162.5s31.5 -89.333 55.5 -123s54.167 -59.5 90.5 -77.5
s79.166 -27 128.499 -27c30 0 60.833 1.5 92.5 4.5s63.167 7.83301 94.5 14.5s62 14.667 92 24s58.333 20.666 85 33.999zM844.001 660.001c-4 54 -11.667 101.667 -23 143s-27.833 76 -49.5 104s-49.167 49.167 -82.5 63.5s-74 21.5 -122 21.5c-42 0 -79 -8 -111 -24
s-59.167 -38.5 -81.5 -67.5s-40.333 -64 -54 -105s-23.167 -86.167 -28.5 -135.5h552zM858.001 1296l-232 185l-219 -185l-101 92l329 296l324 -293z" />
    <glyph glyph-name="edieresis" unicode="&#xeb;" horiz-adv-x="1144" 
d="M993 68c-56 -31.333 -120.499 -55.165 -193.499 -71.498s-150.833 -24.5 -233.5 -24.5c-70 0 -133.167 13.833 -189.5 41.5s-104.166 66.5 -143.499 116.5s-69.5 110.167 -90.5 180.5s-31.5 148.5 -31.5 234.5c0 96.667 12 182.334 36 257.001s57.167 137.667 99.5 189
s92.666 90.333 150.999 117s121.5 40 189.5 40c76.667 0 142.167 -14.167 196.5 -42.5s99 -67.333 134 -117s60.667 -108.334 77 -176.001s24.5 -140.834 24.5 -219.501v-77h-731c3.33301 -60 11.5 -114.167 24.5 -162.5s31.5 -89.333 55.5 -123s54.167 -59.5 90.5 -77.5
s79.166 -27 128.499 -27c30 0 60.833 1.5 92.5 4.5s63.167 7.83301 94.5 14.5s62 14.667 92 24s58.333 20.666 85 33.999zM844.001 660.001c-4 54 -11.667 101.667 -23 143s-27.833 76 -49.5 104s-49.167 49.167 -82.5 63.5s-74 21.5 -122 21.5c-42 0 -79 -8 -111 -24
s-59.167 -38.5 -81.5 -67.5s-40.333 -64 -54 -105s-23.167 -86.167 -28.5 -135.5h552zM313.001 1489c0 38.667 7.5 67 22.5 85s38.833 27 71.5 27c32 0 55.833 -9 71.5 -27s23.5 -46.333 23.5 -85c0 -39.333 -7.83301 -67.666 -23.5 -84.999s-39.5 -26 -71.5 -26
c-32.667 0 -56.5 8.66699 -71.5 26s-22.5 45.666 -22.5 84.999zM715.001 1489c0 38.667 7.5 67 22.5 85s38.833 27 71.5 27c32 0 55.667 -9 71 -27s23 -46.333 23 -85c0 -39.333 -7.66699 -67.666 -23 -84.999s-39 -26 -71 -26c-32.667 0 -56.5 8.66699 -71.5 26
s-22.5 45.666 -22.5 84.999z" />
    <glyph glyph-name="igrave" unicode="&#xec;" horiz-adv-x="495" 
d="M228 1288l-294 317l147 93l257 -340zM165 1120h165v-1120h-165v1120z" />
    <glyph glyph-name="iacute" unicode="&#xed;" horiz-adv-x="495" 
d="M269 1293l-107 75l257 343l147 -96zM165 1120h165v-1120h-165v1120z" />
    <glyph glyph-name="icircumflex" unicode="&#xee;" horiz-adv-x="495" 
d="M165 1120h165v-1120h-165v1120zM474 1296l-232 185l-219 -185l-101 92l329 296l324 -293z" />
    <glyph glyph-name="idieresis" unicode="&#xef;" horiz-adv-x="495" 
d="M-43 1489c0 38.667 7.5 67 22.5 85s38.833 27 71.5 27c32 0 55.833 -9 71.5 -27s23.5 -46.333 23.5 -85c0 -39.333 -7.83301 -67.666 -23.5 -84.999s-39.5 -26 -71.5 -26c-32.667 0 -56.5 8.66699 -71.5 26s-22.5 45.666 -22.5 84.999zM359 1489c0 38.667 7.5 67 22.5 85
s38.833 27 71.5 27c32 0 55.667 -9 71 -27s23 -46.333 23 -85c0 -39.333 -7.66699 -67.666 -23 -84.999s-39 -26 -71 -26c-32.667 0 -56.5 8.66699 -71.5 26s-22.5 45.666 -22.5 84.999zM165 1120h165v-1120h-165v1120z" />
    <glyph glyph-name="eth" unicode="&#xf0;" horiz-adv-x="1186" 
d="M800 916c-27.333 10 -56.3301 17.8291 -86.9971 23.4961s-60 8.5 -88 8.5c-64 0 -117.5 -9.83301 -160.5 -29.5s-77.667 -46.334 -104 -80.001s-45 -73.167 -56 -118.5s-16.5 -93.666 -16.5 -144.999c0 -71.333 6.16699 -134.666 18.5 -189.999
s31.166 -102.166 56.499 -140.499s57.833 -67.5 97.5 -87.5s87.167 -30 142.5 -30c57.333 0 105 11.667 143 35s68.167 54.333 90.5 93s38.166 83.334 47.499 134.001s14 103 14 157c0 34 -1.66699 68.167 -5 102.5s-8.83301 67.5 -16.5 99.5s-17.834 62.333 -30.501 91
s-28 54.334 -46 77.001zM708.003 1344c62 -62 116 -125.833 162 -191.5s84.167 -131.5 114.5 -197.5s53.166 -131 68.499 -195s23 -125.333 23 -184c0 -84.667 -9.33301 -163.834 -28 -237.501s-47.834 -137.667 -87.501 -192s-90.667 -97 -153 -128
s-137.166 -46.5 -224.499 -46.5c-84 0 -155.833 15.667 -215.5 47s-108.5 73.5 -146.5 126.5s-65.833 114 -83.5 183s-26.5 141.167 -26.5 216.5c0 66.667 8.5 133 25.5 199s44.333 125.5 82 178.5s86.667 96 147 129s133.833 49.5 220.5 49.5
c8.66699 0 19.167 -0.333008 31.5 -1s25 -1.66699 38 -3s25.667 -2.83301 38 -4.5s22.833 -3.5 31.5 -5.5l-36.5 52.5c-12.333 17 -25 33.333 -38 49s-26.333 30.5 -40 44.5s-27.834 27.667 -42.501 41l-229 -110l-66 103l198 98c-6 6.66699 -15.167 14.5 -27.5 23.5
s-25.666 18.167 -39.999 27.5s-28.333 18 -42 26l-34.5 20l98 105c11.333 -6 25.333 -14.167 42 -24.5s33.834 -21.666 51.501 -33.999s34.5 -24.833 50.5 -37.5s29 -23.667 39 -33l222 107l66 -109z" />
    <glyph glyph-name="ntilde" unicode="&#xf1;" horiz-adv-x="1198" 
d="M875 0l0.00195312 663.998c0 44.667 -3.5 87 -10.5 127s-19.667 74.833 -38 104.5s-43 53.167 -74 70.5s-70.5 26 -118.5 26c-36 0 -70 -6.16699 -102 -18.5s-61.167 -28.666 -87.5 -48.999s-49.333 -44.166 -69 -71.499s-34.834 -56 -45.501 -86v-767h-165v1120h132
l23 -136c14.667 22 33.167 42.833 55.5 62.5s47.666 37 75.999 52s59.5 27 93.5 36s70.333 13.5 109 13.5c70 0 129.667 -11 179 -33s89.333 -53 120 -93s53 -87.833 67 -143.5s21 -117.167 21 -184.5v-694h-166zM726.002 1343c-24.667 0 -46.5068 3.32812 -65.5068 9.99512
s-36.167 14.834 -51.5 24.501s-29.166 20.334 -41.499 32.001s-24.333 22.334 -36 32.001s-23.334 17.834 -35.001 24.501s-24.167 10 -37.5 10c-14 0 -26.333 -3.33301 -37 -10s-20.167 -15 -28.5 -25s-16.166 -21.333 -23.499 -34l-22 -37l-93 63
c9.33301 20.667 21 41.667 35 63s30.167 40.5 48.5 57.5s39 31 62 42s48.167 16.5 75.5 16.5c22.667 0 42.834 -3.33301 60.501 -10s33.834 -15 48.501 -25s28.334 -20.667 41.001 -32l37.5 -32c12.333 -10 25 -18.333 38 -25s27.167 -10 42.5 -10
c12.667 0 24.334 3.66699 35.001 11s20.334 16.5 29.001 27.5s16.334 23.333 23.001 37s12.667 26.834 18 39.501l95 -59c-22.667 -60.667 -51.667 -107.667 -87 -141s-79 -50 -131 -50z" />
    <glyph glyph-name="ograve" unicode="&#xf2;" horiz-adv-x="1185" 
d="M583 993c-42.667 0 -81.999 -8.16699 -117.999 -24.5s-67.167 -41.666 -93.5 -75.999s-46.833 -77.833 -61.5 -130.5s-22 -115 -22 -187c0 -80 7.16699 -148.333 21.5 -205s35.166 -103 62.499 -139s60.333 -62.333 99 -79s82.667 -25 132 -25
c42.667 0 82 8.16699 118 24.5s67 41.666 93 75.999s46.333 77.833 61 130.5s22 115 22 187c0 80 -7.16699 148.333 -21.5 205s-35 103 -62 139s-60 62.333 -99 79s-82.833 25 -131.5 25zM603.001 1148c66.667 0 128.833 -11.998 186.5 -35.998s107.5 -60 149.5 -108
s75 -107.833 99 -179.5s36 -154.834 36 -249.501c0 -100 -11.667 -187.5 -35 -262.5s-56.5 -137.833 -99.5 -188.5s-94.667 -88.667 -155 -114s-127.5 -38 -201.5 -38c-67.333 0 -129.833 12 -187.5 36s-107.5 60 -149.5 108s-75 107.667 -99 179s-36 154.666 -36 249.999
c0 100 11.667 187.5 35 262.5s56.5 137.833 99.5 188.5s94.833 88.667 155.5 114s128 38 202 38zM551 1288l-294 317l147 93l257 -340z" />
    <glyph glyph-name="oacute" unicode="&#xf3;" horiz-adv-x="1185" 
d="M583 993c-42.667 0 -81.999 -8.16699 -117.999 -24.5s-67.167 -41.666 -93.5 -75.999s-46.833 -77.833 -61.5 -130.5s-22 -115 -22 -187c0 -80 7.16699 -148.333 21.5 -205s35.166 -103 62.499 -139s60.333 -62.333 99 -79s82.667 -25 132 -25
c42.667 0 82 8.16699 118 24.5s67 41.666 93 75.999s46.333 77.833 61 130.5s22 115 22 187c0 80 -7.16699 148.333 -21.5 205s-35 103 -62 139s-60 62.333 -99 79s-82.833 25 -131.5 25zM603.001 1148c66.667 0 128.833 -11.998 186.5 -35.998s107.5 -60 149.5 -108
s75 -107.833 99 -179.5s36 -154.834 36 -249.501c0 -100 -11.667 -187.5 -35 -262.5s-56.5 -137.833 -99.5 -188.5s-94.667 -88.667 -155 -114s-127.5 -38 -201.5 -38c-67.333 0 -129.833 12 -187.5 36s-107.5 60 -149.5 108s-75 107.667 -99 179s-36 154.666 -36 249.999
c0 100 11.667 187.5 35 262.5s56.5 137.833 99.5 188.5s94.833 88.667 155.5 114s128 38 202 38zM614 1293l-107 75l257 343l147 -96z" />
    <glyph glyph-name="ocircumflex" unicode="&#xf4;" horiz-adv-x="1185" 
d="M583 993c-42.667 0 -81.999 -8.16699 -117.999 -24.5s-67.167 -41.666 -93.5 -75.999s-46.833 -77.833 -61.5 -130.5s-22 -115 -22 -187c0 -80 7.16699 -148.333 21.5 -205s35.166 -103 62.499 -139s60.333 -62.333 99 -79s82.667 -25 132 -25
c42.667 0 82 8.16699 118 24.5s67 41.666 93 75.999s46.333 77.833 61 130.5s22 115 22 187c0 80 -7.16699 148.333 -21.5 205s-35 103 -62 139s-60 62.333 -99 79s-82.833 25 -131.5 25zM603.001 1148c66.667 0 128.833 -11.998 186.5 -35.998s107.5 -60 149.5 -108
s75 -107.833 99 -179.5s36 -154.834 36 -249.501c0 -100 -11.667 -187.5 -35 -262.5s-56.5 -137.833 -99.5 -188.5s-94.667 -88.667 -155 -114s-127.5 -38 -201.5 -38c-67.333 0 -129.833 12 -187.5 36s-107.5 60 -149.5 108s-75 107.667 -99 179s-36 154.666 -36 249.999
c0 100 11.667 187.5 35 262.5s56.5 137.833 99.5 188.5s94.833 88.667 155.5 114s128 38 202 38zM818 1296l-232 185l-219 -185l-101 92l329 296l324 -293z" />
    <glyph glyph-name="otilde" unicode="&#xf5;" horiz-adv-x="1185" 
d="M583 993c-42.667 0 -81.999 -8.16699 -117.999 -24.5s-67.167 -41.666 -93.5 -75.999s-46.833 -77.833 -61.5 -130.5s-22 -115 -22 -187c0 -80 7.16699 -148.333 21.5 -205s35.166 -103 62.499 -139s60.333 -62.333 99 -79s82.667 -25 132 -25
c42.667 0 82 8.16699 118 24.5s67 41.666 93 75.999s46.333 77.833 61 130.5s22 115 22 187c0 80 -7.16699 148.333 -21.5 205s-35 103 -62 139s-60 62.333 -99 79s-82.833 25 -131.5 25zM603.001 1148c66.667 0 128.833 -11.998 186.5 -35.998s107.5 -60 149.5 -108
s75 -107.833 99 -179.5s36 -154.834 36 -249.501c0 -100 -11.667 -187.5 -35 -262.5s-56.5 -137.833 -99.5 -188.5s-94.667 -88.667 -155 -114s-127.5 -38 -201.5 -38c-67.333 0 -129.833 12 -187.5 36s-107.5 60 -149.5 108s-75 107.667 -99 179s-36 154.666 -36 249.999
c0 100 11.667 187.5 35 262.5s56.5 137.833 99.5 188.5s94.833 88.667 155.5 114s128 38 202 38zM720 1343c-24.667 0 -46.5068 3.32812 -65.5068 9.99512s-36.167 14.834 -51.5 24.501s-29.166 20.334 -41.499 32.001s-24.333 22.334 -36 32.001
s-23.334 17.834 -35.001 24.501s-24.167 10 -37.5 10c-14 0 -26.333 -3.33301 -37 -10s-20.167 -15 -28.5 -25s-16.166 -21.333 -23.499 -34l-22 -37l-93 63c9.33301 20.667 21 41.667 35 63s30.167 40.5 48.5 57.5s39 31 62 42s48.167 16.5 75.5 16.5
c22.667 0 42.834 -3.33301 60.501 -10s33.834 -15 48.501 -25s28.334 -20.667 41.001 -32l37.5 -32c12.333 -10 25 -18.333 38 -25s27.167 -10 42.5 -10c12.667 0 24.334 3.66699 35.001 11s20.334 16.5 29.001 27.5s16.334 23.333 23.001 37s12.667 26.834 18 39.501
l95 -59c-22.667 -60.667 -51.667 -107.667 -87 -141s-79 -50 -131 -50z" />
    <glyph glyph-name="odieresis" unicode="&#xf6;" horiz-adv-x="1185" 
d="M583 993c-42.667 0 -81.999 -8.16699 -117.999 -24.5s-67.167 -41.666 -93.5 -75.999s-46.833 -77.833 -61.5 -130.5s-22 -115 -22 -187c0 -80 7.16699 -148.333 21.5 -205s35.166 -103 62.499 -139s60.333 -62.333 99 -79s82.667 -25 132 -25
c42.667 0 82 8.16699 118 24.5s67 41.666 93 75.999s46.333 77.833 61 130.5s22 115 22 187c0 80 -7.16699 148.333 -21.5 205s-35 103 -62 139s-60 62.333 -99 79s-82.833 25 -131.5 25zM603.001 1148c66.667 0 128.833 -11.998 186.5 -35.998s107.5 -60 149.5 -108
s75 -107.833 99 -179.5s36 -154.834 36 -249.501c0 -100 -11.667 -187.5 -35 -262.5s-56.5 -137.833 -99.5 -188.5s-94.667 -88.667 -155 -114s-127.5 -38 -201.5 -38c-67.333 0 -129.833 12 -187.5 36s-107.5 60 -149.5 108s-75 107.667 -99 179s-36 154.666 -36 249.999
c0 100 11.667 187.5 35 262.5s56.5 137.833 99.5 188.5s94.833 88.667 155.5 114s128 38 202 38zM298 1489c0 38.667 7.5 67 22.5 85s38.833 27 71.5 27c32 0 55.833 -9 71.5 -27s23.5 -46.333 23.5 -85c0 -39.333 -7.83301 -67.666 -23.5 -84.999s-39.5 -26 -71.5 -26
c-32.667 0 -56.5 8.66699 -71.5 26s-22.5 45.666 -22.5 84.999zM700 1489c0 38.667 7.5 67 22.5 85s38.833 27 71.5 27c32 0 55.667 -9 71 -27s23 -46.333 23 -85c0 -39.333 -7.66699 -67.666 -23 -84.999s-39 -26 -71 -26c-32.667 0 -56.5 8.66699 -71.5 26
s-22.5 45.666 -22.5 84.999z" />
    <glyph glyph-name="divide" unicode="&#xf7;" horiz-adv-x="1571" 
d="M682 1084c0 40 8.33301 69 25 87s41.667 27 75 27c32.667 0 57.834 -9 75.501 -27s26.5 -47 26.5 -87s-8.83301 -68.833 -26.5 -86.5s-42.834 -26.5 -75.501 -26.5c-33.333 0 -58.333 8.83301 -75 26.5s-25 46.5 -25 86.5zM686 184c0 40 8.5 69 25.5 87
s41.833 27 74.5 27s57.834 -9 75.501 -27s26.5 -47 26.5 -87s-8.83301 -68.833 -26.5 -86.5s-42.834 -26.5 -75.501 -26.5s-57.5 8.83301 -74.5 26.5s-25.5 46.5 -25.5 86.5zM1305 719v-154h-1040v154h1040z" />
    <glyph glyph-name="oslash" unicode="&#xf8;" horiz-adv-x="1185" 
d="M261 -155l-118.001 65.002l111 197l-8 9c-42 48 -75 107.667 -99 179s-36 154.666 -36 249.999c0 100 11.667 187.5 35 262.5s56.5 137.833 99.5 188.5s94.833 88.667 155.5 114s128 38 202 38c66.667 0 128.667 -12 186 -36l26 -12l115 203l118 -66l-123 -218
c4.66699 -4.66699 9.33398 -9.66699 14.001 -15c42 -48 75 -107.833 99 -179.5s36 -154.834 36 -249.501c0 -100 -11.667 -187.5 -35 -262.5s-56.5 -137.833 -99.5 -188.5s-94.667 -88.667 -155 -114s-127.5 -38 -201.5 -38c-67.333 0 -130 12 -188 36
c-11.333 4.66699 -22.333 9.66699 -33 15zM470.999 152.002c38.667 -16.667 82.668 -24.999 132.001 -24.999c42.667 0 82 8.16699 118 24.5s67 41.666 93 75.999s46.333 77.833 61 130.5s22 115 22 187c0 80 -7.33301 148.333 -22 205
c-10.667 41.333 -24.334 77.333 -41.001 108l-392 -692c9.33301 -5.33301 19 -10 29 -14zM583 993.003c-42.667 0 -81.999 -8.16797 -117.999 -24.501s-67.167 -41.666 -93.5 -75.999s-46.833 -77.833 -61.5 -130.5s-22 -115 -22 -187c0 -80 7 -148.333 21 -205
c10 -38 22.333 -71.333 37 -100l389 688l-21 10c-38.667 16.667 -82.334 25 -131.001 25z" />
    <glyph glyph-name="ugrave" unicode="&#xf9;" horiz-adv-x="1200" 
d="M882 0l-6.99805 120.002c-12.667 -20.667 -30.334 -40 -53.001 -58s-48.5 -33.667 -77.5 -47s-60.333 -23.833 -94 -31.5s-67.834 -11.5 -102.501 -11.5c-64 0 -120.333 8 -169 24s-89.5 41 -122.5 75s-57.833 77.5 -74.5 130.5s-25 116.167 -25 189.5v729h163v-699
c0 -48 4.83301 -90.333 14.5 -127s24.334 -67.334 44.001 -92.001s45 -43.334 76 -56.001s68.167 -19 111.5 -19c32.667 0 64.167 4.5 94.5 13.5s58.666 21.333 84.999 37s50 34.167 71 55.5s38.5 44.333 52.5 69v818h166v-1120h-153zM575.002 1288l-294 317l147 93
l257 -340z" />
    <glyph glyph-name="uacute" unicode="&#xfa;" horiz-adv-x="1200" 
d="M882 0l-6.99805 120.002c-12.667 -20.667 -30.334 -40 -53.001 -58s-48.5 -33.667 -77.5 -47s-60.333 -23.833 -94 -31.5s-67.834 -11.5 -102.501 -11.5c-64 0 -120.333 8 -169 24s-89.5 41 -122.5 75s-57.833 77.5 -74.5 130.5s-25 116.167 -25 189.5v729h163v-699
c0 -48 4.83301 -90.333 14.5 -127s24.334 -67.334 44.001 -92.001s45 -43.334 76 -56.001s68.167 -19 111.5 -19c32.667 0 64.167 4.5 94.5 13.5s58.666 21.333 84.999 37s50 34.167 71 55.5s38.5 44.333 52.5 69v818h166v-1120h-153zM626.002 1293l-107 75l257 343l147 -96
z" />
    <glyph glyph-name="ucircumflex" unicode="&#xfb;" horiz-adv-x="1200" 
d="M882 0l-6.99805 120.002c-12.667 -20.667 -30.334 -40 -53.001 -58s-48.5 -33.667 -77.5 -47s-60.333 -23.833 -94 -31.5s-67.834 -11.5 -102.501 -11.5c-64 0 -120.333 8 -169 24s-89.5 41 -122.5 75s-57.833 77.5 -74.5 130.5s-25 116.167 -25 189.5v729h163v-699
c0 -48 4.83301 -90.333 14.5 -127s24.334 -67.334 44.001 -92.001s45 -43.334 76 -56.001s68.167 -19 111.5 -19c32.667 0 64.167 4.5 94.5 13.5s58.666 21.333 84.999 37s50 34.167 71 55.5s38.5 44.333 52.5 69v818h166v-1120h-153zM824.002 1296l-232 185l-219 -185
l-101 92l329 296l324 -293z" />
    <glyph glyph-name="udieresis" unicode="&#xfc;" horiz-adv-x="1200" 
d="M882 0l-6.99805 120.002c-12.667 -20.667 -30.334 -40 -53.001 -58s-48.5 -33.667 -77.5 -47s-60.333 -23.833 -94 -31.5s-67.834 -11.5 -102.501 -11.5c-64 0 -120.333 8 -169 24s-89.5 41 -122.5 75s-57.833 77.5 -74.5 130.5s-25 116.167 -25 189.5v729h163v-699
c0 -48 4.83301 -90.333 14.5 -127s24.334 -67.334 44.001 -92.001s45 -43.334 76 -56.001s68.167 -19 111.5 -19c32.667 0 64.167 4.5 94.5 13.5s58.666 21.333 84.999 37s50 34.167 71 55.5s38.5 44.333 52.5 69v818h166v-1120h-153zM304.002 1489c0 38.667 7.5 67 22.5 85
s38.833 27 71.5 27c32 0 55.833 -9 71.5 -27s23.5 -46.333 23.5 -85c0 -39.333 -7.83301 -67.666 -23.5 -84.999s-39.5 -26 -71.5 -26c-32.667 0 -56.5 8.66699 -71.5 26s-22.5 45.666 -22.5 84.999zM706.002 1489c0 38.667 7.5 67 22.5 85s38.833 27 71.5 27
c32 0 55.667 -9 71 -27s23 -46.333 23 -85c0 -39.333 -7.66699 -67.666 -23 -84.999s-39 -26 -71 -26c-32.667 0 -56.5 8.66699 -71.5 26s-22.5 45.666 -22.5 84.999z" />
    <glyph glyph-name="yacute" unicode="&#xfd;" horiz-adv-x="1100" 
d="M148 -284c12.667 -4.66699 26.9971 -8.50293 42.9971 -11.5029s29.667 -4.5 41 -4.5c28.667 0 57.5 13.667 86.5 41s57.833 65 86.5 113c20 33.333 40 70.333 60 111l-393 1155h180l224 -673l19 -59c6.66699 -20 12.834 -39.667 18.501 -59l16 -56l13.5 -50
c4 -15.333 7 -29 9 -41c0.666992 -5.33301 1.33398 -10 2.00098 -14c8 20 15.667 40.333 23 61c28 74 55.167 150.667 81.5 230l76.5 236l70 226l62 199h166l-75.5 -248l-82 -262.5c-28.333 -88.333 -58.166 -176 -89.499 -263s-63.833 -170 -97.5 -249
s-68.667 -152.167 -105 -219.5s-74 -125.666 -113 -174.999s-79.5 -88 -121.5 -116s-85.667 -42 -131 -42c-10 0 -20.167 0.666992 -30.5 2s-20.5 3.33301 -30.5 6s-19.667 5.83398 -29 9.50098s-18.333 7.83398 -27 12.501zM629.997 1293l-107 75l257 343l147 -96z" />
    <glyph glyph-name="thorn" unicode="&#xfe;" horiz-adv-x="1177" 
d="M165 1559l165.001 0.00195312v-389c0 -28 -1.33301 -58.667 -4 -92s-6.33398 -64.333 -11.001 -93l4 -1c14 25.333 33.167 48.166 57.5 68.499s51.166 37.5 80.499 51.5s59.333 24.833 90 32.5s59 11.5 85 11.5c74.667 0 139.334 -13 194.001 -39
s99.667 -63.5 135 -112.5s61.666 -108.833 78.999 -179.5s26 -150.334 26 -239.001c0 -86.667 -10.5 -167 -31.5 -241s-52.5 -138 -94.5 -192s-94.667 -96.333 -158 -127s-137.666 -46 -222.999 -46c-37.333 0 -75.333 3.33301 -114 10s-77 16.667 -115 30v-438h-165v1985z
M582.001 127.002c52.667 0 98.3311 10.832 136.998 32.499s70.667 51.334 96 89.001s44.333 82.167 57 133.5s19 106.666 19 165.999c0 77.333 -6.66699 144 -20 200s-32.166 102.167 -56.499 138.5s-54.166 63.166 -89.499 80.499s-75 26 -119 26
c-32 0 -62.667 -6.66699 -92 -20s-56 -30.833 -80 -52.5s-45 -46 -63 -73s-31.667 -53.833 -41 -80.5v-555c16 -13.333 34 -25.166 54 -35.499s41.167 -19.166 63.5 -26.499s45 -13 68 -17s45.167 -6 66.5 -6z" />
    <glyph glyph-name="ydieresis" unicode="&#xff;" horiz-adv-x="1100" 
d="M148 -284c12.667 -4.66699 26.9971 -8.50293 42.9971 -11.5029s29.667 -4.5 41 -4.5c28.667 0 57.5 13.667 86.5 41s57.833 65 86.5 113c20 33.333 40 70.333 60 111l-393 1155h180l224 -673l19 -59c6.66699 -20 12.834 -39.667 18.501 -59l16 -56l13.5 -50
c4 -15.333 7 -29 9 -41c0.666992 -5.33301 1.33398 -10 2.00098 -14c8 20 15.667 40.333 23 61c28 74 55.167 150.667 81.5 230l76.5 236l70 226l62 199h166l-75.5 -248l-82 -262.5c-28.333 -88.333 -58.166 -176 -89.499 -263s-63.833 -170 -97.5 -249
s-68.667 -152.167 -105 -219.5s-74 -125.666 -113 -174.999s-79.5 -88 -121.5 -116s-85.667 -42 -131 -42c-10 0 -20.167 0.666992 -30.5 2s-20.5 3.33301 -30.5 6s-19.667 5.83398 -29 9.50098s-18.333 7.83398 -27 12.501zM282.997 1489c0 38.667 7.5 67 22.5 85
s38.833 27 71.5 27c32 0 55.833 -9 71.5 -27s23.5 -46.333 23.5 -85c0 -39.333 -7.83301 -67.666 -23.5 -84.999s-39.5 -26 -71.5 -26c-32.667 0 -56.5 8.66699 -71.5 26s-22.5 45.666 -22.5 84.999zM684.997 1489c0 38.667 7.5 67 22.5 85s38.833 27 71.5 27
c32 0 55.667 -9 71 -27s23 -46.333 23 -85c0 -39.333 -7.66699 -67.666 -23 -84.999s-39 -26 -71 -26c-32.667 0 -56.5 8.66699 -71.5 26s-22.5 45.666 -22.5 84.999z" />
    <glyph glyph-name="dotlessi" unicode="&#x131;" horiz-adv-x="495" 
d="M165 1120h165v-1120h-165v1120z" />
    <glyph glyph-name="Lslash" unicode="&#x141;" horiz-adv-x="1085" 
d="M-39 519l218 176v798h175v-656l298 242l91 -105l-389 -315v-507h677v-152h-852v517l-127 -103z" />
    <glyph glyph-name="lslash" unicode="&#x142;" horiz-adv-x="584" 
d="M11 676l196 150v730h165v-603l118 91l79 -98l-197 -152v-794h-165v668l-117 -90z" />
    <glyph glyph-name="OE" unicode="&#x152;" horiz-adv-x="1933" 
d="M1806 1493l-0.000976562 -152.002h-638v-498h610v-152h-610v-539h656v-152h-831c-31.333 -9.33301 -62.833 -16.333 -94.5 -21s-64.167 -7 -97.5 -7c-97.333 0 -187.833 16.833 -271.5 50.5s-156 82.834 -217 147.501s-108.833 144 -143.5 238s-52 201.333 -52 322
c0 126.667 17.833 239.167 53.5 337.5s85 181 148 248s137.333 117.833 223 152.5s178.834 52 279.501 52c36 0 70.667 -2.16699 104 -6.5s66 -11.166 98 -20.499h783zM992.999 1302c-32 14 -63.667 25.5 -95 34.5s-63.666 13.5 -96.999 13.5
c-67.333 0 -131 -13.5 -191 -40.5s-112.5 -65.833 -157.5 -116.5s-80.833 -112.5 -107.5 -185.5s-40 -155.167 -40 -246.5c0 -102 14 -191.667 42 -269s65.667 -142 113 -194s102.166 -91 164.499 -117s127.833 -39 196.5 -39c30 0 59.167 4 87.5 12s56.5 17.667 84.5 29
v1119z" />
    <glyph glyph-name="oe" unicode="&#x153;" horiz-adv-x="1931" 
d="M1806 68c-58 -31.333 -124.668 -55.1641 -200.001 -71.4971s-155.666 -24.5 -240.999 -24.5c-50 0 -95 5.83301 -135 17.5s-76 27.667 -108 48s-60 44 -84 71s-44.667 55.833 -62 86.5c-42.667 -70.667 -96.834 -125.5 -162.501 -164.5s-142.5 -58.5 -230.5 -58.5
c-67.333 0 -129.833 12 -187.5 36s-107.5 60 -149.5 108s-75 107.667 -99 179s-36 154.666 -36 249.999c0 100 11.667 187.5 35 262.5s56.5 137.833 99.5 188.5s94.833 88.667 155.5 114s128 38 202 38c83.333 0 158.5 -17.833 225.5 -53.5s121.5 -89.167 163.5 -160.5
c44 70 100.167 123.167 168.5 159.5s144.166 54.5 227.499 54.5c60.667 0 117.834 -10 171.501 -30s100.834 -52.167 141.501 -96.5s72.834 -101.833 96.501 -172.5s35.5 -156.334 35.5 -257.001v-76h-756c3.33301 -60 11.5 -114.167 24.5 -162.5s32 -89.333 57 -123
s56.167 -59.5 93.5 -77.5s82 -27 134 -27c30.667 0 62.5 1.5 95.5 4.5s65.833 7.83301 98.5 14.5s64.667 14.667 96 24s60.666 20.666 87.999 33.999zM582.999 993.002c-42.667 0 -81.999 -8.16699 -117.999 -24.5s-67.167 -41.666 -93.5 -75.999
s-46.833 -77.833 -61.5 -130.5s-22 -115 -22 -187c0 -80 7.16699 -148.333 21.5 -205s35.166 -103 62.499 -139s60.333 -62.333 99 -79s82.667 -25 132 -25c42.667 0 82 8.16699 118 24.5s67 41.666 93 75.999s46.333 77.833 61 130.5s22 115 22 187
c0 80 -7.16699 148.333 -21.5 205s-35 103 -62 139s-60 62.333 -99 79s-82.833 25 -131.5 25zM1657 660.002c-4 54 -12.0029 101.667 -24.0029 143s-29.333 76 -52 104s-51.5 49.167 -86.5 63.5s-77.5 21.5 -127.5 21.5c-43.333 0 -81.666 -8 -114.999 -24
s-61.666 -38.5 -84.999 -67.5s-42.166 -64 -56.499 -105s-24.5 -86.167 -30.5 -135.5h577z" />
    <glyph glyph-name="Scaron" unicode="&#x160;" horiz-adv-x="1158" 
d="M924 1238c-21.333 14 -43.999 27.6689 -67.999 41.002s-49.5 25.333 -76.5 36s-55.833 19.167 -86.5 25.5s-63 9.5 -97 9.5c-30.667 0 -60.334 -3.5 -89.001 -10.5s-54.167 -17.667 -76.5 -32s-40.166 -32.5 -53.499 -54.5s-20 -48.333 -20 -79
c0 -41.333 9.83301 -78.166 29.5 -110.499s45.5 -62.166 77.5 -89.499s68.5 -53.166 109.5 -77.499l125.5 -74c42.667 -25 84.5 -51.333 125.5 -79s77.5 -58.5 109.5 -92.5s57.833 -72.167 77.5 -114.5s29.5 -90.833 29.5 -145.5c0 -65.333 -13.667 -123.833 -41 -175.5
s-64 -95.5 -110 -131.5s-99 -63.667 -159 -83s-122.333 -29 -187 -29c-37.333 0 -75.833 3.66699 -115.5 11s-78.834 18 -117.501 32s-75.667 31.333 -111 52s-67.333 44.667 -96 72l93 149c23.333 -20.667 49.166 -40 77.499 -58s58.166 -33.5 89.499 -46.5
s64 -23.167 98 -30.5s68.333 -11 103 -11c36 0 71.333 4.66699 106 14s65.5 23.166 92.5 41.499s48.833 41.166 65.5 68.499s25 59 25 95c0 41.333 -9.83301 78.166 -29.5 110.499s-45.5 62.166 -77.5 89.499s-68.5 53.166 -109.5 77.499l-125.5 74
c-42.667 25 -84.5 51.167 -125.5 78.5s-77.5 58 -109.5 92s-57.833 72.167 -77.5 114.5s-29.5 90.833 -29.5 145.5c0 60 12 113.333 36 160s56.5 86.167 97.5 118.5s88.5 56.833 142.5 73.5s111 25 171 25c72.667 0 142.334 -11 209.001 -33s127.334 -54.333 182.001 -97z
M622.001 1607l-298 207l79 90l229 -128l218 128l68 -84z" />
    <glyph glyph-name="scaron" unicode="&#x161;" horiz-adv-x="942" 
d="M766 912c-21.333 11.333 -42.9941 21.9932 -64.9941 31.9932s-44.667 18.667 -68 26s-47.333 13 -72 17s-50.334 6 -77.001 6c-24 0 -46.667 -2.5 -68 -7.5s-40.333 -12.667 -57 -23s-29.834 -23.5 -39.501 -39.5s-14.5 -35.333 -14.5 -58c0 -26 7.66699 -49.5 23 -70.5
s35.333 -40.833 60 -59.5s53 -36.667 85 -54l97.5 -53c33 -18 65.5 -37 97.5 -57s60.333 -42.333 85 -67s44.667 -51.834 60 -81.501s23 -63.5 23 -101.5c0 -55.333 -10.5 -104.5 -31.5 -147.5s-49.667 -79.5 -86 -109.5s-79.333 -52.833 -129 -68.5
s-102.834 -23.5 -159.501 -23.5c-31.333 0 -62.833 2.5 -94.5 7.5s-62.667 12.333 -93 22s-59 21.334 -86 35.001s-51.167 29.5 -72.5 47.5l65 141c22 -15.333 45.5 -29.166 70.5 -41.499s50.667 -22.666 77 -30.999s52.666 -14.666 78.999 -18.999s51.5 -6.5 75.5 -6.5
c29.333 0 56.666 3.33301 81.999 10s47.166 16.834 65.499 30.501s32.833 30.834 43.5 51.501s16 44.667 16 72c0 26 -7.66699 49.5 -23 70.5s-35.333 40.833 -60 59.5s-53 36.667 -85 54l-97.5 53c-33 18 -65.5 37 -97.5 57s-60.333 42.333 -85 67
s-44.667 51.834 -60 81.501s-23 63.5 -23 101.5c0 44 8.66699 85 26 123s42.166 71 74.499 99s72 50.167 119 66.5s100.167 24.5 159.5 24.5c28 0 56.5 -2.16699 85.5 -6.5s57.333 -10.666 85 -18.999s54.334 -18.333 80.001 -30s49.167 -24.5 70.5 -38.5zM474.006 1307.99
l-309 295l95 88l223 -190l210 190l95 -86z" />
    <glyph glyph-name="Ydieresis" unicode="&#x178;" horiz-adv-x="1270" 
d="M544 0v641l-500 852h207l396 -684l384 684h197l-501 -852v-641h-183zM322 1730c0 38.667 7.5 66.834 22.5 84.501s39.5 26.5 73.5 26.5c33.333 0 58 -8.83301 74 -26.5s24 -45.834 24 -84.501s-8 -66.5 -24 -83.5s-40.667 -25.5 -74 -25.5c-34 0 -58.5 8.5 -73.5 25.5
s-22.5 44.833 -22.5 83.5zM752 1730c0 38.667 7.5 66.834 22.5 84.501s39.5 26.5 73.5 26.5c32 0 56.167 -8.83301 72.5 -26.5s24.5 -45.834 24.5 -84.501s-8.16699 -66.5 -24.5 -83.5s-40.5 -25.5 -72.5 -25.5c-34 0 -58.5 8.5 -73.5 25.5s-22.5 44.833 -22.5 83.5z" />
    <glyph glyph-name="Zcaron" unicode="&#x17d;" horiz-adv-x="1142" 
d="M571 1607l-298 207l79 90l229 -128l218 128l68 -84zM126 1493h889v-152l-714 -1189h736v-152h-932v152l712 1189h-691v152z" />
    <glyph glyph-name="zcaron" unicode="&#x17e;" horiz-adv-x="961" 
d="M118 1120h744v-145l-567 -830h582v-145h-783v145l566 830h-542v145zM517 1308l-309 295l95 88l223 -190l210 190l95 -86z" />
    <glyph glyph-name="florin" unicode="&#x192;" horiz-adv-x="690" 
d="M371 975l-0.00195312 -982.999c0 -68 -8.16699 -128 -24.5 -180s-41.166 -95.667 -74.499 -131s-76 -62 -128 -80s-113.333 -27 -184 -27h-65v153c54.667 0 101.5 2.33301 140.5 7s71.167 15.5 96.5 32.5s44 41.5 56 73.5s18 75.667 18 131v1004h-201v145h201
c0 70 4.5 132 13.5 186s25.833 99.5 50.5 136.5s59.167 65.167 103.5 84.5s101.833 29 172.5 29c18.667 0 37.5 -1 56.5 -3s36.167 -4.33301 51.5 -7c18 -2.66699 35.333 -6 52 -10l-36 -137c-22 3.33301 -43 6 -63 8s-38.667 3.33301 -56 4
c-28.667 0.666992 -54.167 -1.83301 -76.5 -7.5s-41.166 -15.834 -56.499 -30.501s-27 -34.5 -35 -59.5s-12 -56.5 -12 -94.5v-99h288v-145h-288z" />
    <glyph glyph-name="circumflex" unicode="&#x2c6;" 
d="M652 1296l-232 185l-219 -185l-101 92l329 296l324 -293z" />
    <glyph glyph-name="caron" unicode="&#x2c7;" 
d="M424 1308l-309 295l95 88l223 -190l210 190l95 -86z" />
    <glyph glyph-name="breve" unicode="&#x2d8;" horiz-adv-x="856" 
d="M263 1622c3.33301 -25.333 8.83301 -48.167 16.5 -68.5s18.167 -37.5 31.5 -51.5s29.666 -24.667 48.999 -32s42.333 -11 69 -11s49.334 3.83301 68.001 11.5s34.5 18.5 47.5 32.5s23.333 31 31 51s13.5 42.667 17.5 68h138c-2.66699 -52 -11.667 -97.667 -27 -137
s-36 -72 -62 -98s-57 -45.5 -93 -58.5s-76 -19.5 -120 -19.5c-43.333 0 -82.833 6.33301 -118.5 19s-66.667 31.834 -93 57.501s-47.5 58.167 -63.5 97.5s-25.667 85.666 -29 138.999h138z" />
    <glyph glyph-name="dotaccent" unicode="&#x2d9;" horiz-adv-x="856" 
d="M334 1465c0 39.333 7.5 68.167 22.5 86.5s38.833 27.5 71.5 27.5c33.333 0 57.833 -9 73.5 -27s23.5 -47 23.5 -87s-8 -68.833 -24 -86.5s-40.333 -26.5 -73 -26.5s-56.5 8.83301 -71.5 26.5s-22.5 46.5 -22.5 86.5z" />
    <glyph glyph-name="ring" unicode="&#x2da;" horiz-adv-x="860" 
d="M332 1479c0 -35.333 9.83105 -61.5 29.498 -78.5s43.5 -25.5 71.5 -25.5c27.333 0 49.5 8.33301 66.5 25s25.5 40 25.5 70c0 12 -2.16699 24 -6.5 36s-10.666 22.667 -18.999 32s-18.5 16.833 -30.5 22.5s-25.667 8.5 -41 8.5c-29.333 0 -52.666 -8.5 -69.999 -25.5
s-26 -38.5 -26 -64.5zM220.998 1470c0 27.333 4.99902 53.668 14.999 79.001s24.167 47.666 42.5 66.999s40.666 34.833 66.999 46.5s55.5 17.5 87.5 17.5c34.667 0 64.667 -5.83301 90 -17.5s46.333 -27 63 -46s29 -40.5 37 -64.5s12 -48.333 12 -73
c0 -32 -5 -61.333 -15 -88s-24.167 -49.5 -42.5 -68.5s-40.166 -33.667 -65.499 -44s-53 -15.5 -83 -15.5s-57.833 5.16699 -83.5 15.5s-47.667 24.833 -66 43.5s-32.666 40.5 -42.999 65.5s-15.5 52.5 -15.5 82.5z" />
    <glyph glyph-name="ogonek" unicode="&#x2db;" horiz-adv-x="856" 
d="M460 0c-12 -4 -24.332 -12.8291 -36.999 -26.4961s-24 -29.834 -34 -48.501s-18.167 -38 -24.5 -58s-9.5 -38.333 -9.5 -55c0 -22.667 5.5 -41 16.5 -55s29.167 -21 54.5 -21c11.333 0 24 2.33301 38 7s25.667 10 35 16l45 -112
c-15.333 -12.667 -35.666 -23.834 -60.999 -33.501s-50.666 -14.5 -75.999 -14.5c-34.667 0 -65.5 4.16699 -92.5 12.5s-49.833 20.5 -68.5 36.5s-32.834 35.833 -42.501 59.5s-14.5 51.167 -14.5 82.5c0 21.333 2.66699 43.166 8 65.499s13.166 44.166 23.499 65.499
s23.166 42 38.499 62s33 38 53 54z" />
    <glyph glyph-name="tilde" unicode="&#x2dc;" horiz-adv-x="825" 
d="M549 1343c-24.667 0 -46.5068 3.32812 -65.5068 9.99512s-36.167 14.834 -51.5 24.501s-29.166 20.334 -41.499 32.001s-24.333 22.334 -36 32.001s-23.334 17.834 -35.001 24.501s-24.167 10 -37.5 10c-14 0 -26.333 -3.33301 -37 -10s-20.167 -15 -28.5 -25
s-16.166 -21.333 -23.499 -34l-22 -37l-93 63c9.33301 20.667 21 41.667 35 63s30.167 40.5 48.5 57.5s39 31 62 42s48.167 16.5 75.5 16.5c22.667 0 42.834 -3.33301 60.501 -10s33.834 -15 48.501 -25s28.334 -20.667 41.001 -32l37.5 -32c12.333 -10 25 -18.333 38 -25
s27.167 -10 42.5 -10c12.667 0 24.334 3.66699 35.001 11s20.334 16.5 29.001 27.5s16.334 23.333 23.001 37s12.667 26.834 18 39.501l95 -59c-22.667 -60.667 -51.667 -107.667 -87 -141s-79 -50 -131 -50z" />
    <glyph glyph-name="hungarumlaut" unicode="&#x2dd;" 
d="M107 1334l168 376l160 -58l-215 -363zM394 1323l211 375l152 -71l-257 -359z" />
    <glyph glyph-name="Delta" unicode="&#x394;" horiz-adv-x="1372" 
d="M1328 0h-1285l539 1493h207zM293 168h786l-394 1126z" />
    <glyph glyph-name="Omega" unicode="&#x3a9;" horiz-adv-x="1496" 
d="M748 1520c68.667 0 132.331 -8.83203 190.998 -26.499s112 -42.334 160 -74.001s90.333 -69.5 127 -113.5s67.5 -92.167 92.5 -144.5s43.833 -107.833 56.5 -166.5s19 -119 19 -181c0 -66 -5.66699 -127.667 -17 -185s-28.833 -111.666 -52.5 -162.999
s-53.667 -100.666 -90 -147.999s-79.166 -94 -128.499 -140h302v-178h-563v178c58.667 34 110.5 74.167 155.5 120.5s82.833 97 113.5 152s53.667 113.333 69 175s23 124.5 23 188.5c0 44.667 -4 88.834 -12 132.501s-20.333 85.167 -37 124.5s-37.5 76 -62.5 110
s-54.5 63.333 -88.5 88s-72.5 44 -115.5 58s-90.5 21 -142.5 21c-52.667 0 -100.5 -7 -143.5 -21s-81.5 -33.333 -115.5 -58s-63.667 -53.834 -89 -87.501s-46.333 -70.334 -63 -110.001s-29 -81.334 -37 -125.001s-12 -87.834 -12 -132.501
c0 -64 7.83301 -126.833 23.5 -188.5s38.667 -120 69 -175s68 -105.667 113 -152s97.167 -86.5 156.5 -120.5v-178h-563v178h302c-48 44.667 -90 90.334 -126 137.001s-66 95.5 -90 146.5s-42 104.833 -54 161.5s-18 117 -18 181c0 94 13.833 184.167 41.5 270.5
s68.834 162.5 123.501 228.5s122.167 118.667 202.5 158s173.5 59 279.5 59z" />
    <glyph glyph-name="mu" unicode="&#x3bc;" horiz-adv-x="1229" 
d="M151 -426l-0.00195312 1546h165v-651c0 -35.333 2 -68.166 6 -98.499s10.333 -58 19 -83s19.834 -47.167 33.501 -66.5s30.167 -35.666 49.5 -48.999s41.833 -23.5 67.5 -30.5s54.5 -10.5 86.5 -10.5c54.667 0 100.167 9.83301 136.5 29.5s65.5 45.834 87.5 78.501
s37.5 70.167 46.5 112.5s13.5 86.166 13.5 131.499v637h167v-862c0 -25.333 1.16699 -46.166 3.5 -62.499s6 -29.166 11 -38.499s11.167 -16 18.5 -20s16 -6 26 -6c15.333 0 27.833 1.5 37.5 4.5s17.834 6.83301 24.501 11.5l24 -127c-10 -6 -21.167 -12 -33.5 -18
s-25.166 -11.333 -38.499 -16s-26.666 -8.33398 -39.999 -11.001s-26.333 -4 -39 -4c-25.333 0 -46.833 4.16699 -64.5 12.5s-32.5 19.666 -44.5 33.999s-21.5 31.166 -28.5 50.499s-12.5 39.666 -16.5 60.999c-15.333 -25.333 -34.333 -47.666 -57 -66.999
s-47.5 -35.666 -74.5 -48.999s-55.833 -23.5 -86.5 -30.5s-61.334 -10.5 -92.001 -10.5s-58.334 2.66699 -83.001 8s-47 12.666 -67 21.999s-37.5 20.666 -52.5 33.999s-28.5 27.666 -40.5 42.999v-505h-165z" />
    <glyph glyph-name="pi" unicode="&#x3c0;" horiz-adv-x="1180" 
d="M84 1120l998.001 0.000976562v-144h-131v-663c0 -30.667 1.16699 -57.667 3.5 -81s6.5 -43 12.5 -59s14.5 -28.167 25.5 -36.5s25.5 -12.5 43.5 -12.5c17.333 0 31.666 0.666992 42.999 2s22 2.66602 32 3.99902v-133c-10.667 -4 -21.334 -7.66699 -32.001 -11
s-21.5 -6 -32.5 -8s-22.167 -3.5 -33.5 -4.5s-22.666 -1.5 -33.999 -1.5c-44 0 -79.167 7.5 -105.5 22.5s-46.333 36 -60 63s-22.5 59.333 -26.5 97s-6 79.167 -6 124.5v697h-395v-976h-170v976h-132v144z" />
    <glyph glyph-name="endash" unicode="&#x2013;" horiz-adv-x="982" 
d="M102 633h780v-144h-780v144z" />
    <glyph glyph-name="emdash" unicode="&#x2014;" horiz-adv-x="1948" 
d="M102 633h1747v-144h-1747v144z" />
    <glyph glyph-name="quoteleft" unicode="&#x2018;" horiz-adv-x="587" 
d="M277.019 959.093c-33.9971 0 -60.332 10.999 -78.998 32.998c-18.665 21.999 -27.998 52.3301 -27.998 90.9941c0 20.665 2.33301 43.3301 7 67.9951c4.66602 24.665 11.165 50.1631 19.498 76.4941c8.33301 26.332 18.166 52.8301 29.499 79.4951
s23.165 52.8301 35.4971 78.4951c12.333 25.665 25.166 49.8301 38.499 72.4951s26.332 42.9971 38.998 60.9961l109.993 -42.9971c-7.33301 -12.666 -15.666 -28.332 -24.999 -46.9971c-9.33301 -18.666 -18.499 -38.498 -27.498 -59.4971
s-17.165 -42.8311 -24.498 -65.4961s-12.666 -44.3301 -15.999 -64.9951c6.66699 -8 13.333 -17 19.999 -26.999c6.66699 -9.99902 12.667 -20.998 18 -32.9971s9.66602 -25.3311 12.999 -39.9961c3.33301 -14.666 5 -31.332 5 -49.9971
c0 -26.665 -3.5 -48.3301 -10.499 -64.9951c-7 -16.666 -16.666 -29.832 -28.999 -39.498c-12.332 -9.66602 -26.6641 -16.332 -42.9971 -19.998c-16.332 -3.66699 -33.8311 -5.5 -52.4971 -5.5z" />
    <glyph glyph-name="quoteright" unicode="&#x2019;" horiz-adv-x="587" 
d="M310 1520c34 0 60.333 -11.0029 79 -33.0029s28 -52.333 28 -91c0 -20.667 -2.33301 -43.334 -7 -68.001s-11.167 -50.167 -19.5 -76.5s-18.166 -52.833 -29.499 -79.5s-23.166 -52.834 -35.499 -78.501s-25.166 -49.834 -38.499 -72.501s-26.333 -43 -39 -61l-110 43
c7.33301 12.667 15.666 28.334 24.999 47.001s18.5 38.5 27.5 59.5s17.167 42.833 24.5 65.5s12.666 44.334 15.999 65.001c-6.66699 8 -13.334 17 -20.001 27s-12.667 21 -18 33s-9.66602 25.333 -12.999 40s-5 31.334 -5 50.001c0 26.667 3.5 48.334 10.5 65.001
s16.667 29.834 29 39.501s26.666 16.334 42.999 20.001s33.833 5.5 52.5 5.5z" />
    <glyph glyph-name="quotesinglbase" unicode="&#x201a;" horiz-adv-x="549" 
d="M273 255c34 0 60.333 -11.0029 79 -33.0029s28 -52.333 28 -91c0 -20.667 -2.33301 -43.334 -7 -68.001s-11.167 -50.167 -19.5 -76.5s-18.166 -52.833 -29.499 -79.5s-23.166 -52.834 -35.499 -78.501s-25.166 -49.834 -38.499 -72.501s-26.333 -43 -39 -61l-110 43
c7.33301 12.667 15.666 28.334 24.999 47.001s18.5 38.5 27.5 59.5s17.167 42.833 24.5 65.5s12.666 44.334 15.999 65.001c-6.66699 8 -13.334 17 -20.001 27s-12.667 21 -18 33s-9.66602 25.333 -12.999 40s-5 31.334 -5 50.001c0 26.667 3.5 48.334 10.5 65.001
s16.667 29.834 29 39.501s26.666 16.334 42.999 20.001s33.833 5.5 52.5 5.5z" />
    <glyph glyph-name="quotereversed" unicode="&#x201b;" horiz-adv-x="587" 
d="M277.019 1520c-33.9971 0 -60.332 -11.0029 -78.998 -33.0029c-18.665 -22 -27.998 -52.333 -27.998 -91c0 -20.667 2.33301 -43.334 7 -68.001c4.66602 -24.667 11.165 -50.167 19.498 -76.5s18.166 -52.833 29.499 -79.5s23.165 -52.834 35.4971 -78.501
c12.333 -25.667 25.166 -49.834 38.499 -72.501s26.332 -43 38.998 -61l109.993 43c-7.33301 12.667 -15.666 28.334 -24.999 47.001s-18.499 38.5 -27.498 59.5s-17.165 42.833 -24.498 65.5s-12.666 44.334 -15.999 65.001c6.66699 8 13.333 17 19.999 27
c6.66699 10 12.667 21 18 33s9.66602 25.333 12.999 40s5 31.334 5 50.001c0 26.667 -3.5 48.334 -10.499 65.001c-7 16.667 -16.666 29.834 -28.999 39.501c-12.332 9.66699 -26.6641 16.334 -42.9971 20.001c-16.332 3.66699 -33.8311 5.5 -52.4971 5.5z" />
    <glyph glyph-name="quotedblleft" unicode="&#x201c;" horiz-adv-x="1000" 
d="M690.019 959.093c-33.9971 0 -60.332 10.999 -78.998 32.998c-18.665 21.999 -27.998 52.3301 -27.998 90.9941c0 20.665 2.33301 43.3301 7 67.9951c4.66602 24.665 11.165 50.1631 19.498 76.4941c8.33301 26.332 18.166 52.8301 29.499 79.4951
s23.165 52.8301 35.4971 78.4951c12.333 25.665 25.166 49.8301 38.499 72.4951s26.332 42.9971 38.998 60.9961l109.993 -42.9971c-7.33301 -12.666 -15.666 -28.332 -24.999 -46.9971c-9.33301 -18.666 -18.499 -38.498 -27.498 -59.4971
s-17.165 -42.8311 -24.498 -65.4961s-12.666 -44.3301 -15.999 -64.9951c6.66699 -8 13.333 -17 19.999 -26.999c6.66699 -9.99902 12.667 -20.998 18 -32.9971s9.66602 -25.3311 12.999 -39.9961c3.33301 -14.666 5 -31.332 5 -49.9971
c0 -26.665 -3.5 -48.3301 -10.499 -64.9951c-7 -16.666 -16.666 -29.832 -28.999 -39.498c-12.332 -9.66602 -26.6641 -16.332 -42.9971 -19.998c-16.332 -3.66699 -33.8311 -5.5 -52.4971 -5.5zM277.041 959.093c-33.998 0 -60.334 10.999 -78.999 32.998
s-27.998 52.3301 -27.998 90.9941c0 20.665 2.33301 43.3301 6.99902 67.9951c4.66699 24.665 11.167 50.1631 19.5 76.4941c8.33301 26.332 18.166 52.8301 29.499 79.4951s23.166 52.8301 35.499 78.4951s25.166 49.8301 38.499 72.4951
c13.332 22.665 26.3311 42.9971 38.9971 60.9961l109.993 -42.9971c-7.33301 -12.666 -15.666 -28.332 -24.999 -46.9971c-9.33301 -18.666 -18.499 -38.665 -27.498 -59.9971s-17.165 -43.1641 -24.498 -65.4951c-7.33301 -22.332 -12.666 -43.8311 -15.999 -64.4961
c6.66699 -8 13.333 -17 19.999 -26.999s12.666 -20.998 17.999 -32.9971s9.66602 -25.3311 12.999 -39.9961c3.33301 -14.666 5 -31.332 5 -49.9971c0 -26.665 -3.5 -48.3301 -10.5 -64.9951c-6.99902 -16.666 -16.665 -29.832 -28.998 -39.498
s-26.665 -16.332 -42.9971 -19.998c-16.333 -3.66699 -33.832 -5.5 -52.4971 -5.5z" />
    <glyph glyph-name="quotedblright" unicode="&#x201d;" horiz-adv-x="1000" 
d="M310 1520c34 0 60.333 -11.0029 79 -33.0029s28 -52.333 28 -91c0 -20.667 -2.33301 -43.334 -7 -68.001s-11.167 -50.167 -19.5 -76.5s-18.166 -52.833 -29.499 -79.5s-23.166 -52.834 -35.499 -78.501s-25.166 -49.834 -38.499 -72.501s-26.333 -43 -39 -61l-110 43
c7.33301 12.667 15.666 28.334 24.999 47.001s18.5 38.5 27.5 59.5s17.167 42.833 24.5 65.5s12.666 44.334 15.999 65.001c-6.66699 8 -13.334 17 -20.001 27s-12.667 21 -18 33s-9.66602 25.333 -12.999 40s-5 31.334 -5 50.001c0 26.667 3.5 48.334 10.5 65.001
s16.667 29.834 29 39.501s26.666 16.334 42.999 20.001s33.833 5.5 52.5 5.5zM723 1520c34 0 60.333 -11.001 79 -33.001s28 -52.333 28 -91c0 -20.667 -2.33301 -43.334 -7 -68.001s-11.167 -50.167 -19.5 -76.5s-18.166 -52.833 -29.499 -79.5
s-23.166 -52.834 -35.499 -78.501s-25.166 -49.834 -38.499 -72.501s-26.333 -43 -39 -61l-110 43c7.33301 12.667 15.666 28.334 24.999 47.001s18.5 38.667 27.5 60s17.167 43.166 24.5 65.499s12.666 43.833 15.999 64.5c-6.66699 8 -13.334 17 -20.001 27
s-12.667 21 -18 33s-9.66602 25.333 -12.999 40s-5 31.334 -5 50.001c0 26.667 3.5 48.334 10.5 65.001s16.667 29.834 29 39.501s26.666 16.334 42.999 20.001s33.833 5.5 52.5 5.5z" />
    <glyph glyph-name="quotedblbase" unicode="&#x201e;" horiz-adv-x="962" 
d="M273 255c34 0 60.333 -11.0029 79 -33.0029s28 -52.333 28 -91c0 -20.667 -2.33301 -43.334 -7 -68.001s-11.167 -50.167 -19.5 -76.5s-18.166 -52.833 -29.499 -79.5s-23.166 -52.834 -35.499 -78.501s-25.166 -49.834 -38.499 -72.501s-26.333 -43 -39 -61l-110 43
c7.33301 12.667 15.666 28.334 24.999 47.001s18.5 38.5 27.5 59.5s17.167 42.833 24.5 65.5s12.666 44.334 15.999 65.001c-6.66699 8 -13.334 17 -20.001 27s-12.667 21 -18 33s-9.66602 25.333 -12.999 40s-5 31.334 -5 50.001c0 26.667 3.5 48.334 10.5 65.001
s16.667 29.834 29 39.501s26.666 16.334 42.999 20.001s33.833 5.5 52.5 5.5zM686 254.997c34 0 60.333 -11.001 79 -33.001s28 -52.333 28 -91c0 -20.667 -2.33301 -43.334 -7 -68.001s-11.167 -50.167 -19.5 -76.5s-18.166 -52.833 -29.499 -79.5
s-23.166 -52.834 -35.499 -78.501s-25.166 -49.834 -38.499 -72.501s-26.333 -43 -39 -61l-110 43c7.33301 12.667 15.666 28.334 24.999 47.001s18.5 38.667 27.5 60s17.167 43.166 24.5 65.499s12.666 43.833 15.999 64.5c-6.66699 8 -13.334 17 -20.001 27
s-12.667 21 -18 33s-9.66602 25.333 -12.999 40s-5 31.334 -5 50.001c0 26.667 3.5 48.334 10.5 65.001s16.667 29.834 29 39.501s26.666 16.334 42.999 20.001s33.833 5.5 52.5 5.5z" />
    <glyph glyph-name="uni201F" unicode="&#x201f;" horiz-adv-x="1000" 
d="M690.019 1520c-33.9971 0 -60.332 -11.0029 -78.998 -33.0029c-18.665 -22 -27.998 -52.333 -27.998 -91c0 -20.667 2.33301 -43.334 7 -68.001c4.66602 -24.667 11.165 -50.167 19.498 -76.5s18.166 -52.833 29.499 -79.5s23.165 -52.834 35.4971 -78.501
c12.333 -25.667 25.166 -49.834 38.499 -72.501s26.332 -43 38.998 -61l109.993 43c-7.33301 12.667 -15.666 28.334 -24.999 47.001s-18.499 38.5 -27.498 59.5s-17.165 42.833 -24.498 65.5s-12.666 44.334 -15.999 65.001c6.66699 8 13.333 17 19.999 27
c6.66699 10 12.667 21 18 33s9.66602 25.333 12.999 40s5 31.334 5 50.001c0 26.667 -3.5 48.334 -10.499 65.001c-7 16.667 -16.666 29.834 -28.999 39.501c-12.332 9.66699 -26.6641 16.334 -42.9971 20.001c-16.332 3.66699 -33.8311 5.5 -52.4971 5.5zM277.041 1520
c-33.998 0 -60.334 -11.001 -78.999 -33.001s-27.998 -52.333 -27.998 -91c0 -20.667 2.33301 -43.334 6.99902 -68.001c4.66699 -24.667 11.167 -50.167 19.5 -76.5s18.166 -52.833 29.499 -79.5s23.166 -52.834 35.499 -78.501s25.166 -49.834 38.499 -72.501
c13.332 -22.667 26.3311 -43 38.9971 -61l109.993 43c-7.33301 12.667 -15.666 28.334 -24.999 47.001s-18.499 38.667 -27.498 60s-17.165 43.166 -24.498 65.499s-12.666 43.833 -15.999 64.5c6.66699 8 13.333 17 19.999 27s12.666 21 17.999 33
s9.66602 25.333 12.999 40s5 31.334 5 50.001c0 26.667 -3.5 48.334 -10.5 65.001c-6.99902 16.667 -16.665 29.834 -28.998 39.501s-26.665 16.334 -42.9971 20.001c-16.333 3.66699 -33.832 5.5 -52.4971 5.5z" />
    <glyph glyph-name="dagger" unicode="&#x2020;" horiz-adv-x="1002" 
d="M421 1493h159v-420h350v-153h-350v-1117h-159v1117h-351v153h351v420z" />
    <glyph glyph-name="daggerdbl" unicode="&#x2021;" horiz-adv-x="1002" 
d="M421 1493h159v-420h350v-153h-350v-543h350v-154h-350v-420h-159v420h-351v154h351v543h-351v153h351v420z" />
    <glyph glyph-name="bullet" unicode="&#x2022;" horiz-adv-x="985" 
d="M243 665c0 40.667 4.99902 77.499 14.999 110.499s25.167 61 45.5 84s46.333 40.667 78 53s69.5 18.5 113.5 18.5c46 0 84.833 -6.66699 116.5 -20s57.334 -31.833 77.001 -55.5s33.834 -51.667 42.501 -84s13 -67.833 13 -106.5c0 -43.333 -6 -81.666 -18 -114.999
s-28.833 -61.166 -50.5 -83.499s-47.834 -39.333 -78.501 -51s-65 -17.5 -103 -17.5c-82.667 0 -145.167 22.667 -187.5 68s-63.5 111.666 -63.5 198.999z" />
    <glyph glyph-name="ellipsis" unicode="&#x2026;" horiz-adv-x="1549" 
d="M181 111c0 44.667 8.83301 77.334 26.5 98.001s45.167 31 82.5 31c38.667 0 67.5 -10.333 86.5 -31s28.5 -53.334 28.5 -98.001c0 -46 -9.5 -78.667 -28.5 -98s-47.833 -29 -86.5 -29c-38 0 -65.667 9.66699 -83 29s-26 52 -26 98zM662 111c0 44.667 9 77.334 27 98.001
s45.667 31 83 31c38 0 66.5 -10.333 85.5 -31s28.5 -53.334 28.5 -98.001c0 -46 -9.5 -78.667 -28.5 -98s-47.5 -29 -85.5 -29s-65.833 9.66699 -83.5 29s-26.5 52 -26.5 98zM1144 111c0 44.667 8.83301 77.334 26.5 98.001s45.167 31 82.5 31
c38.667 0 67.5 -10.333 86.5 -31s28.5 -53.334 28.5 -98.001c0 -46 -9.5 -78.667 -28.5 -98s-47.833 -29 -86.5 -29c-38 0 -65.667 9.66699 -83 29s-26 52 -26 98z" />
    <glyph glyph-name="perthousand" unicode="&#x2030;" horiz-adv-x="2731" 
d="M615 1071c0 34.667 -2 70.5 -6 107.5s-12.167 70.833 -24.5 101.5s-29.833 55.667 -52.5 75s-52.334 29 -89.001 29c-31.333 0 -57.166 -8.16699 -77.499 -24.5s-36.166 -38 -47.499 -65s-19.166 -57.5 -23.499 -91.5s-6.5 -68.333 -6.5 -103c0 -35.333 2 -71.5 6 -108.5
s12.167 -70.833 24.5 -101.5s29.666 -55.667 51.999 -75s52.166 -29 89.499 -29c31.333 0 57 8.16699 77 24.5s35.833 38 47.5 65s19.667 57.5 24 91.5s6.5 68.667 6.5 104zM791 1100c0 -62 -5.99902 -120.166 -17.999 -174.499s-31.667 -101.833 -59 -142.5
s-63.166 -72.667 -107.499 -96s-98.833 -35 -163.5 -35c-59.333 0 -110 11.167 -152 33.5s-76.333 52.666 -103 90.999s-46 82.833 -58 133.5s-18 104.334 -18 161.001c0 62 6 120 18 174s31.667 101.333 59 142s63.166 72.667 107.499 96s98.833 35 163.5 35
c59.333 0 110 -11.167 152 -33.5s76.167 -52.5 102.5 -90.5s45.666 -82.333 57.999 -133s18.5 -104.334 18.5 -161.001zM1424 1543l136 -82l-1089 -1534l-136 82zM1629 391.001c0 34.667 -2 70.5 -6 107.5s-12.167 70.833 -24.5 101.5s-29.833 55.667 -52.5 75
s-52.334 29 -89.001 29c-31.333 0 -57.166 -8.16699 -77.499 -24.5s-36.166 -38 -47.499 -65s-19.166 -57.5 -23.499 -91.5s-6.5 -68.333 -6.5 -103c0 -35.333 2 -71.5 6 -108.5s12.167 -70.833 24.5 -101.5s29.666 -55.667 51.999 -75s52.166 -29 89.499 -29
c31.333 0 57 8.16699 77 24.5s35.833 38 47.5 65s19.667 57.5 24 91.5s6.5 68.667 6.5 104zM1805 420.001c0 -62 -5.99902 -120.166 -17.999 -174.499s-31.667 -101.833 -59 -142.5s-63.166 -72.667 -107.499 -96s-98.833 -35 -163.5 -35c-59.333 0 -110 11.167 -152 33.5
s-76.333 52.666 -103 90.999s-46 82.833 -58 133.5s-18 104.334 -18 161.001c0 62 6 120 18 174s31.667 101.333 59 142s63.166 72.667 107.499 96s98.833 35 163.5 35c59.333 0 110 -11.167 152 -33.5s76.167 -52.5 102.5 -90.5s45.666 -82.333 57.999 -133
s18.5 -104.334 18.5 -161.001zM2443 391.002c0 34.667 -2 70.5 -6 107.5s-12.167 70.833 -24.5 101.5s-29.833 55.667 -52.5 75s-52.334 29 -89 29c-31.333 0 -57.166 -8.16699 -77.5 -24.5c-20.333 -16.333 -36.166 -38 -47.5 -65c-11.333 -27 -19.166 -57.5 -23.5 -91.5
c-4.33301 -34 -6.5 -68.333 -6.5 -103c0 -35.333 2 -71.5 6 -108.5s12.167 -70.833 24.5 -101.5s29.666 -55.667 52 -75c22.333 -19.333 52.166 -29 89.5 -29c31.333 0 57 8.16699 77 24.5s35.833 38 47.5 65s19.667 57.5 24 91.5s6.5 68.667 6.5 104zM2619 420.002
c0 -62 -6 -120.166 -18 -174.499s-31.667 -101.833 -59 -142.5s-63.166 -72.667 -107.499 -96s-98.833 -35 -163.5 -35c-59.333 0 -110 11.167 -152 33.5s-76.333 52.666 -103 90.999s-46 82.833 -58 133.5s-18 104.334 -18 161.001c0 62 6 120 18 174
s31.667 101.333 59 142s63.166 72.667 107.499 96s98.833 35 163.5 35c59.333 0 110 -11.167 152 -33.5s76.167 -52.5 102.5 -90.5s45.666 -82.333 58 -133c12.333 -50.667 18.5 -104.334 18.5 -161.001z" />
    <glyph glyph-name="guilsinglleft" unicode="&#x2039;" horiz-adv-x="742" 
d="M593 1059l99 -93l-360 -365l340 -358l-97 -95l-491 435z" />
    <glyph glyph-name="guilsinglright" unicode="&#x203a;" horiz-adv-x="742" 
d="M149.036 148.064l-98.9941 92.9941l359.979 364.979l-339.979 357.978l96.9941 94.9941l490.97 -434.974z" />
    <glyph glyph-name="fraction" unicode="&#x2044;" horiz-adv-x="130" 
d="M526 1543l137 -82l-1089 -1534l-137 82z" />
    <glyph glyph-name="Euro" unicode="&#x20ac;" horiz-adv-x="1500" 
d="M1285 1179c-30 30 -60.0059 55.4971 -90.0059 76.4971s-61.167 38 -93.5 51s-66.166 22.5 -101.499 28.5s-73 9 -113 9c-61.333 0 -115.5 -11.167 -162.5 -33.5s-87.5 -50 -121.5 -83s-61.5 -68 -82.5 -105s-35.833 -70.167 -44.5 -99.5h646v-152h-681
c-2.66699 -17.333 -4.5 -35.666 -5.5 -54.999s-1.5 -37.666 -1.5 -54.999s0.5 -37.5 1.5 -60.5s3.16699 -43.167 6.5 -60.5h680v-152h-650c7.33301 -24.667 17.333 -50.167 30 -76.5s28 -52.166 46 -77.499s38.833 -49.333 62.5 -72s50.334 -42.5 80.001 -59.5
s62.5 -30.5 98.5 -40.5s75.333 -15 118 -15c32.667 0 65 3.16699 97 9.5s64 16.166 96 29.499s64.167 30.833 96.5 52.5s65.166 47.834 98.499 78.501l102 -115c-41.333 -40 -82 -74.5 -122 -103.5s-80.5 -53 -121.5 -72s-83.5 -33 -127.5 -42s-90.333 -13.5 -139 -13.5
c-60.667 0 -116.667 6.83301 -168 20.5s-98.166 32.667 -140.499 57s-80.166 52.833 -113.499 85.5s-62.666 68.167 -87.999 106.5s-46.666 78.5 -63.999 120.5s-30.666 84.333 -39.999 127h-234v152h212c0 4.66699 -0.333008 11 -1 19l-2 24l-1 25v22
c0 25.333 0.833008 49.333 2.5 72s3.5 45.667 5.5 69h-216v152h245c9.33301 37.333 22.333 75.666 39 114.999s37.5 77.333 62.5 114s54.333 71.334 88 104.001s72 61.167 115 85.5s91 43.5 144 57.5s111.167 21 174.5 21c94 0 181.333 -16.667 262 -50
s156 -85.333 226 -156z" />
    <glyph glyph-name="trademark" unicode="&#x2122;" horiz-adv-x="1654" 
d="M32 1493h639v-113h-248v-634h-142v634h-249v113zM765 1493l200 0.000976562l115 -285c10 -28.667 19.667 -58.334 29 -89.001s17.833 -60.5 25.5 -89.5s14.167 -56.167 19.5 -81.5s9 -46.666 11 -63.999h6c4 21.333 9.16699 44.666 15.5 69.999s13.5 52 21.5 80
s16.667 56.833 26 86.5l28 89.5l118 283h185v-747h-141v250c0 76 2.66699 140.333 8 193s10.333 97.667 15 135l-7 4c-10.667 -37.333 -23.167 -77 -37.5 -119l-43.5 -125l-127 -338h-143l-121 337c-8 22 -15.667 44.167 -23 66.5l-21 65l-19 60.5l-16 53l-7 -2
c3.33301 -38 6.5 -84.167 9.5 -138.5s4.5 -118.833 4.5 -193.5v-248h-131v747z" />
    <glyph glyph-name="uni2126" unicode="&#x2126;" horiz-adv-x="1496" 
d="M748 1520c68.667 0 132.331 -8.83203 190.998 -26.499s112 -42.334 160 -74.001s90.333 -69.5 127 -113.5s67.5 -92.167 92.5 -144.5s43.833 -107.833 56.5 -166.5s19 -119 19 -181c0 -66 -5.66699 -127.667 -17 -185s-28.833 -111.666 -52.5 -162.999
s-53.667 -100.666 -90 -147.999s-79.166 -94 -128.499 -140h302v-178h-563v178c58.667 34 110.5 74.167 155.5 120.5s82.833 97 113.5 152s53.667 113.333 69 175s23 124.5 23 188.5c0 44.667 -4 88.834 -12 132.501s-20.333 85.167 -37 124.5s-37.5 76 -62.5 110
s-54.5 63.333 -88.5 88s-72.5 44 -115.5 58s-90.5 21 -142.5 21c-52.667 0 -100.5 -7 -143.5 -21s-81.5 -33.333 -115.5 -58s-63.667 -53.834 -89 -87.501s-46.333 -70.334 -63 -110.001s-29 -81.334 -37 -125.001s-12 -87.834 -12 -132.501
c0 -64 7.83301 -126.833 23.5 -188.5s38.667 -120 69 -175s68 -105.667 113 -152s97.167 -86.5 156.5 -120.5v-178h-563v178h302c-48 44.667 -90 90.334 -126 137.001s-66 95.5 -90 146.5s-42 104.833 -54 161.5s-18 117 -18 181c0 94 13.833 184.167 41.5 270.5
s68.834 162.5 123.501 228.5s122.167 118.667 202.5 158s173.5 59 279.5 59z" />
    <glyph glyph-name="partialdiff" unicode="&#x2202;" horiz-adv-x="1154" 
d="M283 1396c41.333 18.667 85.8311 31.6709 133.498 39.0039s93.167 11 136.5 11c60.667 0 114.834 -12 162.501 -36s89.667 -56.167 126 -96.5s67.333 -87 93 -140s46.667 -108.5 63 -166.5s28.166 -116.833 35.499 -176.5s11 -116.167 11 -169.5
c0 -58.667 -2.66699 -116.334 -8 -173.001s-14.833 -110.5 -28.5 -161.5s-32.167 -98.167 -55.5 -141.5s-53 -80.833 -89 -112.5s-79.333 -56.334 -130 -74.001s-109.667 -26.5 -177 -26.5c-68 0 -129.5 12.5 -184.5 37.5s-101.833 59.333 -140.5 103
s-68.334 95.167 -89.001 154.5s-31 123.666 -31 192.999c0 84 11.833 158 35.5 222s57 117.667 100 161s94.5 76 154.5 98s126 33 198 33c30.667 0 58.834 -2.66699 84.501 -8s49.167 -13.5 70.5 -24.5s41.333 -24.833 60 -41.5s36.334 -36 53.001 -58
c-9.33301 54.667 -22.666 109.167 -39.999 163.5s-39.666 103.166 -66.999 146.499s-59.833 78.5 -97.5 105.5s-80.834 40.5 -129.501 40.5c-16 0 -33 -0.5 -51 -1.5s-36 -2.83301 -54 -5.5s-35.5 -6.16699 -52.5 -10.5s-32.5 -9.5 -46.5 -15.5zM576.998 825.004
c-40 0 -77.667 -6.66699 -113 -20s-66.166 -33.833 -92.499 -61.5s-47 -62.5 -62 -104.5s-22.5 -91.667 -22.5 -149c0 -53.333 5.83301 -102.333 17.5 -147s29.5 -83.5 53.5 -116.5s54.167 -58.667 90.5 -77s79.166 -27.5 128.499 -27.5c40.667 0 78.667 8.33301 114 25
s66 40 92 70s46.5 65.667 61.5 107s22.5 86.666 22.5 135.999c0 54.667 -6 104.334 -18 149.001s-30 83 -54 115s-54.167 56.833 -90.5 74.5s-78.833 26.5 -127.5 26.5z" />
    <glyph glyph-name="uni2206" unicode="&#x2206;" horiz-adv-x="1356" 
d="M1328 0h-1285l539 1493h207zM293 168h786l-394 1126z" />
    <glyph glyph-name="product" unicode="&#x220f;" horiz-adv-x="1500" 
d="M200 1493h1100v-1919h-176v1764h-749v-1764h-175v1919z" />
    <glyph glyph-name="summation" unicode="&#x2211;" horiz-adv-x="1277" 
d="M146 1493h1028v-151h-791l551 -779l-569 -837h832v-152h-1077v109l599 874l-573 801v135z" />
    <glyph glyph-name="minus" unicode="&#x2212;" horiz-adv-x="1570" 
d="M1305 719v-154h-1040v154h1040z" />
    <glyph glyph-name="radical" unicode="&#x221a;" horiz-adv-x="1281" 
d="M1053 1661h202v-96h-106l-561 -1606h-72l-302 883l-117 -45l-23 80l247 92l242 -709z" />
    <glyph glyph-name="infinity" unicode="&#x221e;" horiz-adv-x="1621" 
d="M1515 729c0 -50 -6.49902 -97.499 -19.499 -142.499s-32 -84.5 -57 -118.5s-56 -60.833 -93 -80.5s-79.833 -29.5 -128.5 -29.5c-34.667 0 -69.167 7.5 -103.5 22.5s-68.5 34.667 -102.5 59s-67.833 52.166 -101.5 83.499l-100.5 96l-104 -96
c-35.333 -31.333 -70.5 -59.166 -105.5 -83.499s-69.5 -44 -103.5 -59s-67 -22.5 -99 -22.5c-48.667 0 -91.167 9.66699 -127.5 29s-66.666 45.5 -90.999 78.5s-42.5 71.667 -54.5 116s-18 91.5 -18 141.5s6.5 97.5 19.5 142.5s32 84.333 57 118s56 60.5 93 80.5
s79.5 30 127.5 30c31.333 0 63.666 -7.33301 96.999 -22s67.333 -34 102 -58s69.5 -51.667 104.5 -83l105.5 -98l105 97c35.333 31.333 70.5 59.166 105.5 83.499s69.5 43.833 103.5 58.5s67 22 99 22c48 0 90.167 -9.66699 126.5 -29s66.666 -45.5 90.999 -78.5
s42.5 -71.667 54.5 -116s18 -91.5 18 -141.5zM1362 723.001c0 36 -3.66699 67.498 -11 94.498s-17.5 49.5 -30.5 67.5s-28.833 31.5 -47.5 40.5s-39.334 13.5 -62.001 13.5c-20.667 0 -42.167 -5.66699 -64.5 -17s-45.833 -26.666 -70.5 -45.999
s-50.5 -41.666 -77.5 -66.999l-85.5 -81l86 -81.5c27.333 -25.667 53.5 -48 78.5 -67s49.167 -34 72.5 -45s46 -16.5 68 -16.5c22.667 0 42.834 5 60.501 15s32.667 24 45 42s21.833 39.667 28.5 65s10 53 10 83zM259.001 727.999c0 -67.333 12.833 -119.167 38.5 -155.5
s62.167 -54.5 109.5 -54.5c20 0 41.333 5.33301 64 16s46.5 25.334 71.5 44.001s51.333 40.667 79 66l86.5 81l-85 80.5c-28 25.667 -55 48.5 -81 68.5s-50.833 35.833 -74.5 47.5s-45.5 17.5 -65.5 17.5c-22 0 -41.833 -5.33301 -59.5 -16s-32.667 -25.334 -45 -44.001
s-21.833 -41 -28.5 -67s-10 -54 -10 -84z" />
    <glyph glyph-name="integral" unicode="&#x222b;" horiz-adv-x="1004" 
d="M684 1400c-17.333 0 -30.832 -7.16309 -40.499 -21.4961s-17 -31.166 -22 -50.499s-8.16699 -38.666 -9.5 -57.999s-2.33301 -34.333 -3 -45l-59 -1360c-1.33301 -32 -6.33301 -65.5 -15 -100.5s-22 -67.333 -40 -97s-41.333 -54.167 -70 -73.5s-63.334 -29 -104.001 -29
c-34 0 -63.333 8.66699 -88 26s-45.167 39.166 -61.5 65.499s-29 55 -38 86s-15.167 60.167 -18.5 87.5l136 15c0.666992 -8.66699 2.33398 -20.334 5.00098 -35.001s6.5 -29 11.5 -43s11.833 -26.167 20.5 -36.5s20 -15.5 34 -15.5c16.667 0 29.834 7.16699 39.501 21.5
s17 31.166 22 50.499s8.16699 38.666 9.5 57.999s2.33301 34.333 3 45l61 1360c1.33301 32 6.33301 65.667 15 101s22 67.666 40 96.999s41.167 53.666 69.5 72.999s63.166 29 104.499 29c34 0 63.167 -8.66699 87.5 -26s44.666 -39.333 60.999 -66s29 -55.5 38 -86.5
s15.167 -59.833 18.5 -86.5l-136 -15l-5.5 35c-2.33301 14.667 -6 29 -11 43s-11.833 26.167 -20.5 36.5s-20 15.5 -34 15.5z" />
    <glyph glyph-name="approxequal" unicode="&#x2248;" horiz-adv-x="1372" 
d="M1257 835c-22 -22.667 -46.5029 -43.8359 -73.5029 -63.5029s-55.167 -36.667 -84.5 -51s-59.5 -25.666 -90.5 -33.999s-61.833 -12.5 -92.5 -12.5c-26.667 0 -52.667 3.33301 -78 10s-50.166 14.834 -74.499 24.501s-48.166 20.167 -71.499 31.5
s-46.666 21.833 -69.999 31.5s-46.666 17.834 -69.999 24.501s-47.333 10 -72 10c-26 0 -51.167 -4 -75.5 -12s-48 -18.667 -71 -32s-44.833 -28.666 -65.5 -45.999s-40 -35.666 -58 -54.999l-73 119c19.333 20.667 42.666 42.334 69.999 65.001s56.833 43.334 88.5 62.001
s65 34 100 46s69.5 18 103.5 18c27.333 0 53.666 -3.33301 78.999 -10s50 -14.834 74 -24.501s47.667 -20.334 71 -32.001s46.5 -22.334 69.5 -32.001s46.167 -17.834 69.5 -24.501s47.333 -10 72 -10c23.333 0 46 2.66699 68 8s43.333 13 64 23s40.334 22.167 59.001 36.5
s36.667 30.5 54 48.5zM1257 437.998c-22 -22.667 -46.5059 -43.8379 -73.5059 -63.5049s-55.167 -36.667 -84.5 -51s-59.5 -25.666 -90.5 -33.999s-61.833 -12.5 -92.5 -12.5c-26.667 0 -52.667 3.33301 -78 10s-50.166 14.834 -74.499 24.501s-48.166 20.167 -71.499 31.5
s-46.666 21.833 -69.999 31.5s-46.666 17.834 -69.999 24.501s-47.333 10 -72 10c-26 0 -51.167 -4 -75.5 -12s-48 -18.667 -71 -32s-44.833 -28.666 -65.5 -45.999s-40 -35.666 -58 -54.999l-73 119c20 20.667 43.667 42.334 71 65.001s56.833 43.334 88.5 62.001
s64.834 34 99.501 46s69 18 103 18c40.667 0 79.5 -6.83301 116.5 -20.5s73 -28.834 108 -45.501s69.667 -31.834 104 -45.501s69.833 -20.5 106.5 -20.5c23.333 0 46 2.66699 68 8s43.333 12.833 64 22.5s40.334 21.667 59.001 36s36.667 30.5 54 48.5z" />
    <glyph glyph-name="notequal" unicode="&#x2260;" horiz-adv-x="1572" 
d="M1306 919v-154h-338l-192 -264h530v-154h-642l-224 -308l-126 93l157 215h-205v154h318l193 264h-511v154h624l239 326l126 -86l-175 -240h226z" />
    <glyph glyph-name="lessequal" unicode="&#x2264;" horiz-adv-x="1573" 
d="M1393 153v-153h-1212v153h1212zM1328 1118l-915 -367l914 -365l-77 -158l-1069 435v167l1072 438z" />
    <glyph glyph-name="greaterequal" unicode="&#x2265;" horiz-adv-x="1573" 
d="M1393 153v-153h-1212v153h1212zM246 378l914 367l-913 365l77 158l1069 -435v-167l-1072 -438z" />
    <glyph glyph-name="lozenge" unicode="&#x25ca;" horiz-adv-x="1019" 
d="M510 1263l-353 -671l352 -689l367 688zM509 1553l524 -961l-524 -969l-512 969z" />
    <glyph glyph-name="uniFB00" unicode="&#xfb00;" horiz-adv-x="1364" 
d="M599 1571c21.333 0 43.999 -2 67.999 -6s48 -10.333 72 -19l-26 -129c-19.333 3.33301 -40.5 6.16602 -63.5 8.49902s-48.167 3.5 -75.5 3.5c-28.667 0 -53.667 -3.66699 -75 -11s-39 -18.666 -53 -33.999s-24.5 -35.5 -31.5 -60.5s-10.5 -54.833 -10.5 -89.5v-114h483
v84c0 66 7.33301 122.167 22 168.5s36.834 84.333 66.501 114s67.167 51.167 112.5 64.5s98.666 20 159.999 20c21.333 0 44 -2 68 -6s47.667 -10.333 71 -19l-26 -129c-19.333 3.33301 -40.5 6.16602 -63.5 8.49902s-47.833 3.5 -74.5 3.5
c-28.667 0 -53.667 -3.66699 -75 -11s-39.166 -18.666 -53.499 -33.999s-25 -35.5 -32 -60.5s-10.5 -54.833 -10.5 -89.5v-114h288v-145h-288v-975h-165v975h-483v-975h-166v975h-199v145h199v84c0 66 7.33301 122.167 22 168.5s37 84.333 67 114s67.5 51.167 112.5 64.5
s98.167 20 159.5 20z" />
    <glyph glyph-name="uniFB03" unicode="&#xfb03;" horiz-adv-x="1864" 
d="M1534 975h-482.001v-975h-165v975h-483v-975h-166v975h-199v145h199v84c0 66 7.33301 122.167 22 168.5s37 84.333 67 114s67.5 51.167 112.5 64.5s98.167 20 159.5 20c21.333 0 44 -2 68 -6s48 -10.333 72 -19l-26 -129c-19.333 3.33301 -40.5 6.16602 -63.5 8.49902
s-48.167 3.5 -75.5 3.5c-28.667 0 -53.667 -3.66699 -75 -11s-39 -18.666 -53 -33.999s-24.5 -35.5 -31.5 -60.5s-10.5 -54.833 -10.5 -89.5v-114h483v84c0 66 7.33301 122.167 22 168.5s36.834 84.333 66.501 114s67.167 51.167 112.5 64.5s98.666 20 159.999 20
c21.333 0 44 -2 68 -6s47.667 -10.333 71 -19l-26 -129c-19.333 3.33301 -40.5 6.16602 -63.5 8.49902s-47.833 3.5 -74.5 3.5c-28.667 0 -53.667 -3.66699 -75 -11s-39.166 -18.666 -53.499 -33.999s-25 -35.5 -32 -60.5s-10.5 -54.833 -10.5 -89.5v-114h648v-1120h-166
v975zM1521 1439c0 39.333 7.5 68.167 22.5 86.5s38.833 27.5 71.5 27.5c33.333 0 57.833 -9 73.5 -27s23.5 -47 23.5 -87s-8 -68.833 -24 -86.5s-40.333 -26.5 -73 -26.5s-56.5 8.83301 -71.5 26.5s-22.5 46.5 -22.5 86.5z" />
    <glyph glyph-name="uniFB04" unicode="&#xfb04;" horiz-adv-x="1866" 
d="M599 1571c21.333 0 43.998 -1.99902 67.998 -5.99902s48 -10.333 72 -19l-26 -129c-19.333 3.33301 -40.5 6.16602 -63.5 8.49902s-48.167 3.5 -75.5 3.5c-28.667 0 -53.667 -3.66699 -75 -11s-39 -18.666 -53 -33.999s-24.5 -35.5 -31.5 -60.5
s-10.5 -54.833 -10.5 -89.5v-114h483v84c0 63.333 8 118.166 24 164.499s39.833 84.5 71.5 114.5s71.334 52.167 119.001 66.5s103.167 21.5 166.5 21.5c30 0 63.333 -2.16699 100 -6.5s74.167 -10.666 112.5 -18.999s76.5 -18.333 114.5 -30s73.333 -24.5 106 -38.5v-1477
h-165v1377c-19.333 8 -40.333 15.167 -63 21.5s-46.5 11.666 -71.5 15.999s-50.833 7.83301 -77.5 10.5s-53.667 4 -81 4c-33.333 0 -62 -3.83301 -86 -11.5s-43.667 -19.5 -59 -35.5s-26.666 -36.333 -33.999 -61s-11 -53.667 -11 -87v-114h288v-145h-288v-975h-166v975
h-483v-975h-166v975h-199v145h199v84c0 66 7.33301 122.167 22 168.5s37 84.333 67 114s67.5 51.167 112.5 64.5s98.167 20 159.5 20z" />
    <glyph glyph-name="uniFB05" unicode="&#xfb05;" horiz-adv-x="1439" 
d="M1378 15c-9.33301 -4.66699 -21.1699 -9.49609 -35.5029 -14.4961s-29.833 -9.66699 -46.5 -14s-33.667 -7.83301 -51 -10.5s-33.666 -4 -48.999 -4c-54 0 -100.333 6.5 -139 19.5s-70.667 33.333 -96 61s-44 63 -56 106s-18 94.833 -18 155.5v661h-483v-975h-166v975
h-199v145h199v84c0 58.667 5.83301 110.667 17.5 156s30.334 83.666 56.001 114.999s59 55.166 100 71.499s90.833 24.5 149.5 24.5c14.667 0 30.167 -0.666992 46.5 -2s32.333 -3.33301 48 -6s30.667 -5.83398 45 -9.50098s26.5 -7.83398 36.5 -12.501l-23 -130
c-10.667 2.66699 -21.667 5 -33 7s-23.333 3.83301 -36 5.5s-25.5 3 -38.5 4s-26.167 1.5 -39.5 1.5c-33.333 0 -60.666 -3.83301 -81.999 -11.5s-38 -19.5 -50 -35.5s-20.167 -36.167 -24.5 -60.5s-6.5 -53.5 -6.5 -87.5v-114h483l20 318h145v-318h338v-145h-338v-622
c0 -34.667 2.83301 -66 8.5 -94s15 -51.667 28 -71s30 -34.333 51 -45s46.833 -16 77.5 -16c8.66699 0 19 0.5 31 1.5s24.167 2.5 36.5 4.5s24.5 4.33301 36.5 7s22.667 5.66699 32 9z" />
    <glyph glyph-name="grave.cap" 
d="M603 1611l-428 170l112 128l392 -209z" />
    <glyph glyph-name="acute.cap" horiz-adv-x="856" 
d="M253 1608l-80 92l392 209l116 -131z" />
    <glyph glyph-name="circumflex.cap" 
d="M428 1904l298 -207l-80 -90l-228 128l-218 -128l-68 84z" />
    <glyph glyph-name="tilde.cap" 
d="M549 1644c-37.333 0 -68.335 4.83008 -93.002 14.4971s-46.5 20.334 -65.5 32.001l-53 32c-16.333 9.66699 -34.833 14.5 -55.5 14.5c-14 0 -26.333 -2.83301 -37 -8.5s-20.167 -13 -28.5 -22s-16.166 -19.167 -23.499 -30.5l-22 -35l-93 63
c9.33301 20.667 21 41.167 35 61.5s30.167 38.5 48.5 54.5s39 28.833 62 38.5s48.167 14.5 75.5 14.5c34 0 62.667 -4.83301 86 -14.5s44.666 -20.5 63.999 -32.5s38 -22.833 56 -32.5s38.667 -14.5 62 -14.5c12.667 0 24.334 2.5 35.001 7.5s20.334 11.833 29.001 20.5
s16.334 18.834 23.001 30.501s12.667 23.834 18 36.501l95 -59c-22.667 -60 -51.834 -103.5 -87.501 -130.5s-79.167 -40.5 -130.5 -40.5z" />
    <glyph glyph-name="breve.cap" horiz-adv-x="883" 
d="M263 1909c2.66699 -20 9.33691 -37.502 20.0039 -52.502s23.667 -27.333 39 -37s32.166 -17 50.499 -22s37.166 -7.5 56.499 -7.5c20.667 0 40.167 1.83301 58.5 5.5s34.666 10 48.999 19s26.333 21.167 36 36.5s16.5 34.666 20.5 57.999h138
c-2.66699 -49.333 -12.5 -91.166 -29.5 -125.499s-39.333 -62.166 -67 -83.499s-59.167 -36.666 -94.5 -45.999s-72.333 -14 -111 -14c-38 0 -74.667 4.66699 -110 14s-66.833 24.5 -94.5 45.5s-50.334 48.667 -68.001 83s-28.167 76.5 -31.5 126.5h138z" />
    <glyph glyph-name="dieresis.cap" horiz-adv-x="926" 
d="M117 1730c0 38.667 7.5 66.834 22.5 84.501s39.5 26.5 73.5 26.5c33.333 0 58 -8.83301 74 -26.5s24 -45.834 24 -84.501s-8 -66.5 -24 -83.5s-40.667 -25.5 -74 -25.5c-34 0 -58.5 8.5 -73.5 25.5s-22.5 44.833 -22.5 83.5zM547 1730c0 38.667 7.5 66.834 22.5 84.501
s39.5 26.5 73.5 26.5c32 0 56.167 -8.83301 72.5 -26.5s24.5 -45.834 24.5 -84.501s-8.16699 -66.5 -24.5 -83.5s-40.5 -25.5 -72.5 -25.5c-34 0 -58.5 8.5 -73.5 25.5s-22.5 44.833 -22.5 83.5z" />
    <glyph glyph-name="hungarumlaut.cap" horiz-adv-x="902" 
d="M126 1639l179 321l160 -63l-216 -303zM413 1628l222 320l152 -76l-258 -299z" />
    <glyph glyph-name="caron.cap" horiz-adv-x="885" 
d="M430 1607l-298 207l79 90l229 -128l218 128l68 -84z" />
    <glyph glyph-name="cedilla.alt" 
d="M236 -417l47.5 28.499c14.333 9 26.666 18.167 36.999 27.5s18.333 18.666 24 27.999s8.5 19 8.5 29c0 17.333 -9.66699 35.5 -29 54.5s-45 33.833 -77 44.5l48.5 69c15.667 23.333 30.167 46 43.5 68s25.333 43.167 36 63.5s19 38.833 25 55.5l101 -35
c-4 -11.333 -9.16699 -24.166 -15.5 -38.499s-13.5 -28.5 -21.5 -42.5l-24.5 -41c-8.33301 -13.333 -16.166 -24.666 -23.499 -33.999c14.667 -8 28.167 -16.167 40.5 -24.5s23 -17.833 32 -28.5s16.167 -22.834 21.5 -36.501s8 -29.167 8 -46.5
c0 -24.667 -5.5 -47.167 -16.5 -67.5s-26.333 -39.166 -46 -56.499s-43.167 -33.5 -70.5 -48.5s-57.333 -29.5 -90 -43.5z" />
    <glyph glyph-name="sfthyphen" horiz-adv-x="706" 
d="M102 643h505v-164h-505v164z" />
    <glyph glyph-name="periodcentered" horiz-adv-x="515" 
d="M156 710c0 42 8 72.5 24 91.5s41.333 28.5 76 28.5s60.334 -9.5 77.001 -28.5s25 -49.5 25 -91.5s-8.33301 -72.333 -25 -91s-42.334 -28 -77.001 -28s-60 9.33301 -76 28s-24 49 -24 91z" />
    <glyph glyph-name="apple" horiz-adv-x="2890" 
d="M1782 -279l-235 -166l-1047 740v631l234 165l375 -262v528l235 166l237 -166v-528l170 118l200 -141l204 143l235 -166v-631l-235 -165l-204 144l-169 -121v-289zM564 926l170 -120l171 120l-171 122zM767 783l169 -122l173 122l-169 120zM968 639l172 -122l172 122
l-172 120zM1344 1478l-173 -121l173 -122l172 122zM1344 1189l-173 -121l173 -121l169 124zM1344 903l-173 -120l173 -122l169 122zM1171 493l173 -117l169 120l-169 119zM1375 353l172 -121l169 121l-169 121zM1751 903l-173 -120l170 -122l172 122zM2155 903l-170 -120
l170 -122l172 122z" />
    <glyph glyph-name="signature" horiz-adv-x="2890" 
d="M1697 76v342h351v-225h-189v40h63v144h-95v-265h225v-36h-355zM1418 71v-72h-131v419h351v-347h-220zM887 -1v36h211v77h-220v306h126v-266h94v266h131v-419h-342zM756 377v-265h77v-36h-203v301h-49v41h49v117h126v-117h90v-41h-90zM1418 377v-265h94v265h-94zM2316 581
v342h351v-225h-193v41h63v144h-95v-266h225v-36h-351zM2123 577v427h-41v36h171v-463h-130zM1718 581v342h346v-342h-346zM1596 883v-266h72v-36h-202v302h-50v40h50v117h130v-117h86v-40h-86zM1259 581v180h-95v-144h50v-36h-176v221h221v81h-185v40h315v-306h32v-36h-162z
M849 581v302h-94v-302h-131v342h351v-342h-126zM431 581v180h-95v-144h50v-36h-176v221h221v81h-185v40h315v-306h36v-36h-166zM1844 883v-266h94v266h-94z" />
    </font>
</defs>
</svg>
